<?xml version="1.0" encoding="utf-8"?>
<!-- Generator: Adobe Illustrator 24.1.2, SVG Export Plug-In . SVG Version: 6.00 Build 0)  -->
<svg version="1.1" xmlns="http://www.w3.org/2000/svg" xmlns:xlink="http://www.w3.org/1999/xlink" x="0px" y="0px"
	 viewBox="0 0 841.89 595.28" style="enable-background:new 0 0 841.89 595.28;" xml:space="preserve">
<style type="text/css">
	.st0{fill:#FFFFFF;}
	.st1{fill:#FFFFFF;stroke:#FFFFFF;stroke-width:15;stroke-linecap:round;stroke-linejoin:round;stroke-miterlimit:10;}
	
		.st2{clip-path:url(#SVGID_2_);fill:#FFFFFF;stroke:#FFFFFF;stroke-width:15;stroke-linecap:round;stroke-linejoin:round;stroke-miterlimit:10;}
	
		.st3{clip-path:url(#SVGID_4_);fill:#FFFFFF;stroke:#FFFFFF;stroke-width:15;stroke-linecap:round;stroke-linejoin:round;stroke-miterlimit:10;}
	.st4{fill:#FFFFFF;stroke:#FFFFFF;stroke-width:15;stroke-linecap:round;stroke-linejoin:round;}
	.st5{clip-path:url(#SVGID_6_);fill:#FFCC00;}
	.st6{fill:none;stroke:#000000;stroke-width:0.7797;stroke-miterlimit:10;}
	.st7{fill:#FFCC00;}
	.st8{stroke:#000000;stroke-width:0.7464;stroke-miterlimit:10;}
	.st9{clip-path:url(#SVGID_8_);fill:#FFCC00;}
	.st10{fill:#FFCC00;stroke:#000000;stroke-width:0.7464;stroke-miterlimit:10;}
	.st11{fill:none;stroke:#000000;stroke-width:1.6936;}
	.st12{fill:#FFFFFF;stroke:#FFFFFF;stroke-width:3.1196;stroke-linejoin:round;stroke-miterlimit:10;}
	.st13{fill:#FFFFFF;stroke:#000000;stroke-width:2.0474;stroke-miterlimit:10;}
	.st14{fill:none;}
</style>
<g id="Halo">
	<g>
		<rect x="353.34" y="269.05" class="st0" width="10.84" height="20.96"/>
		<g>
			<g>
				<g>
					<path class="st1" d="M297.8,278.39c0.07,0.05,0.03,0.22-0.02,0.25C297.72,278.59,297.82,278.48,297.8,278.39 M297.58,278.53
						c-0.04,0.09-0.09,0.07-0.19,0.06c0.02-0.09,0.02-0.05-0.01-0.14C297.5,278.42,297.54,278.48,297.58,278.53 M283.02,264.79
						c0.17,1.03-0.54,2.11-0.63,3.27c-0.05,0.64-0.09,1.27-0.3,1.76c-0.13,0.32-0.31,0.56-0.4,1.01c-0.04,0.19-0.13,0.4-0.15,0.56
						c-0.02,0.16,0.03,0.29,0.02,0.42c-0.02,0.18-0.15,0.35-0.15,0.53c0.01,0.18,0.13,0.28,0.15,0.42c0.12,0.58-0.18,0.82-0.4,1.17
						c0.04,0.21,0.29,0.2,0.37,0.36c-0.02,0.18-0.12,0.3-0.15,0.48c-0.37-0.4-0.46-1-0.55-1.54c-0.1-0.62-0.11-1.31-0.1-1.96
						c0.02-1.23,0.21-2.51,0.23-3.72c0.03-2.65,0.4-4.95,0.96-7.05c0.19,0.93,0.72,1.67,0.84,2.55c0.04,0.31-0.09,0.57-0.05,0.87
						C282.75,264.22,282.97,264.5,283.02,264.79 M299.26,277.68c0.05-0.46-0.25-1.06-0.31-1.65c-0.03-0.27,0-0.54-0.03-0.78
						c-0.03-0.31-0.17-0.6-0.2-0.87c-0.03-0.28,0.02-0.56-0.03-0.84c-0.2-1.14-0.38-2.29-0.51-3.47c-0.13-1.18-0.2-2.39-0.41-3.58
						c-0.19-1.11-0.59-2.14-0.75-3.22c-0.28-1.83-0.28-3.87-0.2-5.6c0.21-0.18,0.67-0.21,0.73-0.48c0.05-0.26-0.3-0.91-0.34-1.12
						c-0.21-1.01-0.11-2.1-0.46-2.94c-0.1-0.23-0.33-0.45-0.52-0.67c-0.18-0.22-0.4-0.51-0.6-0.62c-0.59-0.31-1.33-0.48-1.96-0.67
						c-0.67-0.21-1.29-0.45-1.71-0.92c-0.17-0.19-0.23-0.47-0.46-0.56c-0.08-0.31-0.15-0.44-0.33-0.64
						c-0.02-0.52,0.01-0.98-0.03-1.51c0.87-0.17,1.08-0.34,1.28-1.15c0.12-0.49,0.34-0.96,0.36-1.54c0.01-0.41,0.06-0.8,0.04-1.09
						c-0.03-0.77-0.7-1.2-0.75-1.73c-0.02-0.26,0.12-0.52,0.08-0.73c-0.02-0.12-0.15-0.2-0.26-0.36c-0.09-0.13-0.17-0.3-0.24-0.42
						c-0.25-0.43-0.54-0.77-0.37-1.2c-0.13-0.27-0.29-0.51-0.41-0.78c-0.27-0.02-0.49-0.37-0.82-0.48
						c-0.17-0.06-0.38-0.04-0.55-0.11c-0.2-0.08-0.36-0.2-0.53-0.22c-0.4-0.05-0.8,0.03-1.13,0.08c-0.23,0.04-0.44,0.15-0.68,0.2
						c-0.13,0.02-0.26,0-0.39,0.03c-0.39,0.09-0.77,0.33-1.08,0.56c-0.3,0.22-0.76,0.47-0.91,0.75c-0.24,0.43-0.43,1.13-0.46,1.68
						c-0.01,0.16,0,0.39,0.02,0.59c0.15,1.15,0.6,2.55,1.06,3.33c0.29,0.5,0.83,0.79,1.04,1.37c0.06,0.17,0.07,0.37,0.16,0.56
						c0.02,0.11,0.16,0.08,0.2,0.17c0.05,0.56-0.1,0.93-0.29,1.26c-0.23-0.03-0.45,0.11-0.42,0.42c-0.14-0.08-0.25-0.09-0.42-0.06
						c-0.17,0.11-0.04,0.31-0.15,0.42c-0.14,0.14-0.38,0.08-0.71,0.08c-0.32,0.29-0.59,0.42-0.94,0.64
						c-0.18,0.11-0.32,0.26-0.49,0.31c-0.54,0.15-1.22,0.28-1.72,0.42c-0.19,0.06-0.42,0.05-0.6,0.11
						c-0.37,0.13-0.64,0.53-0.88,0.87c-0.23,0.32-0.5,0.59-0.63,0.92c-0.31,0.78-0.51,1.78-0.73,2.71
						c-0.08,0.33-0.24,0.72-0.24,0.92c0,0.11,0.08,0.23,0.09,0.34c0.06,0.64-0.07,1.41-0.14,2.13c-0.22,2.14-0.21,4.36-0.43,6.43
						c-0.24,2.19,0.11,4.55,0.43,6.57c0.12,0.77,0.05,1.52,0.14,2.27c0.02,0.23,0.17,0.46,0.19,0.7c0.07,0.83-0.4,1.59-0.38,2.52
						c0,0.15,0.05,0.32,0.07,0.5c0.04,0.38-0.04,0.85,0.1,1.15c0.05,0.12,0.24,0.21,0.34,0.34c0.16,0.22,0.3,0.5,0.49,0.73
						c0.08,0.1,0.21,0.18,0.31,0.28c0.11,0.11,0.2,0.26,0.29,0.34c0.18,0.17,0.49,0.28,0.54,0.45c0.08,0.27-0.08,0.64-0.08,0.92
						c0,0.17,0.04,0.33,0.05,0.5c0.02,1.51-0.38,3.18-0.16,4.73c0.04,0.25,0.15,0.54,0.11,0.81c-0.08,0.49-0.68,0.84-0.53,1.48
						c-0.32,0.59-0.49,0.91-0.51,1.74c-0.02,0.5,0,0.87-0.03,1.43c-0.03,0.5-0.19,1.07-0.3,1.62c-0.22,1.1-0.22,2.29-0.4,3.44
						c-0.34,2.23-0.77,4.49-0.97,6.74c-0.05,0.62,0,1.26-0.1,1.85c-0.03,0.18-0.17,0.41-0.14,0.59c0.05,0.36,0.43,0.48,0.58,0.78
						c-0.11,0.3-0.19,0.62-0.27,0.95c-0.61,0.83-1.4,1.63-1.47,2.91c0.88,0.07,2.35,0.31,3.48,0.22c0.29-0.02,0.94-0.11,1.01-0.39
						c0.05-0.21-0.17-0.41-0.13-0.62c0.63-0.11,1.75-0.03,1.91-0.53c0.16-0.49-0.36-1.26-0.31-1.71c0.04-0.32,0.34-0.34,0.42-0.59
						c0.09-0.3-0.05-0.69-0.04-1.09c0.01-0.36,0.08-0.77,0.13-1.12c0.08-0.62,0.3-1.22,0.4-1.85c0.11-0.68,0.11-1.37,0.17-2.1
						c0.03-0.3,0.13-0.63,0.19-0.95c0.26-1.62,0.67-3.11,0.99-4.7c0.13-0.64,0.17-1.35,0.37-1.93c0.11-0.32,0.34-0.6,0.46-0.9
						c0.3-0.68,0.55-1.28,0.7-2.01c0.08-0.37,0.23-0.73,0.29-1.09c0.17-0.98,0.02-1.96,0.23-2.91c0.07-0.34,0.21-0.65,0.27-1.01
						c0.05-0.38,0.03-0.79,0.09-1.18c0.03-0.2,0.14-0.41,0.2-0.61c0.06-0.22,0.08-0.48,0.14-0.7c0.07-0.24,0.22-0.48,0.3-0.73
						c0.27-0.8,0.51-1.56,0.91-2.18c0.27,1.28-0.27,2.56-0.07,4c0.03,0.24,0.14,0.46,0.16,0.7c0.11,1.02-0.07,2.22-0.08,3.13
						c0,0.34,0.06,0.69,0.07,1.03c0.01,0.41-0.05,0.83-0.07,1.26c-0.01,0.44,0.04,0.91-0.01,1.31c-0.05,0.45-0.21,0.89-0.26,1.34
						c-0.1,0.99-0.17,2-0.2,2.99c-0.01,0.54,0.05,1.09,0,1.62c-0.05,0.62-0.29,1.23-0.4,1.88c-0.27,1.62-0.4,3.43-0.5,5.18
						c-0.02,0.37,0,0.77-0.04,1.12c-0.01,0.11-0.1,0.25-0.1,0.36c0.01,0.16,0.12,0.14,0.09,0.28c-0.06,0.22-0.1,0.6-0.02,0.87
						c-0.1,0.21-0.13,0.48-0.19,0.75c-0.06,0.28-0.2,0.61-0.14,0.84c0.09,0.29,0.66,0.43,0.98,0.48c0.46,0.06,0.91,0.05,1.28,0.17
						c-0.28,0.72,0.27,0.88,0.78,1.04c1.04,0.31,2.73,0.12,3.58-0.06c0.09-0.37-0.1-0.67-0.17-0.9c-0.04-0.12-0.02-0.23-0.07-0.34
						c-0.32-0.83-1.3-1.19-1.4-2.24c0.14-0.06,0.37-0.03,0.52-0.08c0.07-0.66-0.19-1.39-0.16-2.1c0.02-0.41,0.17-0.86,0.26-1.29
						c0.08-0.43,0.22-0.86,0.28-1.29c0.14-0.95,0.18-1.86,0.22-2.91c0.04-0.85,0.15-1.83,0.23-2.8c0.08-0.96,0.13-1.96,0.34-2.71
						c0.14-0.5,0.47-1.08,0.71-1.62c0.25-0.54,0.64-1.18,0.71-1.68c0.17-1.24,0.19-2.52,0.28-3.78c0.09-1.23,0.19-2.47,0.33-3.72
						c0.07-0.59,0.1-1.21,0.24-1.79c0.13-0.56,0.25-1.13,0.32-1.71c0.24-1.92,0.69-4.04,0.38-6.32c-0.04-0.27-0.14-0.57-0.14-0.84
						c0-0.11,0.07-0.16,0.07-0.25c0.01-0.13-0.13-0.22-0.07-0.39c0.13,0.82,0.9,1.52,0.7,2.52c-0.04,0.19-0.16,0.33-0.2,0.5
						c-0.07,0.27-0.12,0.58-0.08,0.89c0.03,0.22,0.18,0.43,0.22,0.64c0.1,0.61-0.32,1.63,0.24,1.96c0.1,0.06,0.3,0.05,0.42,0.06
						c-0.1,0.44-0.81,0.4-0.65,1.01c-0.38-0.01-0.57,0.57-0.3,0.87c0.35,0.03,0.4-0.2,0.74-0.11c0.31-0.21,0.6-0.51,0.88-0.73
						c0.12-0.09,0.25-0.12,0.32-0.22c0.23-0.32,0.21-0.8,0.34-1.29C299.04,278.1,299.24,277.89,299.26,277.68"/>
					<g>
						<defs>
							<path id="SVGID_1_" d="M297.58,278.52c-0.03,0.05-0.05,0.07-0.09,0.07c-0.03,0-0.06-0.01-0.1-0.01
								c0.02-0.09,0.02-0.05-0.01-0.14C297.5,278.42,297.54,278.48,297.58,278.52 M297.8,278.39c0.07,0.05,0.03,0.22-0.02,0.25
								C297.72,278.59,297.82,278.48,297.8,278.39 M281.54,274.3c-0.03,0.18-0.12,0.3-0.15,0.48c-0.37-0.4-0.46-1-0.55-1.54
								c-0.1-0.62-0.11-1.31-0.1-1.96c0.02-1.23,0.21-2.51,0.23-3.72c0.03-2.65,0.4-4.95,0.96-7.05c0.19,0.93,0.72,1.67,0.84,2.55
								c0.04,0.31-0.09,0.57-0.05,0.87c0.04,0.3,0.26,0.58,0.31,0.87c0.17,1.04-0.54,2.11-0.63,3.27c-0.05,0.64-0.09,1.27-0.3,1.76
								c-0.13,0.32-0.31,0.56-0.4,1.01c-0.04,0.19-0.13,0.4-0.15,0.56c-0.02,0.16,0.03,0.29,0.01,0.42
								c-0.02,0.18-0.15,0.35-0.15,0.53c0.01,0.18,0.12,0.28,0.15,0.42c0.12,0.58-0.18,0.81-0.4,1.18
								C281.22,274.14,281.46,274.14,281.54,274.3 M288.97,237.74c-0.09-0.01-0.18-0.02-0.27-0.02c-0.31,0-0.61,0.06-0.86,0.1
								c-0.23,0.04-0.44,0.15-0.68,0.2c-0.13,0.02-0.26,0-0.38,0.03c-0.39,0.09-0.77,0.33-1.08,0.56c-0.3,0.22-0.76,0.48-0.91,0.76
								c-0.24,0.43-0.43,1.13-0.46,1.68c-0.01,0.16,0,0.39,0.02,0.59c0.15,1.15,0.6,2.55,1.06,3.33c0.29,0.49,0.83,0.79,1.04,1.37
								c0.06,0.17,0.07,0.36,0.16,0.56c0.02,0.11,0.16,0.08,0.2,0.17c0.05,0.56-0.1,0.93-0.29,1.26c-0.24-0.03-0.45,0.11-0.42,0.42
								c-0.14-0.08-0.25-0.09-0.42-0.06c-0.17,0.11-0.04,0.31-0.15,0.42c-0.11,0.11-0.27,0.1-0.48,0.09c-0.07,0-0.15-0.01-0.23-0.01
								c-0.32,0.29-0.59,0.42-0.94,0.64c-0.18,0.11-0.31,0.26-0.49,0.31c-0.54,0.15-1.22,0.28-1.72,0.42
								c-0.19,0.05-0.42,0.05-0.6,0.11c-0.37,0.13-0.64,0.53-0.88,0.87c-0.23,0.32-0.5,0.59-0.63,0.92c-0.3,0.79-0.5,1.78-0.73,2.71
								c-0.08,0.33-0.25,0.72-0.24,0.92c0,0.11,0.08,0.23,0.09,0.34c0.06,0.64-0.07,1.41-0.14,2.13c-0.22,2.14-0.21,4.37-0.43,6.43
								c-0.24,2.19,0.11,4.55,0.43,6.57c0.12,0.76,0.06,1.52,0.14,2.26c0.02,0.23,0.17,0.46,0.19,0.7c0.07,0.83-0.4,1.59-0.38,2.52
								c0,0.15,0.05,0.32,0.07,0.5c0.04,0.38-0.04,0.85,0.1,1.15c0.05,0.12,0.24,0.21,0.34,0.34c0.16,0.22,0.3,0.5,0.49,0.73
								c0.09,0.1,0.22,0.18,0.31,0.28c0.11,0.11,0.2,0.26,0.29,0.34c0.18,0.17,0.49,0.28,0.54,0.45c0.08,0.27-0.08,0.64-0.08,0.92
								c0,0.16,0.04,0.33,0.05,0.5c0.02,1.51-0.38,3.18-0.16,4.73c0.03,0.25,0.15,0.54,0.11,0.81c-0.08,0.49-0.68,0.84-0.53,1.48
								c-0.32,0.59-0.49,0.91-0.51,1.74c-0.02,0.5,0,0.87-0.03,1.43c-0.03,0.5-0.19,1.07-0.3,1.62c-0.22,1.1-0.22,2.29-0.4,3.44
								c-0.34,2.23-0.77,4.49-0.97,6.74c-0.06,0.62,0,1.26-0.1,1.85c-0.03,0.18-0.17,0.41-0.15,0.59c0.05,0.36,0.43,0.48,0.58,0.78
								c-0.11,0.3-0.19,0.62-0.27,0.95c-0.61,0.83-1.4,1.63-1.47,2.91c0.88,0.07,2.35,0.31,3.48,0.22c0.29-0.02,0.94-0.11,1.01-0.39
								c0.05-0.21-0.17-0.41-0.13-0.61c0.63-0.11,1.75-0.03,1.91-0.53c0.16-0.49-0.36-1.26-0.31-1.71c0.04-0.32,0.35-0.34,0.42-0.59
								c0.09-0.3-0.05-0.69-0.04-1.09c0.02-0.36,0.08-0.77,0.13-1.12c0.08-0.62,0.3-1.22,0.4-1.85c0.11-0.68,0.11-1.37,0.17-2.1
								c0.03-0.3,0.13-0.63,0.19-0.95c0.27-1.62,0.67-3.11,0.99-4.7c0.13-0.64,0.18-1.35,0.37-1.93c0.11-0.32,0.34-0.6,0.47-0.89
								c0.29-0.68,0.54-1.28,0.7-2.01c0.08-0.37,0.23-0.73,0.29-1.09c0.16-0.98,0.02-1.96,0.23-2.91c0.08-0.34,0.21-0.65,0.27-1.01
								c0.05-0.38,0.03-0.79,0.09-1.18c0.03-0.2,0.14-0.41,0.2-0.62c0.06-0.22,0.08-0.48,0.14-0.7c0.07-0.24,0.22-0.48,0.31-0.73
								c0.27-0.79,0.51-1.56,0.91-2.18c0.27,1.28-0.27,2.56-0.07,4c0.03,0.24,0.14,0.46,0.16,0.7c0.11,1.02-0.07,2.22-0.08,3.13
								c0,0.34,0.06,0.69,0.06,1.04c0.01,0.41-0.05,0.83-0.07,1.26c-0.01,0.44,0.04,0.91-0.01,1.31c-0.05,0.46-0.21,0.89-0.26,1.34
								c-0.1,0.99-0.17,2-0.2,2.99c-0.01,0.54,0.05,1.09,0,1.62c-0.05,0.62-0.29,1.24-0.4,1.88c-0.27,1.62-0.4,3.43-0.5,5.17
								c-0.02,0.37,0,0.77-0.04,1.12c-0.01,0.11-0.1,0.25-0.1,0.36c0.01,0.16,0.12,0.14,0.09,0.28c-0.06,0.22-0.1,0.6-0.02,0.87
								c-0.1,0.21-0.13,0.48-0.19,0.76c-0.06,0.27-0.2,0.61-0.14,0.84c0.09,0.29,0.66,0.43,0.98,0.48c0.47,0.06,0.91,0.05,1.28,0.17
								c-0.28,0.72,0.26,0.88,0.78,1.04c1.05,0.31,2.73,0.12,3.58-0.06c0.09-0.37-0.1-0.67-0.17-0.9c-0.04-0.12-0.03-0.23-0.07-0.34
								c-0.32-0.84-1.3-1.19-1.4-2.24c0.14-0.06,0.37-0.03,0.52-0.08c0.07-0.66-0.19-1.39-0.16-2.1c0.02-0.41,0.17-0.86,0.26-1.29
								c0.08-0.43,0.22-0.86,0.28-1.29c0.14-0.96,0.18-1.86,0.22-2.91c0.04-0.85,0.15-1.83,0.23-2.8c0.08-0.96,0.13-1.96,0.34-2.71
								c0.14-0.5,0.47-1.08,0.71-1.62c0.25-0.54,0.64-1.18,0.71-1.68c0.17-1.24,0.18-2.52,0.28-3.78c0.09-1.23,0.19-2.47,0.33-3.72
								c0.07-0.59,0.1-1.21,0.24-1.79c0.13-0.56,0.25-1.13,0.33-1.71c0.24-1.92,0.69-4.04,0.38-6.32c-0.04-0.27-0.14-0.57-0.14-0.84
								c0-0.11,0.07-0.16,0.08-0.25c0.01-0.13-0.13-0.22-0.07-0.39c0.13,0.82,0.9,1.52,0.7,2.52c-0.04,0.19-0.16,0.33-0.2,0.5
								c-0.07,0.27-0.12,0.58-0.08,0.9c0.03,0.22,0.18,0.43,0.22,0.64c0.1,0.61-0.32,1.63,0.24,1.96c0.1,0.06,0.3,0.05,0.42,0.06
								c-0.1,0.44-0.81,0.4-0.65,1.01c-0.38-0.01-0.57,0.57-0.3,0.87c0.16,0.02,0.25-0.02,0.35-0.06c0.11-0.05,0.21-0.1,0.4-0.05
								c0.31-0.21,0.6-0.51,0.88-0.73c0.12-0.09,0.25-0.13,0.32-0.23c0.23-0.32,0.21-0.8,0.34-1.29c0.05-0.2,0.26-0.41,0.28-0.62
								c0.05-0.46-0.25-1.06-0.31-1.65c-0.03-0.27,0-0.54-0.03-0.78c-0.04-0.31-0.17-0.6-0.2-0.87c-0.03-0.28,0.02-0.56-0.03-0.84
								c-0.2-1.14-0.38-2.29-0.51-3.47c-0.13-1.18-0.2-2.39-0.41-3.58c-0.19-1.11-0.59-2.14-0.75-3.22c-0.28-1.83-0.28-3.87-0.2-5.6
								c0.21-0.18,0.67-0.21,0.73-0.48c0.05-0.26-0.3-0.91-0.34-1.12c-0.21-1.01-0.11-2.1-0.46-2.94c-0.1-0.23-0.33-0.45-0.52-0.67
								c-0.18-0.22-0.4-0.51-0.6-0.62c-0.59-0.31-1.33-0.48-1.96-0.67c-0.67-0.21-1.29-0.45-1.72-0.92
								c-0.17-0.19-0.23-0.47-0.46-0.56c-0.08-0.31-0.15-0.44-0.33-0.64c-0.02-0.52,0.01-0.98-0.03-1.51
								c0.87-0.17,1.08-0.34,1.28-1.15c0.12-0.49,0.34-0.96,0.36-1.54c0.01-0.41,0.05-0.8,0.04-1.09c-0.03-0.77-0.7-1.2-0.75-1.74
								c-0.02-0.26,0.12-0.52,0.08-0.73c-0.02-0.12-0.15-0.2-0.26-0.36c-0.09-0.13-0.17-0.3-0.24-0.42
								c-0.25-0.43-0.54-0.77-0.38-1.2c-0.13-0.27-0.29-0.51-0.41-0.78c-0.27-0.02-0.49-0.37-0.82-0.48
								c-0.17-0.06-0.38-0.04-0.56-0.11C289.3,237.88,289.14,237.76,288.97,237.74"/>
						</defs>
						<use xlink:href="#SVGID_1_"  style="overflow:visible;fill:#FFFFFF;"/>
						<clipPath id="SVGID_2_">
							<use xlink:href="#SVGID_1_"  style="overflow:visible;"/>
						</clipPath>
						<path class="st2" d="M291.71,248.3c0,0,0.3,1.45-0.3,2.46c-0.6,1.02-2.25,3.77-2.25,3.77s-1.5-3.25-2.1-4.2
							c-0.6-0.95-1.5-2.82-1.5-2.82l-3.6,2.24l-1.35,0.72c0,0,1.35,0.44,1.5,2.61c0.15,2.17-0.3,3.56-0.3,4.93
							c0,1.36,0.3,2.71,0.3,2.71l-0.9,12.79c0,0,1.2,0.96,2.7,0.96h3.92c1.33,0,1.92-1.54,1.92-1.54s-0.07,1.22,0.6,1.54
							c1.05,0.51,1.57,0.51,2.7,0.51c1.13,0,3-0.51,3-0.51s-1.25-6.61-1.2-7.92c0.15-3.91,1.05-6.38,0.75-8.11
							c-0.19-1.08-0.45-2.1-0.45-3.33c0-1.01,0.9-4.06,0.9-4.06L291.71,248.3z"/>
						
							<use xlink:href="#SVGID_1_"  style="overflow:visible;fill:none;stroke:#FFFFFF;stroke-width:15;stroke-linecap:round;stroke-linejoin:round;stroke-miterlimit:10;"/>
					</g>
					<g>
						<path class="st1" d="M297.78,278.64c-0.07-0.05,0.04-0.16,0.02-0.25C297.87,278.44,297.83,278.61,297.78,278.64z
							 M297.39,278.58c0.02-0.09,0.02-0.05-0.01-0.14c0.11-0.02,0.15,0.04,0.2,0.08C297.54,278.61,297.49,278.6,297.39,278.58z
							 M282.39,268.06c-0.05,0.64-0.09,1.27-0.3,1.76c-0.13,0.32-0.31,0.56-0.4,1.01c-0.04,0.19-0.13,0.4-0.15,0.56
							c-0.02,0.16,0.03,0.29,0.02,0.42c-0.02,0.18-0.15,0.35-0.15,0.53c0.01,0.18,0.13,0.28,0.15,0.42c0.12,0.58-0.18,0.82-0.4,1.17
							c0.04,0.21,0.29,0.2,0.37,0.36c-0.02,0.18-0.12,0.3-0.15,0.48c-0.37-0.4-0.46-1-0.55-1.54c-0.1-0.62-0.11-1.31-0.1-1.96
							c0.02-1.23,0.21-2.51,0.23-3.72c0.03-2.65,0.4-4.95,0.96-7.05c0.19,0.93,0.72,1.67,0.84,2.55c0.04,0.31-0.09,0.57-0.05,0.87
							c0.04,0.3,0.26,0.58,0.31,0.87C283.19,265.82,282.48,266.9,282.39,268.06z M298.95,276.03c-0.03-0.27,0-0.54-0.03-0.78
							c-0.03-0.31-0.17-0.6-0.2-0.87c-0.03-0.28,0.02-0.56-0.03-0.84c-0.2-1.14-0.38-2.29-0.51-3.47c-0.13-1.18-0.2-2.39-0.41-3.58
							c-0.19-1.11-0.59-2.14-0.75-3.22c-0.28-1.83-0.28-3.87-0.2-5.6c0.21-0.18,0.67-0.21,0.73-0.48c0.05-0.26-0.3-0.91-0.34-1.12
							c-0.21-1.01-0.11-2.1-0.46-2.94c-0.1-0.23-0.33-0.45-0.52-0.67c-0.19-0.22-0.4-0.51-0.6-0.62c-0.59-0.31-1.33-0.48-1.96-0.67
							c-0.67-0.21-1.29-0.45-1.71-0.92c-0.17-0.19-0.23-0.47-0.46-0.56c-0.08-0.31-0.15-0.44-0.33-0.64
							c-0.02-0.52,0.01-0.98-0.03-1.51c0.87-0.17,1.08-0.34,1.28-1.15c0.12-0.49,0.34-0.96,0.36-1.54c0.01-0.41,0.06-0.8,0.04-1.09
							c-0.03-0.77-0.7-1.2-0.75-1.73c-0.02-0.26,0.12-0.52,0.08-0.73c-0.02-0.12-0.15-0.2-0.26-0.36c-0.09-0.13-0.17-0.3-0.24-0.42
							c-0.25-0.43-0.54-0.77-0.37-1.2c-0.13-0.27-0.29-0.51-0.41-0.78c-0.27-0.02-0.49-0.37-0.82-0.48
							c-0.17-0.06-0.38-0.04-0.56-0.11c-0.2-0.08-0.36-0.2-0.53-0.22c-0.4-0.05-0.8,0.03-1.13,0.08c-0.23,0.04-0.44,0.15-0.68,0.2
							c-0.13,0.02-0.26,0-0.39,0.03c-0.39,0.09-0.77,0.33-1.08,0.56c-0.3,0.22-0.76,0.47-0.91,0.75c-0.24,0.43-0.43,1.13-0.46,1.68
							c-0.01,0.16,0,0.39,0.02,0.59c0.15,1.15,0.6,2.55,1.06,3.33c0.29,0.5,0.83,0.79,1.04,1.37c0.06,0.17,0.07,0.37,0.16,0.56
							c0.02,0.11,0.16,0.08,0.2,0.17c0.05,0.56-0.1,0.93-0.29,1.26c-0.23-0.03-0.45,0.11-0.42,0.42c-0.14-0.08-0.25-0.09-0.42-0.06
							c-0.17,0.11-0.04,0.31-0.15,0.42c-0.14,0.14-0.38,0.08-0.71,0.08c-0.32,0.29-0.59,0.42-0.94,0.64
							c-0.18,0.11-0.32,0.26-0.49,0.31c-0.54,0.15-1.22,0.28-1.72,0.42c-0.19,0.06-0.42,0.05-0.6,0.11
							c-0.37,0.13-0.64,0.53-0.88,0.87c-0.23,0.32-0.5,0.59-0.63,0.92c-0.3,0.78-0.5,1.78-0.73,2.71c-0.08,0.33-0.24,0.72-0.24,0.92
							c0,0.11,0.08,0.23,0.09,0.34c0.06,0.64-0.07,1.41-0.14,2.13c-0.22,2.14-0.21,4.36-0.43,6.43c-0.24,2.19,0.11,4.55,0.43,6.57
							c0.12,0.77,0.05,1.52,0.14,2.27c0.02,0.23,0.17,0.45,0.19,0.7c0.07,0.83-0.4,1.59-0.38,2.52c0,0.15,0.05,0.32,0.07,0.5
							c0.04,0.38-0.04,0.85,0.1,1.15c0.05,0.12,0.24,0.21,0.34,0.34c0.16,0.22,0.3,0.5,0.49,0.73c0.08,0.1,0.21,0.18,0.31,0.28
							c0.11,0.11,0.2,0.26,0.29,0.34c0.18,0.17,0.49,0.28,0.54,0.45c0.08,0.27-0.08,0.64-0.08,0.92c0,0.17,0.04,0.33,0.05,0.5
							c0.02,1.51-0.38,3.18-0.16,4.73c0.04,0.25,0.15,0.54,0.11,0.81c-0.08,0.49-0.68,0.84-0.53,1.48
							c-0.32,0.59-0.49,0.91-0.51,1.74c-0.02,0.5,0,0.87-0.03,1.43c-0.03,0.5-0.19,1.07-0.3,1.62c-0.22,1.1-0.22,2.29-0.4,3.44
							c-0.34,2.23-0.77,4.49-0.97,6.74c-0.05,0.62,0,1.26-0.1,1.85c-0.03,0.18-0.17,0.41-0.14,0.59c0.05,0.36,0.43,0.48,0.58,0.78
							c-0.11,0.3-0.19,0.62-0.27,0.95c-0.61,0.83-1.4,1.63-1.47,2.91c0.88,0.07,2.35,0.31,3.48,0.22c0.29-0.02,0.94-0.11,1.01-0.39
							c0.05-0.21-0.17-0.41-0.13-0.62c0.63-0.11,1.75-0.03,1.91-0.53c0.16-0.49-0.36-1.26-0.31-1.71c0.04-0.32,0.34-0.34,0.42-0.59
							c0.09-0.3-0.05-0.69-0.04-1.09c0.01-0.36,0.08-0.77,0.13-1.12c0.08-0.62,0.3-1.22,0.4-1.85c0.11-0.68,0.11-1.37,0.17-2.1
							c0.03-0.3,0.13-0.63,0.19-0.95c0.26-1.62,0.67-3.11,0.99-4.7c0.13-0.64,0.17-1.35,0.37-1.93c0.11-0.32,0.34-0.6,0.46-0.9
							c0.3-0.68,0.55-1.28,0.7-2.01c0.08-0.37,0.23-0.73,0.29-1.09c0.17-0.98,0.02-1.96,0.23-2.91c0.07-0.34,0.21-0.65,0.27-1.01
							c0.05-0.38,0.03-0.79,0.09-1.18c0.03-0.2,0.14-0.41,0.2-0.61c0.06-0.22,0.08-0.48,0.14-0.7c0.07-0.24,0.22-0.48,0.3-0.73
							c0.27-0.8,0.51-1.56,0.91-2.18c0.27,1.28-0.27,2.56-0.07,4c0.03,0.24,0.14,0.46,0.16,0.7c0.11,1.02-0.07,2.22-0.08,3.13
							c0,0.34,0.06,0.69,0.06,1.03c0.01,0.41-0.05,0.83-0.06,1.26c-0.01,0.44,0.04,0.91-0.01,1.31c-0.05,0.45-0.21,0.89-0.26,1.34
							c-0.1,0.99-0.17,2-0.2,2.99c-0.01,0.54,0.05,1.09,0,1.62c-0.05,0.62-0.29,1.23-0.4,1.88c-0.27,1.62-0.4,3.43-0.5,5.18
							c-0.02,0.37,0,0.77-0.04,1.12c-0.01,0.11-0.1,0.25-0.1,0.36c0.01,0.16,0.12,0.14,0.09,0.28c-0.06,0.22-0.1,0.6-0.02,0.87
							c-0.1,0.21-0.13,0.48-0.19,0.75c-0.06,0.28-0.2,0.61-0.14,0.84c0.09,0.29,0.66,0.43,0.98,0.48c0.46,0.06,0.91,0.05,1.28,0.17
							c-0.28,0.72,0.27,0.88,0.78,1.04c1.04,0.31,2.73,0.12,3.58-0.06c0.09-0.37-0.1-0.67-0.17-0.9c-0.04-0.12-0.02-0.23-0.07-0.34
							c-0.32-0.83-1.3-1.19-1.4-2.24c0.14-0.06,0.37-0.03,0.52-0.08c0.07-0.66-0.19-1.39-0.16-2.1c0.02-0.41,0.17-0.86,0.26-1.29
							c0.08-0.43,0.22-0.86,0.28-1.29c0.14-0.95,0.18-1.86,0.22-2.91c0.04-0.85,0.15-1.83,0.23-2.8c0.08-0.96,0.13-1.96,0.34-2.71
							c0.14-0.5,0.47-1.08,0.71-1.62c0.25-0.54,0.64-1.18,0.71-1.68c0.17-1.24,0.19-2.52,0.28-3.78c0.09-1.23,0.19-2.47,0.33-3.72
							c0.07-0.59,0.1-1.21,0.24-1.79c0.13-0.56,0.25-1.13,0.32-1.71c0.24-1.92,0.69-4.04,0.38-6.32c-0.04-0.27-0.14-0.57-0.14-0.84
							c0-0.11,0.07-0.16,0.07-0.25c0.01-0.13-0.13-0.22-0.07-0.39c0.13,0.82,0.9,1.52,0.7,2.52c-0.04,0.19-0.16,0.33-0.2,0.5
							c-0.07,0.27-0.12,0.58-0.08,0.89c0.03,0.22,0.18,0.43,0.22,0.64c0.1,0.61-0.32,1.63,0.24,1.96c0.1,0.06,0.3,0.05,0.42,0.06
							c-0.1,0.44-0.81,0.4-0.65,1.01c-0.38-0.01-0.57,0.57-0.3,0.87c0.35,0.03,0.4-0.2,0.74-0.11c0.31-0.21,0.6-0.51,0.88-0.73
							c0.12-0.09,0.25-0.12,0.32-0.22c0.23-0.32,0.21-0.8,0.34-1.29c0.05-0.2,0.26-0.41,0.28-0.62
							C299.31,277.23,299.02,276.62,298.95,276.03z"/>
						<path class="st1" d="M283.38,241.1c-0.09-0.74,0.2-0.82,0.2-0.82s-0.3-2.14,1.94-3.22c2.25-1.08,4.16-1.11,5.6,0.06
							c0.97,0.78,1.16,2.29,1.16,2.29s1.5,0.23,1.51,0.66c0.01,0.44-0.96,0.76-1.29,0.87c-0.33,0.11-3.19,1-7.08,1.15
							C285.42,242.09,283.62,241.95,283.38,241.1"/>
						<path class="st1" d="M283.21,241.32c-0.13-0.74,0.21-0.99,0.21-0.99s-0.14-2.18,2.1-3.26c2.25-1.08,4.16-1.11,5.6,0.06
							c0.97,0.78,1.16,2.29,1.16,2.29s1.5,0.23,1.51,0.66c0.01,0.44-0.96,0.76-1.29,0.87c-0.33,0.11-3.19,1-7.08,1.15
							C285.42,242.09,283.44,242.16,283.21,241.32z"/>
					</g>
				</g>
			</g>
			<g>
				<g>
					<g>
						<path class="st1" d="M305.75,287.66l-0.69-2.11c-0.5-1.15-1.09-1.92-1.35-3.05c-0.38-1.65-0.79-3.09-0.91-4.9
							c-0.79-0.36-0.73-1.12-0.91-2.25c-0.12-0.74-0.51-1.44-0.49-1.99c0.01-0.4,0.23-0.74,0.21-1.13c-0.02-0.3-0.26-0.61-0.28-0.93
							c-0.06-0.98,0.97-1.84,1.26-2.85c0.25-0.86,0.06-1.79,0.14-2.85c0.07-0.97,0.37-1.85,0.42-2.78c0.17-3.04-0.21-6.17,0.77-8.55
							c0.5-1.21,0.85-2.49,1.47-3.25c0.69-0.83,2.31-1.62,1.68-3.31c-1.01-0.01-1.51-0.11-2-0.61c0.15-0.99-0.31-1.68-0.11-2.5
							c-0.06-0.25-0.53-0.11-0.56-0.4c0.06-0.46,0.62-1,0.91-1.46c-0.58-0.22,0.04-0.26-0.42-0.8c0.19-0.68,0.6-1.16,0.91-1.72
							c-1.75-0.74,0.02-1.56,1.47-1.99c0.46-0.13,0.84-0.39,1.19-0.46c0.48-0.1,1.18-0.07,1.54-0.07c0.05,0,0.13-0.14,0.21-0.13
							c0.75,0.08,1.54,0.97,2.1,0.66c0.66,0.78,1.57,1.31,1.75,2.58c0.16,1.1-0.87,2.03-0.78,3.32c-0.46,0.41-0.14,1.72-0.28,2.64
							c-0.32,0.21-0.33,0.1-0.77,0.33c0.43,0.68,0.4,1.92,1.47,1.79c0.51,0.75,1.57,1.13,2.17,1.86c0.82,0.98,1.82,3.04,1.68,4.9
							c-0.06,0.81-0.45,1.63-0.49,2.52c-0.03,0.69,0.2,1.33,0.14,1.99c-0.05,0.52-0.22,1.03-0.35,1.52
							c-0.12,0.47-0.44,0.95-0.49,1.39c-0.06,0.53,0.23,1.11,0.21,1.66c-0.05,1.26-0.77,2.64-1.05,4.11
							c-0.49,2.56-0.1,5.54-0.42,8.08c-0.19,1.49,0.29,7.15,0.34,9l0.5,8.95c0.27,2.56,0.2,5.93,0.07,8.61
							c-0.03,0.7,0.17,1.5-0.35,1.79c0.14,0.76,0.36,2.65,0.28,3.4c-1.12,0.57-2.96,0.12-4.14-0.07c-0.14,0.51,0.07,0.19,0,0.84
							c-0.53,0.22-1.34,0.43-2.17,0.4c-0.27-0.01-0.6-0.15-0.84-0.13c-0.36,0.03-0.75,0.35-1.12,0.46c-1.09,0.34-2.62,0.42-4,0.33
							c-1.32-0.08-2.67-0.16-3.51-0.99c0.66-1.65,3.69-1.07,4.42-2.65c0.09-0.35-0.38-0.18-0.28-0.53c0.26-0.39,0.32-0.98,0.98-0.99
							c0.28-1.37,0.95-3.07,1.02-4.33c0,0-0.38-3.44-0.38-5.63C305.96,293.2,306.21,289.57,305.75,287.66z"/>
						<path class="st1" d="M307.42,296.48"/>
						<path class="st1" d="M313.18,241.71"/>
					</g>
					<g>
						<defs>
							<path id="SVGID_3_" d="M310.22,237.57c0.74,0.08,1.54,0.97,2.1,0.66c0.65,0.78,1.57,1.31,1.75,2.58
								c0.16,1.1-0.4,2.08-0.77,3.32c-0.26,0.85-0.12,1.16-0.22,2.08c-0.06,0.56-0.39,0.66-0.83,0.89c0.43,0.67,0.4,1.92,1.47,1.79
								c0.51,0.75,1.57,1.13,2.17,1.85c0.82,0.98,1.82,3.04,1.68,4.9c-0.06,0.81-0.45,1.63-0.49,2.52c-0.03,0.69,0.2,1.33,0.14,1.99
								c-0.05,0.52-0.22,1.03-0.35,1.52c-0.12,0.47-0.44,0.95-0.49,1.39c-0.06,0.53,0.23,1.11,0.21,1.66
								c-0.05,1.26-0.77,2.64-1.05,4.11c-0.49,2.56-0.1,5.53-0.42,8.08c-0.19,1.49,0.29,7.15,0.34,9l0.5,8.95
								c0.27,2.56,0.2,5.93,0.07,8.61c-0.03,0.7,0.17,1.5-0.35,1.79c0.14,0.77,0.36,2.66,0.28,3.4c-1.12,0.57-2.96,0.12-4.14-0.07
								c-0.14,0.5,0.07,0.19,0,0.84c-0.54,0.22-1.34,0.43-2.17,0.4c-0.26-0.01-0.6-0.15-0.84-0.13c-0.36,0.03-0.74,0.35-1.12,0.47
								c-1.09,0.34-2.62,0.42-4,0.33c-1.32-0.08-2.67-0.16-3.51-0.99c0.66-1.65,3.69-1.07,4.42-2.65c0.09-0.35-0.38-0.18-0.28-0.53
								c0.26-0.39,0.32-0.97,0.98-0.99c0.28-1.37,1.12-2.21,1.61-3.38c-0.27-0.76,0.18-1.62,0.56-2.45
								c0.25-0.56,0.85-1.27,0.84-1.72c-0.02-0.48-0.71-0.87-0.91-1.32c-0.23-0.5-0.11-0.84-0.35-1.39c-1.42-0.23,0-2.29-0.82-3.1
								c-0.56-0.55,0.03-2.88-0.5-4.32l-0.69-2.11c-0.5-1.15-1.09-1.92-1.35-3.05c-0.38-1.65-0.79-3.09-0.91-4.9
								c-0.79-0.36-0.73-1.12-0.91-2.25c-0.12-0.74-0.51-1.44-0.49-1.99c0.01-0.4,0.23-0.74,0.21-1.13
								c-0.02-0.3-0.26-0.61-0.28-0.93c-0.06-0.98,0.97-1.84,1.26-2.85c0.25-0.86,0.06-1.79,0.14-2.85
								c0.07-0.97,0.37-1.85,0.42-2.78c0.17-3.04-0.21-6.17,0.77-8.55c0.5-1.21,0.85-2.49,1.47-3.25c0.69-0.83,2.31-1.62,1.68-3.31
								c-1.01-0.01-1.51-0.11-2-0.61c0.15-0.99-0.31-1.68-0.11-2.5c-0.06-0.25-0.53-0.11-0.56-0.4c0.06-0.46,0.62-1,0.91-1.46
								c-0.59-0.21,0.04-0.26-0.42-0.8c0.19-0.68,0.6-1.16,0.91-1.72c-1.75-0.74,0.02-1.56,1.47-1.99c0.46-0.13,0.84-0.39,1.19-0.47
								c0.48-0.1,1.18-0.07,1.54-0.07C310.06,237.71,310.14,237.57,310.22,237.57C310.22,237.57,310.22,237.57,310.22,237.57"/>
						</defs>
						<use xlink:href="#SVGID_3_"  style="overflow:visible;fill:#FFFFFF;"/>
						<clipPath id="SVGID_4_">
							<use xlink:href="#SVGID_3_"  style="overflow:visible;"/>
						</clipPath>
						<path class="st3" d="M313.08,248.54c0,0-2.26,1.66-5.85,0.95c-2.72-0.54-5.23,1.04-5.23,1.04l-0.62,9.09l-1.23,12.66
							c0,0,1.63-0.06,2.89,0.49c1.26,0.55,3.26,0.55,3.26,0.55s0.4-4.65,0.66-6.57c0.26-1.92,0.49-3.66,0.55-5.72
							c0.09-3.25-0.44-7.18-0.18-8.38c0.37-1.71,3.93-1.58,4.51,0.12c0.62,1.79,0.92,3.2,0.92,8.45c0,5.25-2.2,12.17-2.2,12.17
							l5.2-0.66l2.65-19.66l-2.65-4.53H313.08z"/>
						
							<use xlink:href="#SVGID_3_"  style="overflow:visible;fill:none;stroke:#FFFFFF;stroke-width:15;stroke-linecap:round;stroke-linejoin:round;stroke-miterlimit:10;"/>
					</g>
				</g>
				<path class="st1" d="M312.77,241.6c1.67-0.13,2.11-0.38,2.11-1.32c0-0.5-0.5-0.83-0.5-0.83s0.13-3.07-2.52-3.9
					c-2.65-0.83-4.91-0.11-6.31,1.35c-0.95,0.98-0.91,2.61-0.91,2.61s-1.61,0.23-1.56,0.93c0.03,0.47,1.18,0.67,1.56,0.74
					C304.63,241.18,307.94,241.98,312.77,241.6z"/>
			</g>
			<g>
				<g>
					<path class="st1" d="M194.07,309.79c0,0-23.44,0-23.44,23.44v6.29c0,0,0,23.44,23.44,23.44h446.9c0,0,23.44,0,23.44-23.44
						v-6.29c0,0,0-23.44-23.44-23.44H194.07z"/>
					<path class="st4" d="M194.07,309.79c0,0-23.44,0-23.44,23.44v6.29c0,0,0,23.44,23.44,23.44h446.9c0,0,23.44,0,23.44-23.44
						v-6.29c0,0,0-23.44-23.44-23.44H194.07z"/>
				</g>
			</g>
			<path class="st1" d="M219.61,266.61h-14.89v-4.57c0-2.13-0.19-3.49-0.57-4.07s-1.02-0.88-1.9-0.88c-0.96,0-1.69,0.39-2.19,1.18
				c-0.5,0.79-0.74,1.98-0.74,3.58c0,2.06,0.28,3.61,0.83,4.65c0.53,1.04,2.04,2.3,4.53,3.77c7.14,4.24,11.63,7.71,13.48,10.43
				c1.85,2.72,2.78,7.1,2.78,13.14c0,4.39-0.51,7.63-1.54,9.71s-3.02,3.83-5.96,5.24c-2.95,1.41-6.83,1.66-10.74,1.66
				c-4.29,0-7.5-0.36-10.53-1.98c-3.03-1.63-5.02-3.69-5.96-6.21c-0.94-2.51-1.41-6.08-1.41-10.7v-4.04h14.89v7.5
				c0,2.31,0.21,3.8,0.63,4.46c0.42,0.66,1.16,0.99,2.23,0.99s1.86-0.42,2.38-1.26c0.52-0.84,0.78-2.08,0.78-3.73
				c0-3.63-0.5-6-1.49-7.12c-1.02-1.12-3.52-2.98-7.5-5.6c-3.99-2.64-6.63-4.56-7.92-5.75s-2.37-2.84-3.22-4.95
				c-0.85-2.11-1.28-4.8-1.28-8.07c0-4.72,0.6-8.18,1.81-10.36c1.21-2.18,3.15-3.89,5.85-5.12c2.69-1.23,5.94-1.85,9.75-1.85
				c4.16,0,7.71,0.67,10.64,2.02s4.87,3.04,5.83,5.08c0.95,2.04,1.43,5.52,1.43,10.42V266.61z"/>
			<path class="st1" d="M255.52,259.07l-6.25,20.13l8.11,30.41h-14.79l-4.8-22.02l-0.02,22.02h-15.38v-61.65h15.38l0.02,25.88
				l4.8-14.76H255.52z"/>
			<path class="st1" d="M273.95,247.95v8.04h-15.84v-8.04H273.95z M273.95,259.07v50.53h-15.84v-50.53H273.95z"/>
			<path class="st1" d="M350.58,275.22h-13.63v-2.74c0-2.34-0.13-3.81-0.4-4.44c-0.27-0.62-0.93-0.93-2-0.93
				c-0.86,0-1.51,0.28-1.94,0.86c-0.43,0.57-0.65,1.43-0.65,2.57c0,1.55,0.11,2.68,0.32,3.41c0.22,0.72,0.86,1.52,1.94,2.38
				c1.08,0.86,3.29,2.12,6.65,3.77c4.47,2.18,7.4,4.24,8.8,6.17c1.4,1.93,2.09,4.73,2.09,8.42c0,4.11-0.53,7.22-1.6,9.31
				c-1.07,2.09-2.85,3.71-5.35,4.84c-2.5,1.13-5.52,1.7-9.04,1.7c-3.91,0-7.25-0.61-10.03-1.83c-2.78-1.22-4.69-2.87-5.73-4.95
				c-1.04-2.08-1.56-5.23-1.56-9.44v-2.44h13.63v3.2c0,2.72,0.17,4.48,0.51,5.29c0.34,0.81,1.02,1.22,2.04,1.22
				c1.09,0,1.85-0.27,2.28-0.82c0.43-0.55,0.65-1.69,0.65-3.45c0-2.41-0.28-3.92-0.84-4.53c-0.58-0.61-3.57-2.41-8.95-5.41
				c-4.52-2.54-7.27-4.84-8.26-6.91c-0.99-2.07-1.49-4.52-1.49-7.37c0-4.04,0.53-7.01,1.6-8.93c1.07-1.92,2.88-3.4,5.43-4.44
				s5.51-1.56,8.89-1.56c3.35,0,6.2,0.42,8.55,1.27c2.35,0.85,4.15,1.97,5.41,3.37c1.26,1.4,2.02,2.69,2.28,3.88
				c0.27,1.19,0.4,3.06,0.4,5.6V275.22z"/>
			<path class="st1" d="M394.67,247.95l9.17,61.65h-16.38l-0.86-11.08h-5.73l-0.96,11.08h-16.58l8.18-61.65H394.67z M386.17,287.59
				c-0.81-6.98-1.63-15.61-2.44-25.9c-1.63,11.81-2.66,20.44-3.08,25.9H386.17z"/>
			<path class="st1" d="M438.55,278.15h-14.51v-5.83c0-2.03-0.17-3.41-0.5-4.13c-0.33-0.72-0.94-1.08-1.83-1.08
				c-0.89,0-1.49,0.32-1.79,0.95c-0.3,0.64-0.46,2.06-0.46,4.27v23.84c0,1.8,0.23,3.15,0.69,4.05c0.46,0.9,1.13,1.35,2.02,1.35
				c1.04,0,1.75-0.47,2.11-1.41c0.37-0.94,0.55-2.72,0.55-5.33v-6.02h13.71c-0.03,4.04-0.17,7.06-0.44,9.08
				c-0.27,2.02-1.12,4.09-2.55,6.21c-1.43,2.12-3.31,3.72-5.62,4.8c-2.31,1.08-5.17,1.62-8.57,1.62c-4.34,0-7.78-0.74-10.32-2.23
				c-2.54-1.49-4.34-3.57-5.39-6.25c-1.05-2.68-1.58-6.48-1.58-11.4v-14.36c0-4.29,0.43-7.53,1.29-9.71
				c0.86-2.18,2.7-4.13,5.52-5.85c2.82-1.71,6.25-2.57,10.28-2.57c4.01,0,7.44,0.85,10.28,2.55c2.84,1.7,4.73,3.85,5.67,6.44
				C438.08,269.73,438.55,273.4,438.55,278.15z"/>
			<path class="st1" d="M456.86,278.64h-14.43v-3.39c0-3.91,0.45-6.92,1.35-9.04c0.9-2.12,2.71-3.99,5.43-5.62
				c2.72-1.63,6.25-2.44,10.59-2.44c5.2,0,9.13,0.92,11.77,2.76c2.64,1.84,4.23,4.1,4.76,6.78c0.53,2.68,0.8,8.2,0.8,16.55v25.36
				h-14.97v-4.5c-0.94,1.81-2.15,3.16-3.64,4.06c-1.48,0.9-3.26,1.35-5.31,1.35c-2.69,0-5.16-0.76-7.41-2.27
				c-2.25-1.51-3.37-4.82-3.37-9.92v-4.15c0-3.78,0.6-6.36,1.79-7.73c1.19-1.37,4.15-2.97,8.87-4.8c5.05-1.98,7.75-3.31,8.11-4
				c0.35-0.69,0.53-2.08,0.53-4.19c0-2.64-0.2-4.36-0.59-5.16c-0.39-0.8-1.05-1.2-1.96-1.2c-1.04,0-1.69,0.34-1.94,1.01
				c-0.25,0.67-0.38,2.42-0.38,5.24V278.64z M461.74,285.57c-2.46,1.8-3.89,3.31-4.28,4.53c-0.39,1.22-0.59,2.97-0.59,5.26
				c0,2.62,0.17,4.3,0.51,5.06c0.34,0.76,1.02,1.14,2.04,1.14c0.96,0,1.59-0.3,1.89-0.9c0.29-0.6,0.44-2.16,0.44-4.7V285.57z"/>
			<path class="st1" d="M515.85,247.93v61.68h-15.38v-3.66c-1.47,1.53-3.02,2.67-4.65,3.43c-1.63,0.76-3.33,1.15-5.1,1.15
				c-2.39,0-4.46-0.63-6.21-1.89c-1.75-1.26-2.88-2.71-3.37-4.36c-0.5-1.65-0.74-4.34-0.74-8.07v-23.65c0-3.88,0.25-6.64,0.74-8.26
				c0.49-1.63,1.63-3.05,3.41-4.28c1.78-1.23,3.9-1.85,6.36-1.85c1.9,0,3.65,0.34,5.24,1.03c1.59,0.69,3.03,1.72,4.32,3.09v-14.49
				L515.85,247.93z M500.47,271.79c0-1.85-0.16-3.1-0.48-3.73c-0.32-0.64-0.95-0.95-1.88-0.95c-0.91,0-1.53,0.28-1.85,0.86
				c-0.32,0.57-0.48,1.85-0.48,3.83v24.75c0,2.06,0.15,3.41,0.46,4.05c0.3,0.65,0.89,0.97,1.75,0.97c0.99,0,1.65-0.36,1.98-1.09
				c0.33-0.72,0.5-2.49,0.5-5.31V271.79z"/>
			<path class="st1" d="M554.66,285.23h-19.92v10.93c0,2.28,0.16,3.76,0.5,4.42c0.33,0.66,0.96,0.99,1.9,0.99
				c1.17,0,1.95-0.44,2.34-1.31c0.39-0.88,0.59-2.57,0.59-5.08v-6.66h14.59v3.73c0,3.12-0.2,5.52-0.59,7.2
				c-0.39,1.68-1.31,3.47-2.76,5.37s-3.28,3.33-5.5,4.28c-2.22,0.95-5.01,1.43-8.36,1.43c-3.25,0-6.12-0.47-8.61-1.41
				c-2.49-0.94-4.42-2.23-5.81-3.87c-1.38-1.64-2.34-3.44-2.87-5.41c-0.53-1.97-0.8-4.83-0.8-8.59v-14.74c0-4.42,0.6-7.9,1.79-10.45
				c1.19-2.55,3.15-4.51,5.86-5.86c2.72-1.36,5.84-2.04,9.37-2.04c4.32,0,7.88,0.82,10.68,2.46c2.8,1.64,4.77,3.81,5.9,6.51
				c1.13,2.7,1.7,6.51,1.7,11.41V285.23z M539.24,277.01v-3.69c0-2.62-0.14-4.3-0.42-5.06c-0.28-0.76-0.85-1.14-1.71-1.14
				c-1.07,0-1.73,0.32-1.98,0.97c-0.25,0.65-0.38,2.39-0.38,5.24v3.69H539.24z"/>
			<path class="st1" d="M573.32,259.07l-0.27,4.81c1.19-1.91,2.61-3.34,4.27-4.29c1.65-0.95,3.53-1.43,5.64-1.43
				c4.11,0,7.35,1.91,9.71,5.72c1.29-1.91,2.75-3.34,4.38-4.29c1.62-0.95,3.43-1.43,5.41-1.43c2.61,0,4.78,0.64,6.49,1.9
				c1.72,1.27,2.81,2.82,3.29,4.66c0.48,1.84,0.72,4.83,0.72,8.97v35.91h-14.93v-32.94c0-4.32-0.15-6.99-0.44-8.02
				c-0.29-1.03-0.97-1.54-2.04-1.54c-1.09,0-1.8,0.51-2.11,1.52c-0.32,1.02-0.48,3.69-0.48,8.04v32.94h-14.93v-32.1
				c0-4.95-0.12-7.92-0.36-8.91c-0.24-0.99-0.91-1.49-2-1.49c-0.69,0-1.27,0.26-1.75,0.78c-0.48,0.52-0.75,1.16-0.8,1.9
				c-0.05,0.75-0.08,2.34-0.08,4.78v35.03h-14.93v-50.53H573.32z"/>
			<path class="st1" d="M650.05,259.07l-4.4,36.8c-0.7,5.82-1.28,9.8-1.75,11.92c-0.47,2.12-1.25,3.87-2.34,5.25
				c-1.09,1.38-2.61,2.39-4.55,3.05s-5.04,0.98-9.31,0.98h-9.33v-8.13c2.39,0,3.93-0.12,4.62-0.36c0.69-0.24,1.03-0.79,1.03-1.63
				c0-0.41-0.32-2.18-0.95-5.33l-8.42-42.55h13.97l5.06,34.35l2.46-34.35H650.05z"/>
			<rect x="375.87" y="255.75" class="st1" width="15.82" height="54.04"/>
			<g>
				<path class="st1" d="M315.71,247.78v61.65h-15.84v-61.65H315.71z"/>
			</g>
		</g>
	</g>
</g>
<g id="Logo">
	<g>
		<g>
			<g>
				<path d="M297.8,278.39c0.07,0.05,0.03,0.22-0.02,0.25C297.72,278.59,297.82,278.48,297.8,278.39 M297.58,278.53
					c-0.04,0.09-0.09,0.07-0.19,0.06c0.02-0.09,0.02-0.05-0.01-0.14C297.5,278.42,297.54,278.48,297.58,278.53 M283.02,264.79
					c0.17,1.03-0.54,2.11-0.63,3.27c-0.05,0.64-0.09,1.27-0.3,1.76c-0.13,0.32-0.31,0.56-0.4,1.01c-0.04,0.19-0.13,0.4-0.15,0.56
					c-0.02,0.16,0.03,0.29,0.02,0.42c-0.02,0.18-0.15,0.35-0.15,0.53c0.01,0.18,0.13,0.28,0.15,0.42c0.12,0.58-0.18,0.82-0.4,1.17
					c0.04,0.21,0.29,0.2,0.37,0.36c-0.02,0.18-0.12,0.3-0.15,0.48c-0.37-0.4-0.46-1-0.55-1.54c-0.1-0.62-0.11-1.31-0.1-1.96
					c0.02-1.23,0.21-2.51,0.23-3.72c0.03-2.65,0.4-4.95,0.96-7.05c0.19,0.93,0.72,1.67,0.84,2.55c0.04,0.31-0.09,0.57-0.05,0.87
					C282.75,264.22,282.97,264.5,283.02,264.79 M299.26,277.68c0.05-0.46-0.25-1.06-0.31-1.65c-0.03-0.27,0-0.54-0.03-0.78
					c-0.03-0.31-0.17-0.6-0.2-0.87c-0.03-0.28,0.02-0.56-0.03-0.84c-0.2-1.14-0.38-2.29-0.51-3.47c-0.13-1.18-0.2-2.39-0.41-3.58
					c-0.19-1.11-0.59-2.14-0.75-3.22c-0.28-1.83-0.28-3.87-0.2-5.6c0.21-0.18,0.67-0.21,0.73-0.48c0.05-0.26-0.3-0.91-0.34-1.12
					c-0.21-1.01-0.11-2.1-0.46-2.94c-0.1-0.23-0.33-0.45-0.52-0.67c-0.18-0.22-0.4-0.51-0.6-0.62c-0.59-0.31-1.33-0.48-1.96-0.67
					c-0.67-0.21-1.29-0.45-1.71-0.92c-0.17-0.19-0.23-0.47-0.46-0.56c-0.08-0.31-0.15-0.44-0.33-0.64
					c-0.02-0.52,0.01-0.98-0.03-1.51c0.87-0.17,1.08-0.34,1.28-1.15c0.12-0.49,0.34-0.96,0.36-1.54c0.01-0.41,0.06-0.8,0.04-1.09
					c-0.03-0.77-0.7-1.2-0.75-1.73c-0.02-0.26,0.12-0.52,0.08-0.73c-0.02-0.12-0.15-0.2-0.26-0.36c-0.09-0.13-0.17-0.3-0.24-0.42
					c-0.25-0.43-0.54-0.77-0.37-1.2c-0.13-0.27-0.29-0.51-0.41-0.78c-0.27-0.02-0.49-0.37-0.82-0.48c-0.17-0.06-0.38-0.04-0.55-0.11
					c-0.2-0.08-0.36-0.2-0.53-0.22c-0.4-0.05-0.8,0.03-1.13,0.08c-0.23,0.04-0.44,0.15-0.68,0.2c-0.13,0.02-0.26,0-0.39,0.03
					c-0.39,0.09-0.77,0.33-1.08,0.56c-0.3,0.22-0.76,0.47-0.91,0.75c-0.24,0.43-0.43,1.13-0.46,1.68c-0.01,0.16,0,0.39,0.02,0.59
					c0.15,1.15,0.6,2.55,1.06,3.33c0.29,0.5,0.83,0.79,1.04,1.37c0.06,0.17,0.07,0.37,0.16,0.56c0.02,0.11,0.16,0.08,0.2,0.17
					c0.05,0.56-0.1,0.93-0.29,1.26c-0.23-0.03-0.45,0.11-0.42,0.42c-0.14-0.08-0.25-0.09-0.42-0.06c-0.17,0.11-0.04,0.31-0.15,0.42
					c-0.14,0.14-0.38,0.08-0.71,0.08c-0.32,0.29-0.59,0.42-0.94,0.64c-0.18,0.11-0.32,0.26-0.49,0.31
					c-0.54,0.15-1.22,0.28-1.72,0.42c-0.19,0.06-0.42,0.05-0.6,0.11c-0.37,0.13-0.64,0.53-0.88,0.87c-0.23,0.32-0.5,0.59-0.63,0.92
					c-0.31,0.78-0.51,1.78-0.73,2.71c-0.08,0.33-0.24,0.72-0.24,0.92c0,0.11,0.08,0.23,0.09,0.34c0.06,0.64-0.07,1.41-0.14,2.13
					c-0.22,2.14-0.21,4.36-0.43,6.43c-0.24,2.19,0.11,4.55,0.43,6.57c0.12,0.77,0.05,1.52,0.14,2.27c0.02,0.23,0.17,0.46,0.19,0.7
					c0.07,0.83-0.4,1.59-0.38,2.52c0,0.15,0.05,0.32,0.07,0.5c0.04,0.38-0.04,0.85,0.1,1.15c0.05,0.12,0.24,0.21,0.34,0.34
					c0.16,0.22,0.3,0.5,0.49,0.73c0.08,0.1,0.21,0.18,0.31,0.28c0.11,0.11,0.2,0.26,0.29,0.34c0.18,0.17,0.49,0.28,0.54,0.45
					c0.08,0.27-0.08,0.64-0.08,0.92c0,0.17,0.04,0.33,0.05,0.5c0.02,1.51-0.38,3.18-0.16,4.73c0.04,0.25,0.15,0.54,0.11,0.81
					c-0.08,0.49-0.68,0.84-0.53,1.48c-0.32,0.59-0.49,0.91-0.51,1.74c-0.02,0.5,0,0.87-0.03,1.43c-0.03,0.5-0.19,1.07-0.3,1.62
					c-0.22,1.1-0.22,2.29-0.4,3.44c-0.34,2.23-0.77,4.49-0.97,6.74c-0.05,0.62,0,1.26-0.1,1.85c-0.03,0.18-0.17,0.41-0.14,0.59
					c0.05,0.36,0.43,0.48,0.58,0.78c-0.11,0.3-0.19,0.62-0.27,0.95c-0.61,0.83-1.4,1.63-1.47,2.91c0.88,0.07,2.35,0.31,3.48,0.22
					c0.29-0.02,0.94-0.11,1.01-0.39c0.05-0.21-0.17-0.41-0.13-0.62c0.63-0.11,1.75-0.03,1.91-0.53c0.16-0.49-0.36-1.26-0.31-1.71
					c0.04-0.32,0.34-0.34,0.42-0.59c0.09-0.3-0.05-0.69-0.04-1.09c0.01-0.36,0.08-0.77,0.13-1.12c0.08-0.62,0.3-1.22,0.4-1.85
					c0.11-0.68,0.11-1.37,0.17-2.1c0.03-0.3,0.13-0.63,0.19-0.95c0.26-1.62,0.67-3.11,0.99-4.7c0.13-0.64,0.17-1.35,0.37-1.93
					c0.11-0.32,0.34-0.6,0.46-0.9c0.3-0.68,0.55-1.28,0.7-2.01c0.08-0.37,0.23-0.73,0.29-1.09c0.17-0.98,0.02-1.96,0.23-2.91
					c0.07-0.34,0.21-0.65,0.27-1.01c0.05-0.38,0.03-0.79,0.09-1.18c0.03-0.2,0.14-0.41,0.2-0.61c0.06-0.22,0.08-0.48,0.14-0.7
					c0.07-0.24,0.22-0.48,0.3-0.73c0.27-0.8,0.51-1.56,0.91-2.18c0.27,1.28-0.27,2.56-0.07,4c0.03,0.24,0.14,0.46,0.16,0.7
					c0.11,1.02-0.07,2.22-0.08,3.13c0,0.34,0.06,0.69,0.07,1.03c0.01,0.41-0.05,0.83-0.07,1.26c-0.01,0.44,0.04,0.91-0.01,1.31
					c-0.05,0.45-0.21,0.89-0.26,1.34c-0.1,0.99-0.17,2-0.2,2.99c-0.01,0.54,0.05,1.09,0,1.62c-0.05,0.62-0.29,1.23-0.4,1.88
					c-0.27,1.62-0.4,3.43-0.5,5.18c-0.02,0.37,0,0.77-0.04,1.12c-0.01,0.11-0.1,0.25-0.1,0.36c0.01,0.16,0.12,0.14,0.09,0.28
					c-0.06,0.22-0.1,0.6-0.02,0.87c-0.1,0.21-0.13,0.48-0.19,0.75c-0.06,0.28-0.2,0.61-0.14,0.84c0.09,0.29,0.66,0.43,0.98,0.48
					c0.46,0.06,0.91,0.05,1.28,0.17c-0.28,0.72,0.27,0.88,0.78,1.04c1.04,0.31,2.73,0.12,3.58-0.06c0.09-0.37-0.1-0.67-0.17-0.9
					c-0.04-0.12-0.02-0.23-0.07-0.34c-0.32-0.83-1.3-1.19-1.4-2.24c0.14-0.06,0.37-0.03,0.52-0.08c0.07-0.66-0.19-1.39-0.16-2.1
					c0.02-0.41,0.17-0.86,0.26-1.29c0.08-0.43,0.22-0.86,0.28-1.29c0.14-0.95,0.18-1.86,0.22-2.91c0.04-0.85,0.15-1.83,0.23-2.8
					c0.08-0.96,0.13-1.96,0.34-2.71c0.14-0.5,0.47-1.08,0.71-1.62c0.25-0.54,0.64-1.18,0.71-1.68c0.17-1.24,0.19-2.52,0.28-3.78
					c0.09-1.23,0.19-2.47,0.33-3.72c0.07-0.59,0.1-1.21,0.24-1.79c0.13-0.56,0.25-1.13,0.32-1.71c0.24-1.92,0.69-4.04,0.38-6.32
					c-0.04-0.27-0.14-0.57-0.14-0.84c0-0.11,0.07-0.16,0.07-0.25c0.01-0.13-0.13-0.22-0.07-0.39c0.13,0.82,0.9,1.52,0.7,2.52
					c-0.04,0.19-0.16,0.33-0.2,0.5c-0.07,0.27-0.12,0.58-0.08,0.89c0.03,0.22,0.18,0.43,0.22,0.64c0.1,0.61-0.32,1.63,0.24,1.96
					c0.1,0.06,0.3,0.05,0.42,0.06c-0.1,0.44-0.81,0.4-0.65,1.01c-0.38-0.01-0.57,0.57-0.3,0.87c0.35,0.03,0.4-0.2,0.74-0.11
					c0.31-0.21,0.6-0.51,0.88-0.73c0.12-0.09,0.25-0.12,0.32-0.22c0.23-0.32,0.21-0.8,0.34-1.29
					C299.04,278.1,299.24,277.89,299.26,277.68"/>
				<g>
					<defs>
						<path id="SVGID_5_" d="M297.58,278.52c-0.03,0.05-0.05,0.07-0.09,0.07c-0.03,0-0.06-0.01-0.1-0.01
							c0.02-0.09,0.02-0.05-0.01-0.14C297.5,278.42,297.54,278.48,297.58,278.52 M297.8,278.39c0.07,0.05,0.03,0.22-0.02,0.25
							C297.72,278.59,297.82,278.48,297.8,278.39 M281.54,274.3c-0.03,0.18-0.12,0.3-0.15,0.48c-0.37-0.4-0.46-1-0.55-1.54
							c-0.1-0.62-0.11-1.31-0.1-1.96c0.02-1.23,0.21-2.51,0.23-3.72c0.03-2.65,0.4-4.95,0.96-7.05c0.19,0.93,0.72,1.67,0.84,2.55
							c0.04,0.31-0.09,0.57-0.05,0.87c0.04,0.3,0.26,0.58,0.31,0.87c0.17,1.04-0.54,2.11-0.63,3.27c-0.05,0.64-0.09,1.27-0.3,1.76
							c-0.13,0.32-0.31,0.56-0.4,1.01c-0.04,0.19-0.13,0.4-0.15,0.56c-0.02,0.16,0.03,0.29,0.01,0.42
							c-0.02,0.18-0.15,0.35-0.15,0.53c0.01,0.18,0.12,0.28,0.15,0.42c0.12,0.58-0.18,0.81-0.4,1.18
							C281.22,274.14,281.46,274.14,281.54,274.3 M288.97,237.74c-0.09-0.01-0.18-0.02-0.27-0.02c-0.31,0-0.61,0.06-0.86,0.1
							c-0.23,0.04-0.44,0.15-0.68,0.2c-0.13,0.02-0.26,0-0.38,0.03c-0.39,0.09-0.77,0.33-1.08,0.56c-0.3,0.22-0.76,0.48-0.91,0.76
							c-0.24,0.43-0.43,1.13-0.46,1.68c-0.01,0.16,0,0.39,0.02,0.59c0.15,1.15,0.6,2.55,1.06,3.33c0.29,0.49,0.83,0.79,1.04,1.37
							c0.06,0.17,0.07,0.36,0.16,0.56c0.02,0.11,0.16,0.08,0.2,0.17c0.05,0.56-0.1,0.93-0.29,1.26c-0.24-0.03-0.45,0.11-0.42,0.42
							c-0.14-0.08-0.25-0.09-0.42-0.06c-0.17,0.11-0.04,0.31-0.15,0.42c-0.11,0.11-0.27,0.1-0.48,0.09c-0.07,0-0.15-0.01-0.23-0.01
							c-0.32,0.29-0.59,0.42-0.94,0.64c-0.18,0.11-0.31,0.26-0.49,0.31c-0.54,0.15-1.22,0.28-1.72,0.42
							c-0.19,0.05-0.42,0.05-0.6,0.11c-0.37,0.13-0.64,0.53-0.88,0.87c-0.23,0.32-0.5,0.59-0.63,0.92c-0.3,0.79-0.5,1.78-0.73,2.71
							c-0.08,0.33-0.25,0.72-0.24,0.92c0,0.11,0.08,0.23,0.09,0.34c0.06,0.64-0.07,1.41-0.14,2.13c-0.22,2.14-0.21,4.37-0.43,6.43
							c-0.24,2.19,0.11,4.55,0.43,6.57c0.12,0.76,0.06,1.52,0.14,2.26c0.02,0.23,0.17,0.46,0.19,0.7c0.07,0.83-0.4,1.59-0.38,2.52
							c0,0.15,0.05,0.32,0.07,0.5c0.04,0.38-0.04,0.85,0.1,1.15c0.05,0.12,0.24,0.21,0.34,0.34c0.16,0.22,0.3,0.5,0.49,0.73
							c0.09,0.1,0.22,0.18,0.31,0.28c0.11,0.11,0.2,0.26,0.29,0.34c0.18,0.17,0.49,0.28,0.54,0.45c0.08,0.27-0.08,0.64-0.08,0.92
							c0,0.16,0.04,0.33,0.05,0.5c0.02,1.51-0.38,3.18-0.16,4.73c0.03,0.25,0.15,0.54,0.11,0.81c-0.08,0.49-0.68,0.84-0.53,1.48
							c-0.32,0.59-0.49,0.91-0.51,1.74c-0.02,0.5,0,0.87-0.03,1.43c-0.03,0.5-0.19,1.07-0.3,1.62c-0.22,1.1-0.22,2.29-0.4,3.44
							c-0.34,2.23-0.77,4.49-0.97,6.74c-0.06,0.62,0,1.26-0.1,1.85c-0.03,0.18-0.17,0.41-0.15,0.59c0.05,0.36,0.43,0.48,0.58,0.78
							c-0.11,0.3-0.19,0.62-0.27,0.95c-0.61,0.83-1.4,1.63-1.47,2.91c0.88,0.07,2.35,0.31,3.48,0.22c0.29-0.02,0.94-0.11,1.01-0.39
							c0.05-0.21-0.17-0.41-0.13-0.61c0.63-0.11,1.75-0.03,1.91-0.53c0.16-0.49-0.36-1.26-0.31-1.71c0.04-0.32,0.35-0.34,0.42-0.59
							c0.09-0.3-0.05-0.69-0.04-1.09c0.02-0.36,0.08-0.77,0.13-1.12c0.08-0.62,0.3-1.22,0.4-1.85c0.11-0.68,0.11-1.37,0.17-2.1
							c0.03-0.3,0.13-0.63,0.19-0.95c0.27-1.62,0.67-3.11,0.99-4.7c0.13-0.64,0.18-1.35,0.37-1.93c0.11-0.32,0.34-0.6,0.47-0.89
							c0.29-0.68,0.54-1.28,0.7-2.01c0.08-0.37,0.23-0.73,0.29-1.09c0.16-0.98,0.02-1.96,0.23-2.91c0.08-0.34,0.21-0.65,0.27-1.01
							c0.05-0.38,0.03-0.79,0.09-1.18c0.03-0.2,0.14-0.41,0.2-0.62c0.06-0.22,0.08-0.48,0.14-0.7c0.07-0.24,0.22-0.48,0.31-0.73
							c0.27-0.79,0.51-1.56,0.91-2.18c0.27,1.28-0.27,2.56-0.07,4c0.03,0.24,0.14,0.46,0.16,0.7c0.11,1.02-0.07,2.22-0.08,3.13
							c0,0.34,0.06,0.69,0.06,1.04c0.01,0.41-0.05,0.83-0.07,1.26c-0.01,0.44,0.04,0.91-0.01,1.31c-0.05,0.46-0.21,0.89-0.26,1.34
							c-0.1,0.99-0.17,2-0.2,2.99c-0.01,0.54,0.05,1.09,0,1.62c-0.05,0.62-0.29,1.24-0.4,1.88c-0.27,1.62-0.4,3.43-0.5,5.17
							c-0.02,0.37,0,0.77-0.04,1.12c-0.01,0.11-0.1,0.25-0.1,0.36c0.01,0.16,0.12,0.14,0.09,0.28c-0.06,0.22-0.1,0.6-0.02,0.87
							c-0.1,0.21-0.13,0.48-0.19,0.76c-0.06,0.27-0.2,0.61-0.14,0.84c0.09,0.29,0.66,0.43,0.98,0.48c0.47,0.06,0.91,0.05,1.28,0.17
							c-0.28,0.72,0.26,0.88,0.78,1.04c1.05,0.31,2.73,0.12,3.58-0.06c0.09-0.37-0.1-0.67-0.17-0.9c-0.04-0.12-0.03-0.23-0.07-0.34
							c-0.32-0.84-1.3-1.19-1.4-2.24c0.14-0.06,0.37-0.03,0.52-0.08c0.07-0.66-0.19-1.39-0.16-2.1c0.02-0.41,0.17-0.86,0.26-1.29
							c0.08-0.43,0.22-0.86,0.28-1.29c0.14-0.96,0.18-1.86,0.22-2.91c0.04-0.85,0.15-1.83,0.23-2.8c0.08-0.96,0.13-1.96,0.34-2.71
							c0.14-0.5,0.47-1.08,0.71-1.62c0.25-0.54,0.64-1.18,0.71-1.68c0.17-1.24,0.18-2.52,0.28-3.78c0.09-1.23,0.19-2.47,0.33-3.72
							c0.07-0.59,0.1-1.21,0.24-1.79c0.13-0.56,0.25-1.13,0.33-1.71c0.24-1.92,0.69-4.04,0.38-6.32c-0.04-0.27-0.14-0.57-0.14-0.84
							c0-0.11,0.07-0.16,0.08-0.25c0.01-0.13-0.13-0.22-0.07-0.39c0.13,0.82,0.9,1.52,0.7,2.52c-0.04,0.19-0.16,0.33-0.2,0.5
							c-0.07,0.27-0.12,0.58-0.08,0.9c0.03,0.22,0.18,0.43,0.22,0.64c0.1,0.61-0.32,1.63,0.24,1.96c0.1,0.06,0.3,0.05,0.42,0.06
							c-0.1,0.44-0.81,0.4-0.65,1.01c-0.38-0.01-0.57,0.57-0.3,0.87c0.16,0.02,0.25-0.02,0.35-0.06c0.11-0.05,0.21-0.1,0.4-0.05
							c0.31-0.21,0.6-0.51,0.88-0.73c0.12-0.09,0.25-0.13,0.32-0.23c0.23-0.32,0.21-0.8,0.34-1.29c0.05-0.2,0.26-0.41,0.28-0.62
							c0.05-0.46-0.25-1.06-0.31-1.65c-0.03-0.27,0-0.54-0.03-0.78c-0.04-0.31-0.17-0.6-0.2-0.87c-0.03-0.28,0.02-0.56-0.03-0.84
							c-0.2-1.14-0.38-2.29-0.51-3.47c-0.13-1.18-0.2-2.39-0.41-3.58c-0.19-1.11-0.59-2.14-0.75-3.22c-0.28-1.83-0.28-3.87-0.2-5.6
							c0.21-0.18,0.67-0.21,0.73-0.48c0.05-0.26-0.3-0.91-0.34-1.12c-0.21-1.01-0.11-2.1-0.46-2.94c-0.1-0.23-0.33-0.45-0.52-0.67
							c-0.18-0.22-0.4-0.51-0.6-0.62c-0.59-0.31-1.33-0.48-1.96-0.67c-0.67-0.21-1.29-0.45-1.72-0.92
							c-0.17-0.19-0.23-0.47-0.46-0.56c-0.08-0.31-0.15-0.44-0.33-0.64c-0.02-0.52,0.01-0.98-0.03-1.51
							c0.87-0.17,1.08-0.34,1.28-1.15c0.12-0.49,0.34-0.96,0.36-1.54c0.01-0.41,0.05-0.8,0.04-1.09c-0.03-0.77-0.7-1.2-0.75-1.74
							c-0.02-0.26,0.12-0.52,0.08-0.73c-0.02-0.12-0.15-0.2-0.26-0.36c-0.09-0.13-0.17-0.3-0.24-0.42c-0.25-0.43-0.54-0.77-0.38-1.2
							c-0.13-0.27-0.29-0.51-0.41-0.78c-0.27-0.02-0.49-0.37-0.82-0.48c-0.17-0.06-0.38-0.04-0.56-0.11
							C289.3,237.88,289.14,237.76,288.97,237.74"/>
					</defs>
					<clipPath id="SVGID_6_">
						<use xlink:href="#SVGID_5_"  style="overflow:visible;"/>
					</clipPath>
					<path class="st5" d="M291.71,248.3c0,0,0.3,1.45-0.3,2.46c-0.6,1.02-2.25,3.77-2.25,3.77s-1.5-3.25-2.1-4.2
						c-0.6-0.95-1.5-2.82-1.5-2.82l-3.6,2.24l-1.35,0.72c0,0,1.35,0.44,1.5,2.61c0.15,2.17-0.3,3.56-0.3,4.93
						c0,1.36,0.3,2.71,0.3,2.71l-0.9,12.79c0,0,1.2,0.96,2.7,0.96h3.92c1.33,0,1.92-1.54,1.92-1.54s-0.07,1.22,0.6,1.54
						c1.05,0.51,1.57,0.51,2.7,0.51c1.13,0,3-0.51,3-0.51s-1.25-6.61-1.2-7.92c0.15-3.91,1.05-6.38,0.75-8.11
						c-0.19-1.08-0.45-2.1-0.45-3.33c0-1.01,0.9-4.06,0.9-4.06L291.71,248.3z"/>
				</g>
				<g>
					<path class="st6" d="M297.78,278.64c-0.07-0.05,0.04-0.16,0.02-0.25C297.87,278.44,297.83,278.61,297.78,278.64z
						 M297.39,278.58c0.02-0.09,0.02-0.05-0.01-0.14c0.11-0.02,0.15,0.04,0.2,0.08C297.54,278.61,297.49,278.6,297.39,278.58z
						 M282.39,268.06c-0.05,0.64-0.09,1.27-0.3,1.76c-0.13,0.32-0.31,0.56-0.4,1.01c-0.04,0.19-0.13,0.4-0.15,0.56
						c-0.02,0.16,0.03,0.29,0.02,0.42c-0.02,0.18-0.15,0.35-0.15,0.53c0.01,0.18,0.13,0.28,0.15,0.42c0.12,0.58-0.18,0.82-0.4,1.17
						c0.04,0.21,0.29,0.2,0.37,0.36c-0.02,0.18-0.12,0.3-0.15,0.48c-0.37-0.4-0.46-1-0.55-1.54c-0.1-0.62-0.11-1.31-0.1-1.96
						c0.02-1.23,0.21-2.51,0.23-3.72c0.03-2.65,0.4-4.95,0.96-7.05c0.19,0.93,0.72,1.67,0.84,2.55c0.04,0.31-0.09,0.57-0.05,0.87
						c0.04,0.3,0.26,0.58,0.31,0.87C283.19,265.82,282.48,266.9,282.39,268.06z M298.95,276.03c-0.03-0.27,0-0.54-0.03-0.78
						c-0.03-0.31-0.17-0.6-0.2-0.87c-0.03-0.28,0.02-0.56-0.03-0.84c-0.2-1.14-0.38-2.29-0.51-3.47c-0.13-1.18-0.2-2.39-0.41-3.58
						c-0.19-1.11-0.59-2.14-0.75-3.22c-0.28-1.83-0.28-3.87-0.2-5.6c0.21-0.18,0.67-0.21,0.73-0.48c0.05-0.26-0.3-0.91-0.34-1.12
						c-0.21-1.01-0.11-2.1-0.46-2.94c-0.1-0.23-0.33-0.45-0.52-0.67c-0.19-0.22-0.4-0.51-0.6-0.62c-0.59-0.31-1.33-0.48-1.96-0.67
						c-0.67-0.21-1.29-0.45-1.71-0.92c-0.17-0.19-0.23-0.47-0.46-0.56c-0.08-0.31-0.15-0.44-0.33-0.64
						c-0.02-0.52,0.01-0.98-0.03-1.51c0.87-0.17,1.08-0.34,1.28-1.15c0.12-0.49,0.34-0.96,0.36-1.54c0.01-0.41,0.06-0.8,0.04-1.09
						c-0.03-0.77-0.7-1.2-0.75-1.73c-0.02-0.26,0.12-0.52,0.08-0.73c-0.02-0.12-0.15-0.2-0.26-0.36c-0.09-0.13-0.17-0.3-0.24-0.42
						c-0.25-0.43-0.54-0.77-0.37-1.2c-0.13-0.27-0.29-0.51-0.41-0.78c-0.27-0.02-0.49-0.37-0.82-0.48
						c-0.17-0.06-0.38-0.04-0.56-0.11c-0.2-0.08-0.36-0.2-0.53-0.22c-0.4-0.05-0.8,0.03-1.13,0.08c-0.23,0.04-0.44,0.15-0.68,0.2
						c-0.13,0.02-0.26,0-0.39,0.03c-0.39,0.09-0.77,0.33-1.08,0.56c-0.3,0.22-0.76,0.47-0.91,0.75c-0.24,0.43-0.43,1.13-0.46,1.68
						c-0.01,0.16,0,0.39,0.02,0.59c0.15,1.15,0.6,2.55,1.06,3.33c0.29,0.5,0.83,0.79,1.04,1.37c0.06,0.17,0.07,0.37,0.16,0.56
						c0.02,0.11,0.16,0.08,0.2,0.17c0.05,0.56-0.1,0.93-0.29,1.26c-0.23-0.03-0.45,0.11-0.42,0.42c-0.14-0.08-0.25-0.09-0.42-0.06
						c-0.17,0.11-0.04,0.31-0.15,0.42c-0.14,0.14-0.38,0.08-0.71,0.08c-0.32,0.29-0.59,0.42-0.94,0.64
						c-0.18,0.11-0.32,0.26-0.49,0.31c-0.54,0.15-1.22,0.28-1.72,0.42c-0.19,0.06-0.42,0.05-0.6,0.11
						c-0.37,0.13-0.64,0.53-0.88,0.87c-0.23,0.32-0.5,0.59-0.63,0.92c-0.3,0.78-0.5,1.78-0.73,2.71c-0.08,0.33-0.24,0.72-0.24,0.92
						c0,0.11,0.08,0.23,0.09,0.34c0.06,0.64-0.07,1.41-0.14,2.13c-0.22,2.14-0.21,4.36-0.43,6.43c-0.24,2.19,0.11,4.55,0.43,6.57
						c0.12,0.77,0.05,1.52,0.14,2.27c0.02,0.23,0.17,0.45,0.19,0.7c0.07,0.83-0.4,1.59-0.38,2.52c0,0.15,0.05,0.32,0.07,0.5
						c0.04,0.38-0.04,0.85,0.1,1.15c0.05,0.12,0.24,0.21,0.34,0.34c0.16,0.22,0.3,0.5,0.49,0.73c0.08,0.1,0.21,0.18,0.31,0.28
						c0.11,0.11,0.2,0.26,0.29,0.34c0.18,0.17,0.49,0.28,0.54,0.45c0.08,0.27-0.08,0.64-0.08,0.92c0,0.17,0.04,0.33,0.05,0.5
						c0.02,1.51-0.38,3.18-0.16,4.73c0.04,0.25,0.15,0.54,0.11,0.81c-0.08,0.49-0.68,0.84-0.53,1.48c-0.32,0.59-0.49,0.91-0.51,1.74
						c-0.02,0.5,0,0.87-0.03,1.43c-0.03,0.5-0.19,1.07-0.3,1.62c-0.22,1.1-0.22,2.29-0.4,3.44c-0.34,2.23-0.77,4.49-0.97,6.74
						c-0.05,0.62,0,1.26-0.1,1.85c-0.03,0.18-0.17,0.41-0.14,0.59c0.05,0.36,0.43,0.48,0.58,0.78c-0.11,0.3-0.19,0.62-0.27,0.95
						c-0.61,0.83-1.4,1.63-1.47,2.91c0.88,0.07,2.35,0.31,3.48,0.22c0.29-0.02,0.94-0.11,1.01-0.39c0.05-0.21-0.17-0.41-0.13-0.62
						c0.63-0.11,1.75-0.03,1.91-0.53c0.16-0.49-0.36-1.26-0.31-1.71c0.04-0.32,0.34-0.34,0.42-0.59c0.09-0.3-0.05-0.69-0.04-1.09
						c0.01-0.36,0.08-0.77,0.13-1.12c0.08-0.62,0.3-1.22,0.4-1.85c0.11-0.68,0.11-1.37,0.17-2.1c0.03-0.3,0.13-0.63,0.19-0.95
						c0.26-1.62,0.67-3.11,0.99-4.7c0.13-0.64,0.17-1.35,0.37-1.93c0.11-0.32,0.34-0.6,0.46-0.9c0.3-0.68,0.55-1.28,0.7-2.01
						c0.08-0.37,0.23-0.73,0.29-1.09c0.17-0.98,0.02-1.96,0.23-2.91c0.07-0.34,0.21-0.65,0.27-1.01c0.05-0.38,0.03-0.79,0.09-1.18
						c0.03-0.2,0.14-0.41,0.2-0.61c0.06-0.22,0.08-0.48,0.14-0.7c0.07-0.24,0.22-0.48,0.3-0.73c0.27-0.8,0.51-1.56,0.91-2.18
						c0.27,1.28-0.27,2.56-0.07,4c0.03,0.24,0.14,0.46,0.16,0.7c0.11,1.02-0.07,2.22-0.08,3.13c0,0.34,0.06,0.69,0.06,1.03
						c0.01,0.41-0.05,0.83-0.06,1.26c-0.01,0.44,0.04,0.91-0.01,1.31c-0.05,0.45-0.21,0.89-0.26,1.34c-0.1,0.99-0.17,2-0.2,2.99
						c-0.01,0.54,0.05,1.09,0,1.62c-0.05,0.62-0.29,1.23-0.4,1.88c-0.27,1.62-0.4,3.43-0.5,5.18c-0.02,0.37,0,0.77-0.04,1.12
						c-0.01,0.11-0.1,0.25-0.1,0.36c0.01,0.16,0.12,0.14,0.09,0.28c-0.06,0.22-0.1,0.6-0.02,0.87c-0.1,0.21-0.13,0.48-0.19,0.75
						c-0.06,0.28-0.2,0.61-0.14,0.84c0.09,0.29,0.66,0.43,0.98,0.48c0.46,0.06,0.91,0.05,1.28,0.17c-0.28,0.72,0.27,0.88,0.78,1.04
						c1.04,0.31,2.73,0.12,3.58-0.06c0.09-0.37-0.1-0.67-0.17-0.9c-0.04-0.12-0.02-0.23-0.07-0.34c-0.32-0.83-1.3-1.19-1.4-2.24
						c0.14-0.06,0.37-0.03,0.52-0.08c0.07-0.66-0.19-1.39-0.16-2.1c0.02-0.41,0.17-0.86,0.26-1.29c0.08-0.43,0.22-0.86,0.28-1.29
						c0.14-0.95,0.18-1.86,0.22-2.91c0.04-0.85,0.15-1.83,0.23-2.8c0.08-0.96,0.13-1.96,0.34-2.71c0.14-0.5,0.47-1.08,0.71-1.62
						c0.25-0.54,0.64-1.18,0.71-1.68c0.17-1.24,0.19-2.52,0.28-3.78c0.09-1.23,0.19-2.47,0.33-3.72c0.07-0.59,0.1-1.21,0.24-1.79
						c0.13-0.56,0.25-1.13,0.32-1.71c0.24-1.92,0.69-4.04,0.38-6.32c-0.04-0.27-0.14-0.57-0.14-0.84c0-0.11,0.07-0.16,0.07-0.25
						c0.01-0.13-0.13-0.22-0.07-0.39c0.13,0.82,0.9,1.52,0.7,2.52c-0.04,0.19-0.16,0.33-0.2,0.5c-0.07,0.27-0.12,0.58-0.08,0.89
						c0.03,0.22,0.18,0.43,0.22,0.64c0.1,0.61-0.32,1.63,0.24,1.96c0.1,0.06,0.3,0.05,0.42,0.06c-0.1,0.44-0.81,0.4-0.65,1.01
						c-0.38-0.01-0.57,0.57-0.3,0.87c0.35,0.03,0.4-0.2,0.74-0.11c0.31-0.21,0.6-0.51,0.88-0.73c0.12-0.09,0.25-0.12,0.32-0.22
						c0.23-0.32,0.21-0.8,0.34-1.29c0.05-0.2,0.26-0.41,0.28-0.62C299.31,277.23,299.02,276.62,298.95,276.03z"/>
					<path class="st7" d="M283.38,241.1c-0.09-0.74,0.2-0.82,0.2-0.82s-0.3-2.14,1.94-3.22c2.25-1.08,4.16-1.11,5.6,0.06
						c0.97,0.78,1.16,2.29,1.16,2.29s1.5,0.23,1.51,0.66c0.01,0.44-0.96,0.76-1.29,0.87c-0.33,0.11-3.19,1-7.08,1.15
						C285.42,242.09,283.62,241.95,283.38,241.1"/>
					<path class="st6" d="M283.21,241.32c-0.13-0.74,0.21-0.99,0.21-0.99s-0.14-2.18,2.1-3.26c2.25-1.08,4.16-1.11,5.6,0.06
						c0.97,0.78,1.16,2.29,1.16,2.29s1.5,0.23,1.51,0.66c0.01,0.44-0.96,0.76-1.29,0.87c-0.33,0.11-3.19,1-7.08,1.15
						C285.42,242.09,283.44,242.16,283.21,241.32z"/>
				</g>
			</g>
		</g>
		<g>
			<g>
				<g>
					<path d="M305.75,287.66l-0.69-2.11c-0.5-1.15-1.09-1.92-1.35-3.05c-0.38-1.65-0.79-3.09-0.91-4.9
						c-0.79-0.36-0.73-1.12-0.91-2.25c-0.12-0.74-0.51-1.44-0.49-1.99c0.01-0.4,0.23-0.74,0.21-1.13c-0.02-0.3-0.26-0.61-0.28-0.93
						c-0.06-0.98,0.97-1.84,1.26-2.85c0.25-0.86,0.06-1.79,0.14-2.85c0.07-0.97,0.37-1.85,0.42-2.78c0.17-3.04-0.21-6.17,0.77-8.55
						c0.5-1.21,0.85-2.49,1.47-3.25c0.69-0.83,2.31-1.62,1.68-3.31c-1.01-0.01-1.51-0.11-2-0.61c0.15-0.99-0.31-1.68-0.11-2.5
						c-0.06-0.25-0.53-0.11-0.56-0.4c0.06-0.46,0.62-1,0.91-1.46c-0.58-0.22,0.04-0.26-0.42-0.8c0.19-0.68,0.6-1.16,0.91-1.72
						c-1.75-0.74,0.02-1.56,1.47-1.99c0.46-0.13,0.84-0.39,1.19-0.46c0.48-0.1,1.18-0.07,1.54-0.07c0.05,0,0.13-0.14,0.21-0.13
						c0.75,0.08,1.54,0.97,2.1,0.66c0.66,0.78,1.57,1.31,1.75,2.58c0.16,1.1-0.87,2.03-0.78,3.32c-0.46,0.41-0.14,1.72-0.28,2.64
						c-0.32,0.21-0.33,0.1-0.77,0.33c0.43,0.68,0.4,1.92,1.47,1.79c0.51,0.75,1.57,1.13,2.17,1.86c0.82,0.98,1.82,3.04,1.68,4.9
						c-0.06,0.81-0.45,1.63-0.49,2.52c-0.03,0.69,0.2,1.33,0.14,1.99c-0.05,0.52-0.22,1.03-0.35,1.52
						c-0.12,0.47-0.44,0.95-0.49,1.39c-0.06,0.53,0.23,1.11,0.21,1.66c-0.05,1.26-0.77,2.64-1.05,4.11
						c-0.49,2.56-0.1,5.54-0.42,8.08c-0.19,1.49,0.29,7.15,0.34,9l0.5,8.95c0.27,2.56,0.2,5.93,0.07,8.61
						c-0.03,0.7,0.17,1.5-0.35,1.79c0.14,0.76,0.36,2.65,0.28,3.4c-1.12,0.57-2.96,0.12-4.14-0.07c-0.14,0.51,0.07,0.19,0,0.84
						c-0.53,0.22-1.34,0.43-2.17,0.4c-0.27-0.01-0.6-0.15-0.84-0.13c-0.36,0.03-0.75,0.35-1.12,0.46c-1.09,0.34-2.62,0.42-4,0.33
						c-1.32-0.08-2.67-0.16-3.51-0.99c0.66-1.65,3.69-1.07,4.42-2.65c0.09-0.35-0.38-0.18-0.28-0.53c0.26-0.39,0.32-0.98,0.98-0.99
						c0.28-1.37,0.95-3.07,1.02-4.33c0,0-0.38-3.44-0.38-5.63C305.96,293.2,306.21,289.57,305.75,287.66z"/>
					<path class="st8" d="M307.42,296.48"/>
					<path d="M313.18,241.71"/>
				</g>
				<g>
					<defs>
						<path id="SVGID_7_" d="M310.22,237.57c0.74,0.08,1.54,0.97,2.1,0.66c0.65,0.78,1.57,1.31,1.75,2.58
							c0.16,1.1-0.4,2.08-0.77,3.32c-0.26,0.85-0.12,1.16-0.22,2.08c-0.06,0.56-0.39,0.66-0.83,0.89c0.43,0.67,0.4,1.92,1.47,1.79
							c0.51,0.75,1.57,1.13,2.17,1.85c0.82,0.98,1.82,3.04,1.68,4.9c-0.06,0.81-0.45,1.63-0.49,2.52c-0.03,0.69,0.2,1.33,0.14,1.99
							c-0.05,0.52-0.22,1.03-0.35,1.52c-0.12,0.47-0.44,0.95-0.49,1.39c-0.06,0.53,0.23,1.11,0.21,1.66
							c-0.05,1.26-0.77,2.64-1.05,4.11c-0.49,2.56-0.1,5.53-0.42,8.08c-0.19,1.49,0.29,7.15,0.34,9l0.5,8.95
							c0.27,2.56,0.2,5.93,0.07,8.61c-0.03,0.7,0.17,1.5-0.35,1.79c0.14,0.77,0.36,2.66,0.28,3.4c-1.12,0.57-2.96,0.12-4.14-0.07
							c-0.14,0.5,0.07,0.19,0,0.84c-0.54,0.22-1.34,0.43-2.17,0.4c-0.26-0.01-0.6-0.15-0.84-0.13c-0.36,0.03-0.74,0.35-1.12,0.47
							c-1.09,0.34-2.62,0.42-4,0.33c-1.32-0.08-2.67-0.16-3.51-0.99c0.66-1.65,3.69-1.07,4.42-2.65c0.09-0.35-0.38-0.18-0.28-0.53
							c0.26-0.39,0.32-0.97,0.98-0.99c0.28-1.37,1.12-2.21,1.61-3.38c-0.27-0.76,0.18-1.62,0.56-2.45c0.25-0.56,0.85-1.27,0.84-1.72
							c-0.02-0.48-0.71-0.87-0.91-1.32c-0.23-0.5-0.11-0.84-0.35-1.39c-1.42-0.23,0-2.29-0.82-3.1c-0.56-0.55,0.03-2.88-0.5-4.32
							l-0.69-2.11c-0.5-1.15-1.09-1.92-1.35-3.05c-0.38-1.65-0.79-3.09-0.91-4.9c-0.79-0.36-0.73-1.12-0.91-2.25
							c-0.12-0.74-0.51-1.44-0.49-1.99c0.01-0.4,0.23-0.74,0.21-1.13c-0.02-0.3-0.26-0.61-0.28-0.93c-0.06-0.98,0.97-1.84,1.26-2.85
							c0.25-0.86,0.06-1.79,0.14-2.85c0.07-0.97,0.37-1.85,0.42-2.78c0.17-3.04-0.21-6.17,0.77-8.55c0.5-1.21,0.85-2.49,1.47-3.25
							c0.69-0.83,2.31-1.62,1.68-3.31c-1.01-0.01-1.51-0.11-2-0.61c0.15-0.99-0.31-1.68-0.11-2.5c-0.06-0.25-0.53-0.11-0.56-0.4
							c0.06-0.46,0.62-1,0.91-1.46c-0.59-0.21,0.04-0.26-0.42-0.8c0.19-0.68,0.6-1.16,0.91-1.72c-1.75-0.74,0.02-1.56,1.47-1.99
							c0.46-0.13,0.84-0.39,1.19-0.47c0.48-0.1,1.18-0.07,1.54-0.07C310.06,237.71,310.14,237.57,310.22,237.57
							C310.22,237.57,310.22,237.57,310.22,237.57"/>
					</defs>
					<clipPath id="SVGID_8_">
						<use xlink:href="#SVGID_7_"  style="overflow:visible;"/>
					</clipPath>
					<path class="st9" d="M313.08,248.54c0,0-2.26,1.66-5.85,0.95c-2.72-0.54-5.23,1.04-5.23,1.04l-0.62,9.09l-1.23,12.66
						c0,0,1.63-0.06,2.89,0.49c1.26,0.55,3.26,0.55,3.26,0.55s0.4-4.65,0.66-6.57c0.26-1.92,0.49-3.66,0.55-5.72
						c0.09-3.25-0.44-7.18-0.18-8.38c0.37-1.71,3.93-1.58,4.51,0.12c0.62,1.79,0.92,3.2,0.92,8.45c0,5.25-2.2,12.17-2.2,12.17
						l5.2-0.66l2.65-19.66l-2.65-4.53H313.08z"/>
					
						<use xlink:href="#SVGID_7_"  style="overflow:visible;fill:none;stroke:#000000;stroke-width:0.7799;stroke-linecap:round;stroke-linejoin:round;stroke-miterlimit:10;"/>
				</g>
			</g>
			<path class="st10" d="M312.77,241.6c1.67-0.13,2.11-0.38,2.11-1.32c0-0.5-0.5-0.83-0.5-0.83s0.13-3.07-2.52-3.9
				c-2.65-0.83-4.91-0.11-6.31,1.35c-0.95,0.98-0.91,2.61-0.91,2.61s-1.61,0.23-1.56,0.93c0.03,0.47,1.18,0.67,1.56,0.74
				C304.63,241.18,307.94,241.98,312.77,241.6z"/>
		</g>
		<g>
			<path d="M537.21,386.48l-0.99,3.89l-0.49,1.94l-0.23,0.98l-0.24,0.97h-0.04l-0.34-0.97l-0.33-0.98l-0.68-1.94l-1.34-3.89h-1.36
				l3.16,8.74h0.48c-0.05,0.19-0.08,0.3-0.08,0.33l-0.25,0.86c-0.34,1.15-0.85,1.71-1.54,1.67c-0.12-0.01-0.27-0.03-0.45-0.06v1.06
				c0.25,0.04,0.45,0.06,0.61,0.06c0.79,0,1.39-0.24,1.81-0.73c0.42-0.49,0.81-1.38,1.16-2.69l2.48-9.24H537.21z M522.71,395.22
				h1.28v-5.26c0-1.7,0.9-2.55,2.7-2.55c0.82,0,1.37,0.13,1.65,0.39c0.29,0.26,0.43,0.76,0.43,1.51v0.33v5.58h1.28v-5.69
				c0-1.24-0.22-2.08-0.66-2.52c-0.44-0.44-1.29-0.66-2.54-0.66c-1.55,0-2.52,0.45-2.91,1.34l-0.04-0.03l0.04-1.19h-1.23V395.22z
				 M518.6,391.25c0.35,0.24,0.53,0.7,0.53,1.39c0,1.1-0.9,1.64-2.71,1.64c-0.9,0-1.49-0.11-1.78-0.34s-0.44-0.7-0.44-1.4
				c0-0.68,0.15-1.13,0.44-1.33c0.3-0.21,0.94-0.31,1.92-0.31C517.57,390.89,518.25,391.01,518.6,391.25 M514.5,388.67
				c0-0.88,0.79-1.33,2.36-1.33c0.93,0,1.53,0.15,1.8,0.44c0.27,0.3,0.41,0.94,0.41,1.94v1.06l-0.03,0.01
				c-0.3-0.6-1.22-0.9-2.76-0.9c-1.29,0-2.18,0.2-2.68,0.6s-0.74,1.13-0.74,2.18c0,1.77,1.1,2.66,3.31,2.66
				c1.49,0,2.48-0.36,2.97-1.08l0.03,0.01l-0.1,0.94h1.28v-5.77c0-1.21-0.26-2.02-0.77-2.45c-0.51-0.43-1.5-0.64-2.95-0.64
				c-1.34,0-2.24,0.18-2.7,0.53c-0.46,0.35-0.69,1.03-0.69,2.05h1.27C514.5,388.8,514.5,388.71,514.5,388.67 M509.36,388.07
				c0.3,0.44,0.45,1.4,0.45,2.89c0,1.35-0.16,2.25-0.46,2.68c-0.31,0.43-0.94,0.65-1.9,0.65c-1.01,0-1.68-0.22-2.02-0.67
				c-0.34-0.45-0.5-1.35-0.5-2.69c0-1.46,0.16-2.41,0.47-2.85c0.31-0.44,0.98-0.66,2-0.66C508.4,387.41,509.06,387.63,509.36,388.07
				 M503.62,398.96h1.28v-4.78h0.03c0.46,0.77,1.41,1.16,2.85,1.16c1.26,0,2.14-0.32,2.63-0.96s0.74-1.77,0.74-3.41
				c0-1.77-0.24-2.98-0.73-3.64c-0.49-0.66-1.38-0.99-2.68-0.99c-1.47,0-2.43,0.42-2.87,1.26l-0.04-0.03l0.06-1.11h-1.28V398.96z
				 M488.16,395.22h1.28v-4.96c0-1.89,0.87-2.84,2.61-2.84c1.29,0,1.93,0.56,1.93,1.69l0.02,0.4v5.71h1.28v-5.05
				c0-1.07,0.18-1.8,0.54-2.18c0.36-0.38,1.05-0.57,2.06-0.57c0.76,0,1.28,0.14,1.55,0.41c0.27,0.27,0.41,0.8,0.41,1.56v5.83h1.28
				v-5.71c0-2.1-1.03-3.15-3.09-3.15c-1.46,0-2.46,0.49-3.01,1.47h-0.04c-0.32-0.98-1.22-1.47-2.7-1.47c-1.41,0-2.36,0.49-2.85,1.47
				l-0.03-0.03l0.03-1.32h-1.28V395.22z M484.42,387.96c0.27,0.37,0.41,1.33,0.41,2.88c0,1.55-0.14,2.51-0.41,2.88
				c-0.27,0.37-0.98,0.55-2.12,0.55c-1.13,0-1.84-0.18-2.11-0.55c-0.27-0.37-0.41-1.33-0.41-2.88c0-1.55,0.14-2.51,0.41-2.88
				c0.27-0.37,0.97-0.55,2.11-0.55C483.45,387.41,484.15,387.59,484.42,387.96 M479.17,387.19c-0.48,0.56-0.72,1.78-0.72,3.66
				c0,1.88,0.24,3.1,0.72,3.66c0.48,0.56,1.53,0.84,3.13,0.84c1.61,0,2.66-0.28,3.14-0.84c0.48-0.56,0.72-1.78,0.72-3.66
				c0-1.88-0.24-3.1-0.72-3.66c-0.48-0.56-1.53-0.84-3.14-0.84C480.7,386.35,479.65,386.63,479.17,387.19 M475.79,391.79
				c0,1.06-0.21,1.71-0.62,1.97c-0.41,0.26-1.45,0.39-3.1,0.39c-1.74,0-2.76-0.3-3.06-0.9c-0.3-0.6-0.45-2.66-0.45-6.16
				c0-1.52,0.22-2.45,0.67-2.79c0.44-0.34,1.67-0.5,3.68-0.5c1.15,0,1.88,0.14,2.21,0.43c0.33,0.29,0.49,0.93,0.49,1.94l0.01,0.38
				h1.4l-0.01-0.34c0-1.42-0.28-2.37-0.83-2.86c-0.55-0.49-1.62-0.74-3.21-0.74c-2.35,0-3.87,0.26-4.58,0.77
				c-0.6,0.44-0.97,0.94-1.1,1.49c-0.13,0.56-0.19,1.92-0.19,4.08c0,2.77,0.28,4.52,0.85,5.27c0.57,0.75,1.89,1.12,3.98,1.12
				c2.33,0,3.79-0.21,4.37-0.64c0.58-0.42,0.87-1.49,0.87-3.19v-0.48h-1.4L475.79,391.79z M459.04,388.07
				c0.3,0.44,0.45,1.4,0.45,2.89c0,1.35-0.15,2.25-0.46,2.68c-0.31,0.43-0.94,0.65-1.9,0.65c-1.01,0-1.68-0.22-2.02-0.67
				c-0.34-0.45-0.5-1.35-0.5-2.69c0-1.46,0.16-2.41,0.47-2.85c0.31-0.44,0.98-0.66,2-0.66
				C458.08,387.41,458.74,387.63,459.04,388.07 M453.3,398.96h1.28v-4.78h0.03c0.46,0.77,1.41,1.16,2.85,1.16
				c1.26,0,2.14-0.32,2.63-0.96c0.49-0.64,0.74-1.77,0.74-3.41c0-1.77-0.24-2.98-0.73-3.64c-0.49-0.66-1.38-0.99-2.68-0.99
				c-1.47,0-2.42,0.42-2.87,1.26l-0.04-0.03l0.06-1.11h-1.28V398.96z M449.65,386.48v5.01c0,1.07-0.19,1.8-0.56,2.2
				c-0.37,0.4-1.06,0.6-2.07,0.6c-0.77,0-1.28-0.13-1.54-0.4c-0.26-0.27-0.39-0.8-0.39-1.59v-5.81h-1.28v5.81
				c0,2.04,1.02,3.05,3.06,3.05c1.46,0,2.41-0.43,2.85-1.3l0.03,0.03l-0.09,1.14h1.28v-8.74H449.65z M440.06,387.96
				c0.27,0.37,0.41,1.33,0.41,2.88c0,1.55-0.14,2.51-0.41,2.88c-0.27,0.37-0.97,0.55-2.11,0.55c-1.13,0-1.84-0.18-2.11-0.55
				c-0.27-0.37-0.41-1.33-0.41-2.88c0-1.55,0.13-2.51,0.41-2.88c0.27-0.37,0.97-0.55,2.11-0.55
				C439.08,387.41,439.79,387.59,440.06,387.96 M434.81,387.19c-0.48,0.56-0.72,1.78-0.72,3.66c0,1.88,0.24,3.1,0.72,3.66
				c0.48,0.56,1.53,0.84,3.13,0.84c1.61,0,2.66-0.28,3.14-0.84c0.48-0.56,0.72-1.78,0.72-3.66c0-1.88-0.24-3.1-0.72-3.66
				c-0.48-0.56-1.53-0.84-3.14-0.84C436.33,386.35,435.29,386.63,434.81,387.19 M427,395.22h1.28v-5.24c0-1.76,0.71-2.64,2.14-2.64
				c0.97,0,1.46,0.45,1.46,1.34c0,0.08-0.01,0.23-0.03,0.47l-0.03,0.22h1.26l0.01-0.6c0-1.66-0.8-2.49-2.41-2.49
				c-1.16,0-2,0.41-2.5,1.23l-0.03-0.03l0.13-1.01H427V395.22z M419.8,390.2h3.97c0.05,0.4,0.07,0.65,0.07,0.77
				c0,1.44-0.18,2.34-0.53,2.68c-0.36,0.34-1.29,0.51-2.79,0.51c-1.97,0-3.18-0.18-3.63-0.54c-0.45-0.36-0.68-1.33-0.68-2.9
				l-0.01-1.78l0.02-1.65c0-1.55,0.2-2.51,0.61-2.9c0.41-0.39,1.43-0.58,3.05-0.58c1.76,0,2.85,0.12,3.27,0.36
				c0.42,0.24,0.63,0.87,0.63,1.89v0.31h1.38v-0.48c0-1.38-0.31-2.27-0.92-2.67c-0.62-0.4-1.98-0.6-4.1-0.6
				c-2.11,0-3.52,0.3-4.22,0.91c-0.7,0.61-1.05,1.84-1.05,3.68l-0.01,1.11l0.01,1.84c0,2.2,0.31,3.61,0.94,4.25
				c0.63,0.63,2.04,0.95,4.24,0.95c2.33,0,3.77-0.27,4.32-0.8c0.55-0.53,0.83-1.92,0.83-4.17c0-0.58-0.01-1.04-0.04-1.36h-5.35
				V390.2z M402.32,390.09c0-1.12,0.15-1.85,0.46-2.18c0.31-0.33,0.98-0.5,2.02-0.5c1.03,0,1.7,0.14,2.01,0.43
				c0.31,0.28,0.47,0.9,0.47,1.84l0.01,0.41H402.32z M407.28,392.85c0,0.6-0.15,0.99-0.46,1.17c-0.31,0.18-0.98,0.27-2.01,0.27
				c-1.08,0-1.77-0.19-2.07-0.57c-0.29-0.38-0.44-1.26-0.44-2.63h6.29v-0.69c0-1.66-0.25-2.75-0.75-3.27
				c-0.5-0.52-1.55-0.78-3.16-0.78c-1.48,0-2.47,0.3-2.97,0.9c-0.5,0.6-0.76,1.77-0.76,3.51c0,1.88,0.25,3.12,0.75,3.71
				c0.5,0.59,1.56,0.88,3.17,0.88c1.38,0,2.35-0.18,2.9-0.54c0.55-0.36,0.83-1,0.83-1.91l-0.01-0.32h-1.31V392.85z M397.67,395.22
				h1.28v-12.48h-1.28V395.22z M393.86,388.07c0.3,0.44,0.45,1.4,0.45,2.89c0,1.35-0.15,2.25-0.46,2.68
				c-0.31,0.43-0.94,0.65-1.91,0.65c-1.01,0-1.68-0.22-2.02-0.67c-0.34-0.45-0.5-1.35-0.5-2.69c0-1.46,0.16-2.41,0.47-2.85
				c0.31-0.44,0.98-0.66,2-0.66C392.91,387.41,393.56,387.63,393.86,388.07 M388.12,398.96h1.28v-4.78h0.03
				c0.46,0.77,1.41,1.16,2.85,1.16c1.26,0,2.14-0.32,2.63-0.96c0.49-0.64,0.74-1.77,0.74-3.41c0-1.77-0.24-2.98-0.73-3.64
				c-0.49-0.66-1.38-0.99-2.68-0.99c-1.47,0-2.43,0.42-2.87,1.26l-0.04-0.03l0.06-1.11h-1.28V398.96z M384.38,387.96
				c0.27,0.37,0.41,1.33,0.41,2.88c0,1.55-0.14,2.51-0.41,2.88c-0.27,0.37-0.98,0.55-2.12,0.55c-1.13,0-1.83-0.18-2.11-0.55
				c-0.27-0.37-0.41-1.33-0.41-2.88c0-1.55,0.14-2.51,0.41-2.88c0.27-0.37,0.97-0.55,2.11-0.55
				C383.41,387.41,384.11,387.59,384.38,387.96 M379.13,387.19c-0.48,0.56-0.72,1.78-0.72,3.66c0,1.88,0.24,3.1,0.72,3.66
				c0.48,0.56,1.53,0.84,3.13,0.84c1.61,0,2.66-0.28,3.14-0.84c0.48-0.56,0.72-1.78,0.72-3.66c0-1.88-0.24-3.1-0.72-3.66
				c-0.48-0.56-1.53-0.84-3.14-0.84C380.66,386.35,379.61,386.63,379.13,387.19 M370.37,390.09c0-1.12,0.15-1.85,0.46-2.18
				c0.31-0.33,0.98-0.5,2.02-0.5c1.03,0,1.7,0.14,2.01,0.43c0.31,0.28,0.47,0.9,0.47,1.84l0.01,0.41H370.37z M375.33,392.85
				c0,0.6-0.15,0.99-0.46,1.17c-0.31,0.18-0.98,0.27-2.01,0.27c-1.08,0-1.78-0.19-2.07-0.57c-0.3-0.38-0.44-1.26-0.44-2.63h6.29
				v-0.69c0-1.66-0.25-2.75-0.75-3.27c-0.5-0.52-1.56-0.78-3.16-0.78c-1.47,0-2.46,0.3-2.97,0.9c-0.5,0.6-0.76,1.77-0.76,3.51
				c0,1.88,0.25,3.12,0.75,3.71c0.5,0.59,1.56,0.88,3.17,0.88c1.38,0,2.35-0.18,2.9-0.54c0.55-0.36,0.83-1,0.83-1.91l-0.01-0.32
				h-1.31V392.85z M359.68,383.93h3.78l0.54,0.01c0.99,0,1.62,0.16,1.89,0.48c0.27,0.32,0.4,1.08,0.4,2.29
				c0,1.03-0.2,1.69-0.59,1.97c-0.39,0.29-1.29,0.43-2.68,0.43h-3.34V383.93z M359.68,395.22v-4.92h3.6l0.55-0.01
				c1.47,0,2.47-0.26,3-0.78c0.53-0.52,0.8-1.49,0.8-2.92c0-1.49-0.26-2.5-0.77-3.04c-0.51-0.54-1.47-0.81-2.88-0.81h-0.48h-5.24
				v12.48H359.68z M351.44,388.44c0-1.4-1.16-2.09-3.47-2.09c-1.44,0-2.41,0.16-2.89,0.49c-0.49,0.33-0.73,0.98-0.73,1.96
				c0,1.04,0.31,1.72,0.92,2.05c0.61,0.33,1.89,0.49,3.83,0.49c0.83,0,1.25,0.46,1.25,1.38c0,0.64-0.17,1.06-0.5,1.26
				c-0.33,0.2-1.03,0.3-2.08,0.3c-0.86,0-1.43-0.1-1.73-0.29c-0.29-0.19-0.44-0.57-0.44-1.15l-0.01-0.41h-1.33l-0.01,0.48
				c0,0.93,0.27,1.56,0.81,1.91c0.54,0.35,1.52,0.52,2.96,0.52c1.4,0,2.35-0.18,2.88-0.55c0.52-0.36,0.79-1.04,0.79-2.02
				c0-1.58-0.79-2.41-2.38-2.49l-1.31-0.06l-1.03-0.05c-0.86-0.04-1.29-0.51-1.29-1.41c0-0.59,0.13-0.96,0.38-1.12
				c0.26-0.16,0.86-0.23,1.81-0.23c1.03,0,1.66,0.07,1.91,0.22c0.25,0.14,0.37,0.52,0.37,1.13h1.28V388.44z M341.14,395.22h1.28
				v-12.48h-1.28V395.22z M337.61,395.22h1.28v-12.48h-1.28V395.22z M334.09,395.22h1.28v-8.74h-1.28V395.22z M334.09,384.17h1.28
				v-1.43h-1.28V384.17z M326.04,382.74v12.48h1.28v-4.23h0.52l3.71,4.23h1.73l-4.41-4.73l3.74-4.01h-1.61l-3.09,3.51h-0.58v-7.25
				H326.04z M323.33,383.27c-0.57-0.44-1.78-0.66-3.65-0.66c-1.84,0-3.07,0.24-3.68,0.71c-0.62,0.48-0.92,1.42-0.92,2.84
				c0,2.05,1.06,3.14,3.17,3.29l1.39,0.07l1.46,0.07c0.81,0.05,1.33,0.2,1.59,0.45c0.25,0.25,0.38,0.76,0.38,1.52
				c0,1.18-0.19,1.9-0.56,2.17c-0.37,0.27-1.36,0.41-2.98,0.41c-1.41,0-2.28-0.14-2.62-0.41c-0.34-0.27-0.51-0.96-0.51-2.08v-0.31
				H315l0.01,0.56c0,1.38,0.3,2.29,0.89,2.75c0.59,0.45,1.79,0.68,3.59,0.68c2.07,0,3.41-0.22,4.02-0.68
				c0.61-0.45,0.91-1.44,0.91-2.98c0-1.42-0.26-2.33-0.79-2.74c-0.53-0.41-1.76-0.65-3.71-0.74c-1.66-0.08-2.65-0.23-2.99-0.45
				c-0.34-0.22-0.5-0.83-0.5-1.84c0-0.9,0.21-1.47,0.64-1.73c0.43-0.26,1.38-0.39,2.85-0.39c1.24,0,2.03,0.14,2.37,0.41
				c0.34,0.27,0.5,0.91,0.5,1.91h1.4C324.18,384.67,323.9,383.72,323.33,383.27 M301.32,391.51l2.73-7.62l2.77,7.62H301.32z
				 M308.2,395.22h1.47l-4.66-12.48h-1.97l-4.57,12.48h1.49l0.96-2.64h6.32L308.2,395.22z"/>
		</g>
		<g>
			<g>
				<path class="st7" d="M194.07,309.79c0,0-23.44,0-23.44,23.44v6.29c0,0,0,23.44,23.44,23.44h446.9c0,0,23.44,0,23.44-23.44v-6.29
					c0,0,0-23.44-23.44-23.44H194.07z"/>
				<path class="st11" d="M194.07,309.79c0,0-23.44,0-23.44,23.44v6.29c0,0,0,23.44,23.44,23.44h446.9c0,0,23.44,0,23.44-23.44
					v-6.29c0,0,0-23.44-23.44-23.44H194.07z"/>
			</g>
		</g>
		<path d="M219.61,266.61h-14.89v-4.57c0-2.13-0.19-3.49-0.57-4.07s-1.02-0.88-1.9-0.88c-0.96,0-1.69,0.39-2.19,1.18
			c-0.5,0.79-0.74,1.98-0.74,3.58c0,2.06,0.28,3.61,0.83,4.65c0.53,1.04,2.04,2.3,4.53,3.77c7.14,4.24,11.63,7.71,13.48,10.43
			c1.85,2.72,2.78,7.1,2.78,13.14c0,4.39-0.51,7.63-1.54,9.71s-3.02,3.83-5.96,5.24c-2.95,1.41-6.83,1.66-10.74,1.66
			c-4.29,0-7.5-0.36-10.53-1.98c-3.03-1.63-5.02-3.69-5.96-6.21c-0.94-2.51-1.41-6.08-1.41-10.7v-4.04h14.89v7.5
			c0,2.31,0.21,3.8,0.63,4.46c0.42,0.66,1.16,0.99,2.23,0.99s1.86-0.42,2.38-1.26c0.52-0.84,0.78-2.08,0.78-3.73
			c0-3.63-0.5-6-1.49-7.12c-1.02-1.12-3.52-2.98-7.5-5.6c-3.99-2.64-6.63-4.56-7.92-5.75s-2.37-2.84-3.22-4.95
			c-0.85-2.11-1.28-4.8-1.28-8.07c0-4.72,0.6-8.18,1.81-10.36c1.21-2.18,3.15-3.89,5.85-5.12c2.69-1.23,5.94-1.85,9.75-1.85
			c4.16,0,7.71,0.67,10.64,2.02s4.87,3.04,5.83,5.08c0.95,2.04,1.43,5.52,1.43,10.42V266.61z"/>
		<path d="M255.52,259.07l-6.25,20.13l8.11,30.41h-14.79l-4.8-22.02l-0.02,22.02h-15.38v-61.65h15.38l0.02,25.88l4.8-14.76H255.52z"
			/>
		<path d="M273.95,247.95v8.04h-15.84v-8.04H273.95z M273.95,259.07v50.53h-15.84v-50.53H273.95z"/>
		<path d="M350.58,275.22h-13.63v-2.74c0-2.34-0.13-3.81-0.4-4.44c-0.27-0.62-0.93-0.93-2-0.93c-0.86,0-1.51,0.28-1.94,0.86
			c-0.43,0.57-0.65,1.43-0.65,2.57c0,1.55,0.11,2.68,0.32,3.41c0.22,0.72,0.86,1.52,1.94,2.38c1.08,0.86,3.29,2.12,6.65,3.77
			c4.47,2.18,7.4,4.24,8.8,6.17c1.4,1.93,2.09,4.73,2.09,8.42c0,4.11-0.53,7.22-1.6,9.31c-1.07,2.09-2.85,3.71-5.35,4.84
			c-2.5,1.13-5.52,1.7-9.04,1.7c-3.91,0-7.25-0.61-10.03-1.83c-2.78-1.22-4.69-2.87-5.73-4.95c-1.04-2.08-1.56-5.23-1.56-9.44v-2.44
			h13.63v3.2c0,2.72,0.17,4.48,0.51,5.29c0.34,0.81,1.02,1.22,2.04,1.22c1.09,0,1.85-0.27,2.28-0.82c0.43-0.55,0.65-1.69,0.65-3.45
			c0-2.41-0.28-3.92-0.84-4.53c-0.58-0.61-3.57-2.41-8.95-5.41c-4.52-2.54-7.27-4.84-8.26-6.91c-0.99-2.07-1.49-4.52-1.49-7.37
			c0-4.04,0.53-7.01,1.6-8.93c1.07-1.92,2.88-3.4,5.43-4.44s5.51-1.56,8.89-1.56c3.35,0,6.2,0.42,8.55,1.27
			c2.35,0.85,4.15,1.97,5.41,3.37c1.26,1.4,2.02,2.69,2.28,3.88c0.27,1.19,0.4,3.06,0.4,5.6V275.22z"/>
		<path d="M394.67,247.95l9.17,61.65h-16.38l-0.86-11.08h-5.73l-0.96,11.08h-16.58l8.18-61.65H394.67z M386.17,287.59
			c-0.81-6.98-1.63-15.61-2.44-25.9c-1.63,11.81-2.66,20.44-3.08,25.9H386.17z"/>
		<path d="M438.55,278.15h-14.51v-5.83c0-2.03-0.17-3.41-0.5-4.13c-0.33-0.72-0.94-1.08-1.83-1.08c-0.89,0-1.49,0.32-1.79,0.95
			c-0.3,0.64-0.46,2.06-0.46,4.27v23.84c0,1.8,0.23,3.15,0.69,4.05c0.46,0.9,1.13,1.35,2.02,1.35c1.04,0,1.75-0.47,2.11-1.41
			c0.37-0.94,0.55-2.72,0.55-5.33v-6.02h13.71c-0.03,4.04-0.17,7.06-0.44,9.08c-0.27,2.02-1.12,4.09-2.55,6.21
			c-1.43,2.12-3.31,3.72-5.62,4.8c-2.31,1.08-5.17,1.62-8.57,1.62c-4.34,0-7.78-0.74-10.32-2.23c-2.54-1.49-4.34-3.57-5.39-6.25
			c-1.05-2.68-1.58-6.48-1.58-11.4v-14.36c0-4.29,0.43-7.53,1.29-9.71c0.86-2.18,2.7-4.13,5.52-5.85c2.82-1.71,6.25-2.57,10.28-2.57
			c4.01,0,7.44,0.85,10.28,2.55c2.84,1.7,4.73,3.85,5.67,6.44C438.08,269.73,438.55,273.4,438.55,278.15z"/>
		<path d="M456.86,278.64h-14.43v-3.39c0-3.91,0.45-6.92,1.35-9.04c0.9-2.12,2.71-3.99,5.43-5.62c2.72-1.63,6.25-2.44,10.59-2.44
			c5.2,0,9.13,0.92,11.77,2.76c2.64,1.84,4.23,4.1,4.76,6.78c0.53,2.68,0.8,8.2,0.8,16.55v25.36h-14.97v-4.5
			c-0.94,1.81-2.15,3.16-3.64,4.06c-1.48,0.9-3.26,1.35-5.31,1.35c-2.69,0-5.16-0.76-7.41-2.27c-2.25-1.51-3.37-4.82-3.37-9.92
			v-4.15c0-3.78,0.6-6.36,1.79-7.73c1.19-1.37,4.15-2.97,8.87-4.8c5.05-1.98,7.75-3.31,8.11-4c0.35-0.69,0.53-2.08,0.53-4.19
			c0-2.64-0.2-4.36-0.59-5.16c-0.39-0.8-1.05-1.2-1.96-1.2c-1.04,0-1.69,0.34-1.94,1.01c-0.25,0.67-0.38,2.42-0.38,5.24V278.64z
			 M461.74,285.57c-2.46,1.8-3.89,3.31-4.28,4.53c-0.39,1.22-0.59,2.97-0.59,5.26c0,2.62,0.17,4.3,0.51,5.06
			c0.34,0.76,1.02,1.14,2.04,1.14c0.96,0,1.59-0.3,1.89-0.9c0.29-0.6,0.44-2.16,0.44-4.7V285.57z"/>
		<path d="M515.85,247.93v61.68h-15.38v-3.66c-1.47,1.53-3.02,2.67-4.65,3.43c-1.63,0.76-3.33,1.15-5.1,1.15
			c-2.39,0-4.46-0.63-6.21-1.89c-1.75-1.26-2.88-2.71-3.37-4.36c-0.5-1.65-0.74-4.34-0.74-8.07v-23.65c0-3.88,0.25-6.64,0.74-8.26
			c0.49-1.63,1.63-3.05,3.41-4.28c1.78-1.23,3.9-1.85,6.36-1.85c1.9,0,3.65,0.34,5.24,1.03c1.59,0.69,3.03,1.72,4.32,3.09v-14.49
			L515.85,247.93z M500.47,271.79c0-1.85-0.16-3.1-0.48-3.73c-0.32-0.64-0.95-0.95-1.88-0.95c-0.91,0-1.53,0.28-1.85,0.86
			c-0.32,0.57-0.48,1.85-0.48,3.83v24.75c0,2.06,0.15,3.41,0.46,4.05c0.3,0.65,0.89,0.97,1.75,0.97c0.99,0,1.65-0.36,1.98-1.09
			c0.33-0.72,0.5-2.49,0.5-5.31V271.79z"/>
		<path d="M554.66,285.23h-19.92v10.93c0,2.28,0.16,3.76,0.5,4.42c0.33,0.66,0.96,0.99,1.9,0.99c1.17,0,1.95-0.44,2.34-1.31
			c0.39-0.88,0.59-2.57,0.59-5.08v-6.66h14.59v3.73c0,3.12-0.2,5.52-0.59,7.2c-0.39,1.68-1.31,3.47-2.76,5.37s-3.28,3.33-5.5,4.28
			c-2.22,0.95-5.01,1.43-8.36,1.43c-3.25,0-6.12-0.47-8.61-1.41c-2.49-0.94-4.42-2.23-5.81-3.87c-1.38-1.64-2.34-3.44-2.87-5.41
			c-0.53-1.97-0.8-4.83-0.8-8.59v-14.74c0-4.42,0.6-7.9,1.79-10.45c1.19-2.55,3.15-4.51,5.86-5.86c2.72-1.36,5.84-2.04,9.37-2.04
			c4.32,0,7.88,0.82,10.68,2.46c2.8,1.64,4.77,3.81,5.9,6.51c1.13,2.7,1.7,6.51,1.7,11.41V285.23z M539.24,277.01v-3.69
			c0-2.62-0.14-4.3-0.42-5.06c-0.28-0.76-0.85-1.14-1.71-1.14c-1.07,0-1.73,0.32-1.98,0.97c-0.25,0.65-0.38,2.39-0.38,5.24v3.69
			H539.24z"/>
		<path d="M573.32,259.07l-0.27,4.81c1.19-1.91,2.61-3.34,4.27-4.29c1.65-0.95,3.53-1.43,5.64-1.43c4.11,0,7.35,1.91,9.71,5.72
			c1.29-1.91,2.75-3.34,4.38-4.29c1.62-0.95,3.43-1.43,5.41-1.43c2.61,0,4.78,0.64,6.49,1.9c1.72,1.27,2.81,2.82,3.29,4.66
			c0.48,1.84,0.72,4.83,0.72,8.97v35.91h-14.93v-32.94c0-4.32-0.15-6.99-0.44-8.02c-0.29-1.03-0.97-1.54-2.04-1.54
			c-1.09,0-1.8,0.51-2.11,1.52c-0.32,1.02-0.48,3.69-0.48,8.04v32.94h-14.93v-32.1c0-4.95-0.12-7.92-0.36-8.91
			c-0.24-0.99-0.91-1.49-2-1.49c-0.69,0-1.27,0.26-1.75,0.78c-0.48,0.52-0.75,1.16-0.8,1.9c-0.05,0.75-0.08,2.34-0.08,4.78v35.03
			h-14.93v-50.53H573.32z"/>
		<path d="M650.05,259.07l-4.4,36.8c-0.7,5.82-1.28,9.8-1.75,11.92c-0.47,2.12-1.25,3.87-2.34,5.25c-1.09,1.38-2.61,2.39-4.55,3.05
			s-5.04,0.98-9.31,0.98h-9.33v-8.13c2.39,0,3.93-0.12,4.62-0.36c0.69-0.24,1.03-0.79,1.03-1.63c0-0.41-0.32-2.18-0.95-5.33
			l-8.42-42.55h13.97l5.06,34.35l2.46-34.35H650.05z"/>
		<rect x="375.87" y="255.75" width="15.82" height="54.04"/>
		<g>
			<polygon class="st12" points="383.52,257.96 375.11,287.3 391.92,287.3 			"/>
			<path class="st13" d="M388.29,309.11c0.23,2.31-1.19,5.07-4.78,5.07s-4.95-3.07-4.78-5.07c0.08-0.95,0.92-18.5,0.92-18.5h7.47
				C387.12,290.61,388.17,307.9,388.29,309.11z"/>
		</g>
		<g>
			<path d="M186.69,351.03v-29.24h14.82c5.5,0,6.78,2.61,6.78,7.72c0,3.08-0.62,5.15-3.66,6.16v0.08c3.9,0.7,4.52,3.51,4.52,7.13
				c0,5.26-1.95,8.15-6.9,8.15H186.69z M190.01,334.54h9.63c3.98,0,5.34-0.9,5.34-5.46c0-3.94-1.52-4.37-4.99-4.37h-9.98V334.54z
				 M190.01,348.11h10.49c3.59,0,5.34-0.43,5.34-4.91c0-3.86-0.58-5.81-4.95-5.73h-10.88V348.11z"/>
			<path d="M243.07,321.79v21.05c0,7.84-4.68,8.42-11.58,8.42c-6.39,0-11.58-0.16-11.58-8.42v-21.05h3.31v21.05
				c0,4.76,1.13,5.5,8.27,5.5c5.89,0,8.27-0.04,8.27-5.5v-21.05H243.07z"/>
			<path d="M257.59,351.03h-3.31v-29.24h3.31V351.03z"/>
			<path d="M272.11,348.11H287v2.92H268.8v-29.24h3.31V348.11z"/>
			<path d="M296.81,321.79h14.23c3.55,0,10.02,0.47,10.02,11.27v6.98c0,2.89-0.47,10.99-9.24,10.99h-15.01V321.79z M311.04,348.11
				c5.85,0,6.63-3.43,6.71-8.66v-7.68c0-1.64-0.58-7.06-6.16-7.06h-11.46v23.39H311.04z"/>
			<path d="M334.98,351.03h-3.31v-29.24h3.31V351.03z"/>
			<path d="M371.28,351.03h-5.42l-16.41-26.51h-0.08v26.51h-3.31v-29.24h5.46l16.37,26.71h0.08v-26.71h3.31V351.03z"/>
			<path d="M405.93,336.41v6.35c0,6.86-3.08,8.5-9.71,8.5h-3.2c-7.8,0-11.23-1.44-11.23-10.49v-9.04c0-7.91,3.59-10.18,8.58-10.18
				h7.68c4.41,0,7.8,1.79,7.8,6.51v2.26h-3.31v-1.68c0-3.35-1.33-4.17-6.08-4.17h-4.09c-6.32,0-7.25,1.25-7.25,7.64v9.4
				c0,5.58,1.87,6.82,7.33,6.82h3.12c5.81,0,7.06-0.7,7.06-5.38v-3.63h-9.32v-2.92H405.93z"/>
			<path d="M440.18,334.93h14.23v2.73h-14.23v13.37h-3.31v-29.24h17.93v2.92h-14.62V334.93z"/>
			<path d="M488.06,321.79v21.05c0,7.84-4.68,8.42-11.58,8.42c-6.39,0-11.58-0.16-11.58-8.42v-21.05h3.31v21.05
				c0,4.76,1.13,5.5,8.27,5.5c5.89,0,8.26-0.04,8.26-5.5v-21.05H488.06z"/>
			<path d="M510.58,351.03h-3.31v-26.32h-9.47v-2.92h22.26v2.92h-9.47V351.03z"/>
			<path d="M552.96,321.79v21.05c0,7.84-4.68,8.42-11.58,8.42c-6.39,0-11.58-0.16-11.58-8.42v-21.05h3.31v21.05
				c0,4.76,1.13,5.5,8.27,5.5c5.89,0,8.27-0.04,8.27-5.5v-21.05H552.96z"/>
			<path d="M567.42,351.03h-3.31v-29.24h13.49c6.32,0,9.08,1.75,9.08,8.42c0,4.09-0.47,7.13-5.11,7.72v0.08
				c3.27,0.23,4.72,2.11,4.72,5.26v7.76h-3.31v-6.2c0-3.7-0.9-5.5-4.91-5.5h-10.64V351.03z M577.63,336.41
				c5.11-0.16,5.73-1.72,5.73-6.55c0-3.74-0.51-5.15-5.73-5.15h-10.21v11.7H577.63z"/>
			<path d="M600.08,334.66h14.81v2.73h-14.81v10.72h15.48v2.92h-18.79v-29.24h18.79v2.92h-15.48V334.66z"/>
			<path d="M624.97,330.06c0-7.8,3.59-8.5,10.8-8.5c6.32,0,10.88,0.27,10.53,8.23h-3.31c-0.16-5.11-1.13-5.3-7.33-5.3
				c-6.47,0-7.37,0.82-7.37,4.87c0,5.58,2.65,5.11,8.11,5.26c6.94,0.39,10.45,0.19,10.45,8.11c0,8.27-3.9,8.54-11.27,8.54
				c-7.45,0-11.31-0.9-10.68-9.36h3.31c-0.08,6.43,1.17,6.43,7.37,6.43c6.24,0,7.95,0,7.95-5.73c0-5.58-2.5-4.64-7.84-5.07
				C629.93,337.08,624.97,337.78,624.97,330.06z"/>
		</g>
		<g>
			<path class="st14" d="M315.71,247.78v61.65h-15.84v-61.65H315.71z"/>
		</g>
	</g>
</g>
</svg>
