<?xml version="1.0" encoding="UTF-8"?>
<svg width="509px" height="173px" viewBox="0 0 509 173" version="1.1" xmlns="http://www.w3.org/2000/svg" xmlns:xlink="http://www.w3.org/1999/xlink">
    <title>Skills Academy Master Logo</title>
    <g id="Page-1" stroke="none" stroke-width="1" fill="none" fill-rule="evenodd">
        <g id="Skills-Academy-Master-Logo" transform="translate(7.000000, 8.000000)">
            <g id="Halo">
                <g id="Group">
                    <rect id="Rectangle" fill="#FFFFFF" fill-rule="nonzero" x="183.34" y="34.05" width="10.84" height="20.96"></rect>
                    <g>
                        <g transform="translate(106.000000, 1.000000)">
                            <path d="M21.8,42.39 C21.87,42.44 21.83,42.61 21.78,42.64 C21.72,42.59 21.82,42.48 21.8,42.39 M21.58,42.53 C21.54,42.62 21.49,42.6 21.39,42.59 C21.41,42.5 21.41,42.54 21.38,42.45 C21.5,42.42 21.54,42.48 21.58,42.53 M7.02,28.79 C7.19,29.82 6.48,30.9 6.39,32.06 C6.34,32.7 6.3,33.33 6.09,33.82 C5.96,34.14 5.78,34.38 5.69,34.83 C5.65,35.02 5.56,35.23 5.54,35.39 C5.52,35.55 5.57,35.68 5.56,35.81 C5.54,35.99 5.41,36.16 5.41,36.34 C5.42,36.52 5.54,36.62 5.56,36.76 C5.68,37.34 5.38,37.58 5.16,37.93 C5.2,38.14 5.45,38.13 5.53,38.29 C5.51,38.47 5.41,38.59 5.38,38.77 C5.01,38.37 4.92,37.77 4.83,37.23 C4.73,36.61 4.72,35.92 4.73,35.27 C4.75,34.04 4.94,32.76 4.96,31.55 C4.99,28.9 5.36,26.6 5.92,24.5 C6.11,25.43 6.64,26.17 6.76,27.05 C6.8,27.36 6.67,27.62 6.71,27.92 C6.75,28.22 6.97,28.5 7.02,28.79 M23.26,41.68 C23.31,41.22 23.01,40.62 22.95,40.03 C22.92,39.76 22.95,39.49 22.92,39.25 C22.89,38.94 22.75,38.65 22.72,38.38 C22.69,38.1 22.74,37.82 22.69,37.54 C22.49,36.4 22.31,35.25 22.18,34.07 C22.05,32.89 21.98,31.68 21.77,30.49 C21.58,29.38 21.18,28.35 21.02,27.27 C20.74,25.44 20.74,23.4 20.82,21.67 C21.03,21.49 21.49,21.46 21.55,21.19 C21.6,20.93 21.25,20.28 21.21,20.07 C21,19.06 21.1,17.97 20.75,17.13 C20.65,16.9 20.42,16.68 20.23,16.46 C20.05,16.24 19.83,15.95 19.63,15.84 C19.04,15.53 18.3,15.36 17.67,15.17 C17,14.96 16.38,14.72 15.96,14.25 C15.79,14.06 15.73,13.78 15.5,13.69 C15.42,13.38 15.35,13.25 15.17,13.05 C15.15,12.53 15.18,12.07 15.14,11.54 C16.01,11.37 16.22,11.2 16.42,10.39 C16.54,9.9 16.76,9.43 16.78,8.85 C16.79,8.44 16.84,8.05 16.82,7.76 C16.79,6.99 16.12,6.56 16.07,6.03 C16.05,5.77 16.19,5.51 16.15,5.3 C16.13,5.18 16,5.1 15.89,4.94 C15.8,4.81 15.72,4.64 15.65,4.52 C15.4,4.09 15.11,3.75 15.28,3.32 C15.15,3.05 14.99,2.81 14.87,2.54 C14.6,2.52 14.38,2.17 14.05,2.06 C13.88,2 13.67,2.02 13.5,1.95 C13.3,1.87 13.14,1.75 12.97,1.73 C12.57,1.68 12.17,1.76 11.84,1.81 C11.61,1.85 11.4,1.96 11.16,2.01 C11.03,2.03 10.9,2.01 10.77,2.04 C10.38,2.13 10,2.37 9.69,2.6 C9.39,2.82 8.93,3.07 8.78,3.35 C8.54,3.78 8.35,4.48 8.32,5.03 C8.31,5.19 8.32,5.42 8.34,5.62 C8.49,6.77 8.94,8.17 9.4,8.95 C9.69,9.45 10.23,9.74 10.44,10.32 C10.5,10.49 10.51,10.69 10.6,10.88 C10.62,10.99 10.76,10.96 10.8,11.05 C10.85,11.61 10.7,11.98 10.51,12.31 C10.28,12.28 10.06,12.42 10.09,12.73 C9.95,12.65 9.84,12.64 9.67,12.67 C9.5,12.78 9.63,12.98 9.52,13.09 C9.38,13.23 9.14,13.17 8.81,13.17 C8.49,13.46 8.22,13.59 7.87,13.81 C7.69,13.92 7.55,14.07 7.38,14.12 C6.84,14.27 6.16,14.4 5.66,14.54 C5.47,14.6 5.24,14.59 5.06,14.65 C4.69,14.78 4.42,15.18 4.18,15.52 C3.95,15.84 3.68,16.11 3.55,16.44 C3.24,17.22 3.04,18.22 2.82,19.15 C2.74,19.48 2.58,19.87 2.58,20.07 C2.58,20.18 2.66,20.3 2.67,20.41 C2.73,21.05 2.6,21.82 2.53,22.54 C2.31,24.68 2.32,26.9 2.1,28.97 C1.86,31.16 2.21,33.52 2.53,35.54 C2.65,36.31 2.58,37.06 2.67,37.81 C2.69,38.04 2.84,38.27 2.86,38.51 C2.93,39.34 2.46,40.1 2.48,41.03 C2.48,41.18 2.53,41.35 2.55,41.53 C2.59,41.91 2.51,42.38 2.65,42.68 C2.7,42.8 2.89,42.89 2.99,43.02 C3.15,43.24 3.29,43.52 3.48,43.75 C3.56,43.85 3.69,43.93 3.79,44.03 C3.9,44.14 3.99,44.29 4.08,44.37 C4.26,44.54 4.57,44.65 4.62,44.82 C4.7,45.09 4.54,45.46 4.54,45.74 C4.54,45.91 4.58,46.07 4.59,46.24 C4.61,47.75 4.21,49.42 4.43,50.97 C4.47,51.22 4.58,51.51 4.54,51.78 C4.46,52.27 3.86,52.62 4.01,53.26 C3.69,53.85 3.52,54.17 3.5,55 C3.48,55.5 3.5,55.87 3.47,56.43 C3.44,56.93 3.28,57.5 3.17,58.05 C2.95,59.15 2.95,60.34 2.77,61.49 C2.43,63.72 2,65.98 1.8,68.23 C1.75,68.85 1.8,69.49 1.7,70.08 C1.67,70.26 1.53,70.49 1.56,70.67 C1.61,71.03 1.99,71.15 2.14,71.45 C2.03,71.75 1.95,72.07 1.87,72.4 C1.26,73.23 0.47,74.03 0.4,75.31 C1.28,75.38 2.75,75.62 3.88,75.53 C4.17,75.51 4.82,75.42 4.89,75.14 C4.94,74.93 4.72,74.73 4.76,74.52 C5.39,74.41 6.51,74.49 6.67,73.99 C6.83,73.5 6.31,72.73 6.36,72.28 C6.4,71.96 6.7,71.94 6.78,71.69 C6.87,71.39 6.73,71 6.74,70.6 C6.75,70.24 6.82,69.83 6.87,69.48 C6.95,68.86 7.17,68.26 7.27,67.63 C7.38,66.95 7.38,66.26 7.44,65.53 C7.47,65.23 7.57,64.9 7.63,64.58 C7.89,62.96 8.3,61.47 8.62,59.88 C8.75,59.24 8.79,58.53 8.99,57.95 C9.1,57.63 9.33,57.35 9.45,57.05 C9.75,56.37 10,55.77 10.15,55.04 C10.23,54.67 10.38,54.31 10.44,53.95 C10.61,52.97 10.46,51.99 10.67,51.04 C10.74,50.7 10.88,50.39 10.94,50.03 C10.99,49.65 10.97,49.24 11.03,48.85 C11.06,48.65 11.17,48.44 11.23,48.24 C11.29,48.02 11.31,47.76 11.37,47.54 C11.44,47.3 11.59,47.06 11.67,46.81 C11.94,46.01 12.18,45.25 12.58,44.63 C12.85,45.91 12.31,47.19 12.51,48.63 C12.54,48.87 12.65,49.09 12.67,49.33 C12.78,50.35 12.6,51.55 12.59,52.46 C12.59,52.8 12.65,53.15 12.66,53.49 C12.67,53.9 12.61,54.32 12.59,54.75 C12.58,55.19 12.63,55.66 12.58,56.06 C12.53,56.51 12.37,56.95 12.32,57.4 C12.22,58.39 12.15,59.4 12.12,60.39 C12.11,60.93 12.17,61.48 12.12,62.01 C12.07,62.63 11.83,63.24 11.72,63.89 C11.45,65.51 11.32,67.32 11.22,69.07 C11.2,69.44 11.22,69.84 11.18,70.19 C11.17,70.3 11.08,70.44 11.08,70.55 C11.09,70.71 11.2,70.69 11.17,70.83 C11.11,71.05 11.07,71.43 11.15,71.7 C11.05,71.91 11.02,72.18 10.96,72.45 C10.9,72.73 10.76,73.06 10.82,73.29 C10.91,73.58 11.48,73.72 11.8,73.77 C12.26,73.83 12.71,73.82 13.08,73.94 C12.8,74.66 13.35,74.82 13.86,74.98 C14.9,75.29 16.59,75.1 17.44,74.92 C17.53,74.55 17.34,74.25 17.27,74.02 C17.23,73.9 17.25,73.79 17.2,73.68 C16.88,72.85 15.9,72.49 15.8,71.44 C15.94,71.38 16.17,71.41 16.32,71.36 C16.39,70.7 16.13,69.97 16.16,69.26 C16.18,68.85 16.33,68.4 16.42,67.97 C16.5,67.54 16.64,67.11 16.7,66.68 C16.84,65.73 16.88,64.82 16.92,63.77 C16.96,62.92 17.07,61.94 17.15,60.97 C17.23,60.01 17.28,59.01 17.49,58.26 C17.63,57.76 17.96,57.18 18.2,56.64 C18.45,56.1 18.84,55.46 18.91,54.96 C19.08,53.72 19.1,52.44 19.19,51.18 C19.28,49.95 19.38,48.71 19.52,47.46 C19.59,46.87 19.62,46.25 19.76,45.67 C19.89,45.11 20.01,44.54 20.08,43.96 C20.32,42.04 20.77,39.92 20.46,37.64 C20.42,37.37 20.32,37.07 20.32,36.8 C20.32,36.69 20.39,36.64 20.39,36.55 C20.4,36.42 20.26,36.33 20.32,36.16 C20.45,36.98 21.22,37.68 21.02,38.68 C20.98,38.87 20.86,39.01 20.82,39.18 C20.75,39.45 20.7,39.76 20.74,40.07 C20.77,40.29 20.92,40.5 20.96,40.71 C21.06,41.32 20.64,42.34 21.2,42.67 C21.3,42.73 21.5,42.72 21.62,42.73 C21.52,43.17 20.81,43.13 20.97,43.74 C20.59,43.73 20.4,44.31 20.67,44.61 C21.02,44.64 21.07,44.41 21.41,44.5 C21.72,44.29 22.01,43.99 22.29,43.77 C22.41,43.68 22.54,43.65 22.61,43.55 C22.84,43.23 22.82,42.75 22.95,42.26 C23.04,42.1 23.24,41.89 23.26,41.68" id="Shape" stroke="#FFFFFF" stroke-width="15" fill="#FFFFFF" fill-rule="nonzero" stroke-linecap="round" stroke-linejoin="round"></path>
                            <g transform="translate(0.000000, 1.000000)">
                                <g id="SVGID_1_-link" fill="#FFFFFF" fill-rule="nonzero">
                                    <path d="M21.58,41.52 C21.55,41.57 21.53,41.59 21.49,41.59 C21.46,41.59 21.43,41.58 21.39,41.58 C21.41,41.49 21.41,41.53 21.38,41.44 C21.5,41.42 21.54,41.48 21.58,41.52 M21.8,41.39 C21.87,41.44 21.83,41.61 21.78,41.64 C21.72,41.59 21.82,41.48 21.8,41.39 M5.54,37.3 C5.51,37.48 5.42,37.6 5.39,37.78 C5.02,37.38 4.93,36.78 4.84,36.24 C4.74,35.62 4.73,34.93 4.74,34.28 C4.76,33.05 4.95,31.77 4.97,30.56 C5,27.91 5.37,25.61 5.93,23.51 C6.12,24.44 6.65,25.18 6.77,26.06 C6.81,26.37 6.68,26.63 6.72,26.93 C6.76,27.23 6.98,27.51 7.03,27.8 C7.2,28.84 6.49,29.91 6.4,31.07 C6.35,31.71 6.31,32.34 6.1,32.83 C5.97,33.15 5.79,33.39 5.7,33.84 C5.66,34.03 5.57,34.24 5.55,34.4 C5.53,34.56 5.58,34.69 5.56,34.82 C5.54,35 5.41,35.17 5.41,35.35 C5.42,35.53 5.53,35.63 5.56,35.77 C5.68,36.35 5.38,36.58 5.16,36.95 C5.22,37.14 5.46,37.14 5.54,37.3 M12.97,0.74 C12.88,0.73 12.79,0.72 12.7,0.72 C12.39,0.72 12.09,0.78 11.84,0.82 C11.61,0.86 11.4,0.97 11.16,1.02 C11.03,1.04 10.9,1.02 10.78,1.05 C10.39,1.14 10.01,1.38 9.7,1.61 C9.4,1.83 8.94,2.09 8.79,2.37 C8.55,2.8 8.36,3.5 8.33,4.05 C8.32,4.21 8.33,4.44 8.35,4.64 C8.5,5.79 8.95,7.19 9.41,7.97 C9.7,8.46 10.24,8.76 10.45,9.34 C10.51,9.51 10.52,9.7 10.61,9.9 C10.63,10.01 10.77,9.98 10.81,10.07 C10.86,10.63 10.71,11 10.52,11.33 C10.28,11.3 10.07,11.44 10.1,11.75 C9.96,11.67 9.85,11.66 9.68,11.69 C9.51,11.8 9.64,12 9.53,12.11 C9.42,12.22 9.26,12.21 9.05,12.2 C8.98,12.2 8.9,12.19 8.82,12.19 C8.5,12.48 8.23,12.61 7.88,12.83 C7.7,12.94 7.57,13.09 7.39,13.14 C6.85,13.29 6.17,13.42 5.67,13.56 C5.48,13.61 5.25,13.61 5.07,13.67 C4.7,13.8 4.43,14.2 4.19,14.54 C3.96,14.86 3.69,15.13 3.56,15.46 C3.26,16.25 3.06,17.24 2.83,18.17 C2.75,18.5 2.58,18.89 2.59,19.09 C2.59,19.2 2.67,19.32 2.68,19.43 C2.74,20.07 2.61,20.84 2.54,21.56 C2.32,23.7 2.33,25.93 2.11,27.99 C1.87,30.18 2.22,32.54 2.54,34.56 C2.66,35.32 2.6,36.08 2.68,36.82 C2.7,37.05 2.85,37.28 2.87,37.52 C2.94,38.35 2.47,39.11 2.49,40.04 C2.49,40.19 2.54,40.36 2.56,40.54 C2.6,40.92 2.52,41.39 2.66,41.69 C2.71,41.81 2.9,41.9 3,42.03 C3.16,42.25 3.3,42.53 3.49,42.76 C3.58,42.86 3.71,42.94 3.8,43.04 C3.91,43.15 4,43.3 4.09,43.38 C4.27,43.55 4.58,43.66 4.63,43.83 C4.71,44.1 4.55,44.47 4.55,44.75 C4.55,44.91 4.59,45.08 4.6,45.25 C4.62,46.76 4.22,48.43 4.44,49.98 C4.47,50.23 4.59,50.52 4.55,50.79 C4.47,51.28 3.87,51.63 4.02,52.27 C3.7,52.86 3.53,53.18 3.51,54.01 C3.49,54.51 3.51,54.88 3.48,55.44 C3.45,55.94 3.29,56.51 3.18,57.06 C2.96,58.16 2.96,59.35 2.78,60.5 C2.44,62.73 2.01,64.99 1.81,67.24 C1.75,67.86 1.81,68.5 1.71,69.09 C1.68,69.27 1.54,69.5 1.56,69.68 C1.61,70.04 1.99,70.16 2.14,70.46 C2.03,70.76 1.95,71.08 1.87,71.41 C1.26,72.24 0.47,73.04 0.4,74.32 C1.28,74.39 2.75,74.63 3.88,74.54 C4.17,74.52 4.82,74.43 4.89,74.15 C4.94,73.94 4.72,73.74 4.76,73.54 C5.39,73.43 6.51,73.51 6.67,73.01 C6.83,72.52 6.31,71.75 6.36,71.3 C6.4,70.98 6.71,70.96 6.78,70.71 C6.87,70.41 6.73,70.02 6.74,69.62 C6.76,69.26 6.82,68.85 6.87,68.5 C6.95,67.88 7.17,67.28 7.27,66.65 C7.38,65.97 7.38,65.28 7.44,64.55 C7.47,64.25 7.57,63.92 7.63,63.6 C7.9,61.98 8.3,60.49 8.62,58.9 C8.75,58.26 8.8,57.55 8.99,56.97 C9.1,56.65 9.33,56.37 9.46,56.08 C9.75,55.4 10,54.8 10.16,54.07 C10.24,53.7 10.39,53.34 10.45,52.98 C10.61,52 10.47,51.02 10.68,50.07 C10.76,49.73 10.89,49.42 10.95,49.06 C11,48.68 10.98,48.27 11.04,47.88 C11.07,47.68 11.18,47.47 11.24,47.26 C11.3,47.04 11.32,46.78 11.38,46.56 C11.45,46.32 11.6,46.08 11.69,45.83 C11.96,45.04 12.2,44.27 12.6,43.65 C12.87,44.93 12.33,46.21 12.53,47.65 C12.56,47.89 12.67,48.11 12.69,48.35 C12.8,49.37 12.62,50.57 12.61,51.48 C12.61,51.82 12.67,52.17 12.67,52.52 C12.68,52.93 12.62,53.35 12.6,53.78 C12.59,54.22 12.64,54.69 12.59,55.09 C12.54,55.55 12.38,55.98 12.33,56.43 C12.23,57.42 12.16,58.43 12.13,59.42 C12.12,59.96 12.18,60.51 12.13,61.04 C12.08,61.66 11.84,62.28 11.73,62.92 C11.46,64.54 11.33,66.35 11.23,68.09 C11.21,68.46 11.23,68.86 11.19,69.21 C11.18,69.32 11.09,69.46 11.09,69.57 C11.1,69.73 11.21,69.71 11.18,69.85 C11.12,70.07 11.08,70.45 11.16,70.72 C11.06,70.93 11.03,71.2 10.97,71.48 C10.91,71.75 10.77,72.09 10.83,72.32 C10.92,72.61 11.49,72.75 11.81,72.8 C12.28,72.86 12.72,72.85 13.09,72.97 C12.81,73.69 13.35,73.85 13.87,74.01 C14.92,74.32 16.6,74.13 17.45,73.95 C17.54,73.58 17.35,73.28 17.28,73.05 C17.24,72.93 17.25,72.82 17.21,72.71 C16.89,71.87 15.91,71.52 15.81,70.47 C15.95,70.41 16.18,70.44 16.33,70.39 C16.4,69.73 16.14,69 16.17,68.29 C16.19,67.88 16.34,67.43 16.43,67 C16.51,66.57 16.65,66.14 16.71,65.71 C16.85,64.75 16.89,63.85 16.93,62.8 C16.97,61.95 17.08,60.97 17.16,60 C17.24,59.04 17.29,58.04 17.5,57.29 C17.64,56.79 17.97,56.21 18.21,55.67 C18.46,55.13 18.85,54.49 18.92,53.99 C19.09,52.75 19.1,51.47 19.2,50.21 C19.29,48.98 19.39,47.74 19.53,46.49 C19.6,45.9 19.63,45.28 19.77,44.7 C19.9,44.14 20.02,43.57 20.1,42.99 C20.34,41.07 20.79,38.95 20.48,36.67 C20.44,36.4 20.34,36.1 20.34,35.83 C20.34,35.72 20.41,35.67 20.42,35.58 C20.43,35.45 20.29,35.36 20.35,35.19 C20.48,36.01 21.25,36.71 21.05,37.71 C21.01,37.9 20.89,38.04 20.85,38.21 C20.78,38.48 20.73,38.79 20.77,39.11 C20.8,39.33 20.95,39.54 20.99,39.75 C21.09,40.36 20.67,41.38 21.23,41.71 C21.33,41.77 21.53,41.76 21.65,41.77 C21.55,42.21 20.84,42.17 21,42.78 C20.62,42.77 20.43,43.35 20.7,43.65 C20.86,43.67 20.95,43.63 21.05,43.59 C21.16,43.54 21.26,43.49 21.45,43.54 C21.76,43.33 22.05,43.03 22.33,42.81 C22.45,42.72 22.58,42.68 22.65,42.58 C22.88,42.26 22.86,41.78 22.99,41.29 C23.04,41.09 23.25,40.88 23.27,40.67 C23.32,40.21 23.02,39.61 22.96,39.02 C22.93,38.75 22.96,38.48 22.93,38.24 C22.89,37.93 22.76,37.64 22.73,37.37 C22.7,37.09 22.75,36.81 22.7,36.53 C22.5,35.39 22.32,34.24 22.19,33.06 C22.06,31.88 21.99,30.67 21.78,29.48 C21.59,28.37 21.19,27.34 21.03,26.26 C20.75,24.43 20.75,22.39 20.83,20.66 C21.04,20.48 21.5,20.45 21.56,20.18 C21.61,19.92 21.26,19.27 21.22,19.06 C21.01,18.05 21.11,16.96 20.76,16.12 C20.66,15.89 20.43,15.67 20.24,15.45 C20.06,15.23 19.84,14.94 19.64,14.83 C19.05,14.52 18.31,14.35 17.68,14.16 C17.01,13.95 16.39,13.71 15.96,13.24 C15.79,13.05 15.73,12.77 15.5,12.68 C15.42,12.37 15.35,12.24 15.17,12.04 C15.15,11.52 15.18,11.06 15.14,10.53 C16.01,10.36 16.22,10.19 16.42,9.38 C16.54,8.89 16.76,8.42 16.78,7.84 C16.79,7.43 16.83,7.04 16.82,6.75 C16.79,5.98 16.12,5.55 16.07,5.01 C16.05,4.75 16.19,4.49 16.15,4.28 C16.13,4.16 16,4.08 15.89,3.92 C15.8,3.79 15.72,3.62 15.65,3.5 C15.4,3.07 15.11,2.73 15.27,2.3 C15.14,2.03 14.98,1.79 14.86,1.52 C14.59,1.5 14.37,1.15 14.04,1.04 C13.87,0.98 13.66,1 13.48,0.93 C13.3,0.88 13.14,0.76 12.97,0.74" id="SVGID_1_"></path>
                                </g>
                                <path d="M15.71,11.3 C15.71,11.3 16.01,12.75 15.41,13.76 C14.81,14.78 13.16,17.53 13.16,17.53 C13.16,17.53 11.66,14.28 11.06,13.33 C10.46,12.38 9.56,10.51 9.56,10.51 L5.96,12.75 L4.61,13.47 C4.61,13.47 5.96,13.91 6.11,16.08 C6.26,18.25 5.81,19.64 5.81,21.01 C5.81,22.37 6.11,23.72 6.11,23.72 L5.21,36.51 C5.21,36.51 6.41,37.47 7.91,37.47 L11.83,37.47 C13.16,37.47 13.75,35.93 13.75,35.93 C13.75,35.93 13.68,37.15 14.35,37.47 C15.4,37.98 15.92,37.98 17.05,37.98 C18.18,37.98 20.05,37.47 20.05,37.47 C20.05,37.47 18.8,30.86 18.85,29.55 C19,25.64 19.9,23.17 19.6,21.44 C19.41,20.36 19.15,19.34 19.15,18.11 C19.15,17.1 20.05,14.05 20.05,14.05 L15.71,11.3 Z" id="Path" stroke="#FFFFFF" stroke-width="15" fill="#FFFFFF" fill-rule="nonzero" stroke-linecap="round" stroke-linejoin="round"></path>
                                <g id="SVGID_1_-link" stroke-linecap="round" stroke-linejoin="round" stroke="#FFFFFF" stroke-width="15">
                                    <path d="M21.58,41.52 C21.55,41.57 21.53,41.59 21.49,41.59 C21.46,41.59 21.43,41.58 21.39,41.58 C21.41,41.49 21.41,41.53 21.38,41.44 C21.5,41.42 21.54,41.48 21.58,41.52 M21.8,41.39 C21.87,41.44 21.83,41.61 21.78,41.64 C21.72,41.59 21.82,41.48 21.8,41.39 M5.54,37.3 C5.51,37.48 5.42,37.6 5.39,37.78 C5.02,37.38 4.93,36.78 4.84,36.24 C4.74,35.62 4.73,34.93 4.74,34.28 C4.76,33.05 4.95,31.77 4.97,30.56 C5,27.91 5.37,25.61 5.93,23.51 C6.12,24.44 6.65,25.18 6.77,26.06 C6.81,26.37 6.68,26.63 6.72,26.93 C6.76,27.23 6.98,27.51 7.03,27.8 C7.2,28.84 6.49,29.91 6.4,31.07 C6.35,31.71 6.31,32.34 6.1,32.83 C5.97,33.15 5.79,33.39 5.7,33.84 C5.66,34.03 5.57,34.24 5.55,34.4 C5.53,34.56 5.58,34.69 5.56,34.82 C5.54,35 5.41,35.17 5.41,35.35 C5.42,35.53 5.53,35.63 5.56,35.77 C5.68,36.35 5.38,36.58 5.16,36.95 C5.22,37.14 5.46,37.14 5.54,37.3 M12.97,0.74 C12.88,0.73 12.79,0.72 12.7,0.72 C12.39,0.72 12.09,0.78 11.84,0.82 C11.61,0.86 11.4,0.97 11.16,1.02 C11.03,1.04 10.9,1.02 10.78,1.05 C10.39,1.14 10.01,1.38 9.7,1.61 C9.4,1.83 8.94,2.09 8.79,2.37 C8.55,2.8 8.36,3.5 8.33,4.05 C8.32,4.21 8.33,4.44 8.35,4.64 C8.5,5.79 8.95,7.19 9.41,7.97 C9.7,8.46 10.24,8.76 10.45,9.34 C10.51,9.51 10.52,9.7 10.61,9.9 C10.63,10.01 10.77,9.98 10.81,10.07 C10.86,10.63 10.71,11 10.52,11.33 C10.28,11.3 10.07,11.44 10.1,11.75 C9.96,11.67 9.85,11.66 9.68,11.69 C9.51,11.8 9.64,12 9.53,12.11 C9.42,12.22 9.26,12.21 9.05,12.2 C8.98,12.2 8.9,12.19 8.82,12.19 C8.5,12.48 8.23,12.61 7.88,12.83 C7.7,12.94 7.57,13.09 7.39,13.14 C6.85,13.29 6.17,13.42 5.67,13.56 C5.48,13.61 5.25,13.61 5.07,13.67 C4.7,13.8 4.43,14.2 4.19,14.54 C3.96,14.86 3.69,15.13 3.56,15.46 C3.26,16.25 3.06,17.24 2.83,18.17 C2.75,18.5 2.58,18.89 2.59,19.09 C2.59,19.2 2.67,19.32 2.68,19.43 C2.74,20.07 2.61,20.84 2.54,21.56 C2.32,23.7 2.33,25.93 2.11,27.99 C1.87,30.18 2.22,32.54 2.54,34.56 C2.66,35.32 2.6,36.08 2.68,36.82 C2.7,37.05 2.85,37.28 2.87,37.52 C2.94,38.35 2.47,39.11 2.49,40.04 C2.49,40.19 2.54,40.36 2.56,40.54 C2.6,40.92 2.52,41.39 2.66,41.69 C2.71,41.81 2.9,41.9 3,42.03 C3.16,42.25 3.3,42.53 3.49,42.76 C3.58,42.86 3.71,42.94 3.8,43.04 C3.91,43.15 4,43.3 4.09,43.38 C4.27,43.55 4.58,43.66 4.63,43.83 C4.71,44.1 4.55,44.47 4.55,44.75 C4.55,44.91 4.59,45.08 4.6,45.25 C4.62,46.76 4.22,48.43 4.44,49.98 C4.47,50.23 4.59,50.52 4.55,50.79 C4.47,51.28 3.87,51.63 4.02,52.27 C3.7,52.86 3.53,53.18 3.51,54.01 C3.49,54.51 3.51,54.88 3.48,55.44 C3.45,55.94 3.29,56.51 3.18,57.06 C2.96,58.16 2.96,59.35 2.78,60.5 C2.44,62.73 2.01,64.99 1.81,67.24 C1.75,67.86 1.81,68.5 1.71,69.09 C1.68,69.27 1.54,69.5 1.56,69.68 C1.61,70.04 1.99,70.16 2.14,70.46 C2.03,70.76 1.95,71.08 1.87,71.41 C1.26,72.24 0.47,73.04 0.4,74.32 C1.28,74.39 2.75,74.63 3.88,74.54 C4.17,74.52 4.82,74.43 4.89,74.15 C4.94,73.94 4.72,73.74 4.76,73.54 C5.39,73.43 6.51,73.51 6.67,73.01 C6.83,72.52 6.31,71.75 6.36,71.3 C6.4,70.98 6.71,70.96 6.78,70.71 C6.87,70.41 6.73,70.02 6.74,69.62 C6.76,69.26 6.82,68.85 6.87,68.5 C6.95,67.88 7.17,67.28 7.27,66.65 C7.38,65.97 7.38,65.28 7.44,64.55 C7.47,64.25 7.57,63.92 7.63,63.6 C7.9,61.98 8.3,60.49 8.62,58.9 C8.75,58.26 8.8,57.55 8.99,56.97 C9.1,56.65 9.33,56.37 9.46,56.08 C9.75,55.4 10,54.8 10.16,54.07 C10.24,53.7 10.39,53.34 10.45,52.98 C10.61,52 10.47,51.02 10.68,50.07 C10.76,49.73 10.89,49.42 10.95,49.06 C11,48.68 10.98,48.27 11.04,47.88 C11.07,47.68 11.18,47.47 11.24,47.26 C11.3,47.04 11.32,46.78 11.38,46.56 C11.45,46.32 11.6,46.08 11.69,45.83 C11.96,45.04 12.2,44.27 12.6,43.65 C12.87,44.93 12.33,46.21 12.53,47.65 C12.56,47.89 12.67,48.11 12.69,48.35 C12.8,49.37 12.62,50.57 12.61,51.48 C12.61,51.82 12.67,52.17 12.67,52.52 C12.68,52.93 12.62,53.35 12.6,53.78 C12.59,54.22 12.64,54.69 12.59,55.09 C12.54,55.55 12.38,55.98 12.33,56.43 C12.23,57.42 12.16,58.43 12.13,59.42 C12.12,59.96 12.18,60.51 12.13,61.04 C12.08,61.66 11.84,62.28 11.73,62.92 C11.46,64.54 11.33,66.35 11.23,68.09 C11.21,68.46 11.23,68.86 11.19,69.21 C11.18,69.32 11.09,69.46 11.09,69.57 C11.1,69.73 11.21,69.71 11.18,69.85 C11.12,70.07 11.08,70.45 11.16,70.72 C11.06,70.93 11.03,71.2 10.97,71.48 C10.91,71.75 10.77,72.09 10.83,72.32 C10.92,72.61 11.49,72.75 11.81,72.8 C12.28,72.86 12.72,72.85 13.09,72.97 C12.81,73.69 13.35,73.85 13.87,74.01 C14.92,74.32 16.6,74.13 17.45,73.95 C17.54,73.58 17.35,73.28 17.28,73.05 C17.24,72.93 17.25,72.82 17.21,72.71 C16.89,71.87 15.91,71.52 15.81,70.47 C15.95,70.41 16.18,70.44 16.33,70.39 C16.4,69.73 16.14,69 16.17,68.29 C16.19,67.88 16.34,67.43 16.43,67 C16.51,66.57 16.65,66.14 16.71,65.71 C16.85,64.75 16.89,63.85 16.93,62.8 C16.97,61.95 17.08,60.97 17.16,60 C17.24,59.04 17.29,58.04 17.5,57.29 C17.64,56.79 17.97,56.21 18.21,55.67 C18.46,55.13 18.85,54.49 18.92,53.99 C19.09,52.75 19.1,51.47 19.2,50.21 C19.29,48.98 19.39,47.74 19.53,46.49 C19.6,45.9 19.63,45.28 19.77,44.7 C19.9,44.14 20.02,43.57 20.1,42.99 C20.34,41.07 20.79,38.95 20.48,36.67 C20.44,36.4 20.34,36.1 20.34,35.83 C20.34,35.72 20.41,35.67 20.42,35.58 C20.43,35.45 20.29,35.36 20.35,35.19 C20.48,36.01 21.25,36.71 21.05,37.71 C21.01,37.9 20.89,38.04 20.85,38.21 C20.78,38.48 20.73,38.79 20.77,39.11 C20.8,39.33 20.95,39.54 20.99,39.75 C21.09,40.36 20.67,41.38 21.23,41.71 C21.33,41.77 21.53,41.76 21.65,41.77 C21.55,42.21 20.84,42.17 21,42.78 C20.62,42.77 20.43,43.35 20.7,43.65 C20.86,43.67 20.95,43.63 21.05,43.59 C21.16,43.54 21.26,43.49 21.45,43.54 C21.76,43.33 22.05,43.03 22.33,42.81 C22.45,42.72 22.58,42.68 22.65,42.58 C22.88,42.26 22.86,41.78 22.99,41.29 C23.04,41.09 23.25,40.88 23.27,40.67 C23.32,40.21 23.02,39.61 22.96,39.02 C22.93,38.75 22.96,38.48 22.93,38.24 C22.89,37.93 22.76,37.64 22.73,37.37 C22.7,37.09 22.75,36.81 22.7,36.53 C22.5,35.39 22.32,34.24 22.19,33.06 C22.06,31.88 21.99,30.67 21.78,29.48 C21.59,28.37 21.19,27.34 21.03,26.26 C20.75,24.43 20.75,22.39 20.83,20.66 C21.04,20.48 21.5,20.45 21.56,20.18 C21.61,19.92 21.26,19.27 21.22,19.06 C21.01,18.05 21.11,16.96 20.76,16.12 C20.66,15.89 20.43,15.67 20.24,15.45 C20.06,15.23 19.84,14.94 19.64,14.83 C19.05,14.52 18.31,14.35 17.68,14.16 C17.01,13.95 16.39,13.71 15.96,13.24 C15.79,13.05 15.73,12.77 15.5,12.68 C15.42,12.37 15.35,12.24 15.17,12.04 C15.15,11.52 15.18,11.06 15.14,10.53 C16.01,10.36 16.22,10.19 16.42,9.38 C16.54,8.89 16.76,8.42 16.78,7.84 C16.79,7.43 16.83,7.04 16.82,6.75 C16.79,5.98 16.12,5.55 16.07,5.01 C16.05,4.75 16.19,4.49 16.15,4.28 C16.13,4.16 16,4.08 15.89,3.92 C15.8,3.79 15.72,3.62 15.65,3.5 C15.4,3.07 15.11,2.73 15.27,2.3 C15.14,2.03 14.98,1.79 14.86,1.52 C14.59,1.5 14.37,1.15 14.04,1.04 C13.87,0.98 13.66,1 13.48,0.93 C13.3,0.88 13.14,0.76 12.97,0.74" id="SVGID_1_"></path>
                                </g>
                            </g>
                            <g fill="#FFFFFF" fill-rule="nonzero" stroke="#FFFFFF" stroke-linecap="round" stroke-linejoin="round" stroke-width="15">
                                <path d="M21.78,42.64 C21.71,42.59 21.82,42.48 21.8,42.39 C21.87,42.44 21.83,42.61 21.78,42.64 Z M21.39,42.58 C21.41,42.49 21.41,42.53 21.38,42.44 C21.49,42.42 21.53,42.48 21.58,42.52 C21.54,42.61 21.49,42.6 21.39,42.58 Z M6.39,32.06 C6.34,32.7 6.3,33.33 6.09,33.82 C5.96,34.14 5.78,34.38 5.69,34.83 C5.65,35.02 5.56,35.23 5.54,35.39 C5.52,35.55 5.57,35.68 5.56,35.81 C5.54,35.99 5.41,36.16 5.41,36.34 C5.42,36.52 5.54,36.62 5.56,36.76 C5.68,37.34 5.38,37.58 5.16,37.93 C5.2,38.14 5.45,38.13 5.53,38.29 C5.51,38.47 5.41,38.59 5.38,38.77 C5.01,38.37 4.92,37.77 4.83,37.23 C4.73,36.61 4.72,35.92 4.73,35.27 C4.75,34.04 4.94,32.76 4.96,31.55 C4.99,28.9 5.36,26.6 5.92,24.5 C6.11,25.43 6.64,26.17 6.76,27.05 C6.8,27.36 6.67,27.62 6.71,27.92 C6.75,28.22 6.97,28.5 7.02,28.79 C7.19,29.82 6.48,30.9 6.39,32.06 Z M22.95,40.03 C22.92,39.76 22.95,39.49 22.92,39.25 C22.89,38.94 22.75,38.65 22.72,38.38 C22.69,38.1 22.74,37.82 22.69,37.54 C22.49,36.4 22.31,35.25 22.18,34.07 C22.05,32.89 21.98,31.68 21.77,30.49 C21.58,29.38 21.18,28.35 21.02,27.27 C20.74,25.44 20.74,23.4 20.82,21.67 C21.03,21.49 21.49,21.46 21.55,21.19 C21.6,20.93 21.25,20.28 21.21,20.07 C21,19.06 21.1,17.97 20.75,17.13 C20.65,16.9 20.42,16.68 20.23,16.46 C20.04,16.24 19.83,15.95 19.63,15.84 C19.04,15.53 18.3,15.36 17.67,15.17 C17,14.96 16.38,14.72 15.96,14.25 C15.79,14.06 15.73,13.78 15.5,13.69 C15.42,13.38 15.35,13.25 15.17,13.05 C15.15,12.53 15.18,12.07 15.14,11.54 C16.01,11.37 16.22,11.2 16.42,10.39 C16.54,9.9 16.76,9.43 16.78,8.85 C16.79,8.44 16.84,8.05 16.82,7.76 C16.79,6.99 16.12,6.56 16.07,6.03 C16.05,5.77 16.19,5.51 16.15,5.3 C16.13,5.18 16,5.1 15.89,4.94 C15.8,4.81 15.72,4.64 15.65,4.52 C15.4,4.09 15.11,3.75 15.28,3.32 C15.15,3.05 14.99,2.81 14.87,2.54 C14.6,2.52 14.38,2.17 14.05,2.06 C13.88,2 13.67,2.02 13.49,1.95 C13.29,1.87 13.13,1.75 12.96,1.73 C12.56,1.68 12.16,1.76 11.83,1.81 C11.6,1.85 11.39,1.96 11.15,2.01 C11.02,2.03 10.89,2.01 10.76,2.04 C10.37,2.13 9.99,2.37 9.68,2.6 C9.38,2.82 8.92,3.07 8.77,3.35 C8.53,3.78 8.34,4.48 8.31,5.03 C8.3,5.19 8.31,5.42 8.33,5.62 C8.48,6.77 8.93,8.17 9.39,8.95 C9.68,9.45 10.22,9.74 10.43,10.32 C10.49,10.49 10.5,10.69 10.59,10.88 C10.61,10.99 10.75,10.96 10.79,11.05 C10.84,11.61 10.69,11.98 10.5,12.31 C10.27,12.28 10.05,12.42 10.08,12.73 C9.94,12.65 9.83,12.64 9.66,12.67 C9.49,12.78 9.62,12.98 9.51,13.09 C9.37,13.23 9.13,13.17 8.8,13.17 C8.48,13.46 8.21,13.59 7.86,13.81 C7.68,13.92 7.54,14.07 7.37,14.12 C6.83,14.27 6.15,14.4 5.65,14.54 C5.46,14.6 5.23,14.59 5.05,14.65 C4.68,14.78 4.41,15.18 4.17,15.52 C3.94,15.84 3.67,16.11 3.54,16.44 C3.24,17.22 3.04,18.22 2.81,19.15 C2.73,19.48 2.57,19.87 2.57,20.07 C2.57,20.18 2.65,20.3 2.66,20.41 C2.72,21.05 2.59,21.82 2.52,22.54 C2.3,24.68 2.31,26.9 2.09,28.97 C1.85,31.16 2.2,33.52 2.52,35.54 C2.64,36.31 2.57,37.06 2.66,37.81 C2.68,38.04 2.83,38.26 2.85,38.51 C2.92,39.34 2.45,40.1 2.47,41.03 C2.47,41.18 2.52,41.35 2.54,41.53 C2.58,41.91 2.5,42.38 2.64,42.68 C2.69,42.8 2.88,42.89 2.98,43.02 C3.14,43.24 3.28,43.52 3.47,43.75 C3.55,43.85 3.68,43.93 3.78,44.03 C3.89,44.14 3.98,44.29 4.07,44.37 C4.25,44.54 4.56,44.65 4.61,44.82 C4.69,45.09 4.53,45.46 4.53,45.74 C4.53,45.91 4.57,46.07 4.58,46.24 C4.6,47.75 4.2,49.42 4.42,50.97 C4.46,51.22 4.57,51.51 4.53,51.78 C4.45,52.27 3.85,52.62 4,53.26 C3.68,53.85 3.51,54.17 3.49,55 C3.47,55.5 3.49,55.87 3.46,56.43 C3.43,56.93 3.27,57.5 3.16,58.05 C2.94,59.15 2.94,60.34 2.76,61.49 C2.42,63.72 1.99,65.98 1.79,68.23 C1.74,68.85 1.79,69.49 1.69,70.08 C1.66,70.26 1.52,70.49 1.55,70.67 C1.6,71.03 1.98,71.15 2.13,71.45 C2.02,71.75 1.94,72.07 1.86,72.4 C1.25,73.23 0.46,74.03 0.39,75.31 C1.27,75.38 2.74,75.62 3.87,75.53 C4.16,75.51 4.81,75.42 4.88,75.14 C4.93,74.93 4.71,74.73 4.75,74.52 C5.38,74.41 6.5,74.49 6.66,73.99 C6.82,73.5 6.3,72.73 6.35,72.28 C6.39,71.96 6.69,71.94 6.77,71.69 C6.86,71.39 6.72,71 6.73,70.6 C6.74,70.24 6.81,69.83 6.86,69.48 C6.94,68.86 7.16,68.26 7.26,67.63 C7.37,66.95 7.37,66.26 7.43,65.53 C7.46,65.23 7.56,64.9 7.62,64.58 C7.88,62.96 8.29,61.47 8.61,59.88 C8.74,59.24 8.78,58.53 8.98,57.95 C9.09,57.63 9.32,57.35 9.44,57.05 C9.74,56.37 9.99,55.77 10.14,55.04 C10.22,54.67 10.37,54.31 10.43,53.95 C10.6,52.97 10.45,51.99 10.66,51.04 C10.73,50.7 10.87,50.39 10.93,50.03 C10.98,49.65 10.96,49.24 11.02,48.85 C11.05,48.65 11.16,48.44 11.22,48.24 C11.28,48.02 11.3,47.76 11.36,47.54 C11.43,47.3 11.58,47.06 11.66,46.81 C11.93,46.01 12.17,45.25 12.57,44.63 C12.84,45.91 12.3,47.19 12.5,48.63 C12.53,48.87 12.64,49.09 12.66,49.33 C12.77,50.35 12.59,51.55 12.58,52.46 C12.58,52.8 12.64,53.15 12.64,53.49 C12.65,53.9 12.59,54.32 12.58,54.75 C12.57,55.19 12.62,55.66 12.57,56.06 C12.52,56.51 12.36,56.95 12.31,57.4 C12.21,58.39 12.14,59.4 12.11,60.39 C12.1,60.93 12.16,61.48 12.11,62.01 C12.06,62.63 11.82,63.24 11.71,63.89 C11.44,65.51 11.31,67.32 11.21,69.07 C11.19,69.44 11.21,69.84 11.17,70.19 C11.16,70.3 11.07,70.44 11.07,70.55 C11.08,70.71 11.19,70.69 11.16,70.83 C11.1,71.05 11.06,71.43 11.14,71.7 C11.04,71.91 11.01,72.18 10.95,72.45 C10.89,72.73 10.75,73.06 10.81,73.29 C10.9,73.58 11.47,73.72 11.79,73.77 C12.25,73.83 12.7,73.82 13.07,73.94 C12.79,74.66 13.34,74.82 13.85,74.98 C14.89,75.29 16.58,75.1 17.43,74.92 C17.52,74.55 17.33,74.25 17.26,74.02 C17.22,73.9 17.24,73.79 17.19,73.68 C16.87,72.85 15.89,72.49 15.79,71.44 C15.93,71.38 16.16,71.41 16.31,71.36 C16.38,70.7 16.12,69.97 16.15,69.26 C16.17,68.85 16.32,68.4 16.41,67.97 C16.49,67.54 16.63,67.11 16.69,66.68 C16.83,65.73 16.87,64.82 16.91,63.77 C16.95,62.92 17.06,61.94 17.14,60.97 C17.22,60.01 17.27,59.01 17.48,58.26 C17.62,57.76 17.95,57.18 18.19,56.64 C18.44,56.1 18.83,55.46 18.9,54.96 C19.07,53.72 19.09,52.44 19.18,51.18 C19.27,49.95 19.37,48.71 19.51,47.46 C19.58,46.87 19.61,46.25 19.75,45.67 C19.88,45.11 20,44.54 20.07,43.96 C20.31,42.04 20.76,39.92 20.45,37.64 C20.41,37.37 20.31,37.07 20.31,36.8 C20.31,36.69 20.38,36.64 20.38,36.55 C20.39,36.42 20.25,36.33 20.31,36.16 C20.44,36.98 21.21,37.68 21.01,38.68 C20.97,38.87 20.85,39.01 20.81,39.18 C20.74,39.45 20.69,39.76 20.73,40.07 C20.76,40.29 20.91,40.5 20.95,40.71 C21.05,41.32 20.63,42.34 21.19,42.67 C21.29,42.73 21.49,42.72 21.61,42.73 C21.51,43.17 20.8,43.13 20.96,43.74 C20.58,43.73 20.39,44.31 20.66,44.61 C21.01,44.64 21.06,44.41 21.4,44.5 C21.71,44.29 22,43.99 22.28,43.77 C22.4,43.68 22.53,43.65 22.6,43.55 C22.83,43.23 22.81,42.75 22.94,42.26 C22.99,42.06 23.2,41.85 23.22,41.64 C23.31,41.23 23.02,40.62 22.95,40.03 Z" id="Shape"></path>
                                <path d="M7.38,5.1 C7.29,4.36 7.58,4.28 7.58,4.28 C7.58,4.28 7.28,2.14 9.52,1.06 C11.77,-0.02 13.68,-0.05 15.12,1.12 C16.09,1.9 16.28,3.41 16.28,3.41 C16.28,3.41 17.78,3.64 17.7900767,4.07 C17.8,4.51 16.83,4.83 16.5,4.94 C16.17,5.05 13.31,5.94 9.42,6.09 C9.42,6.09 7.62,5.95 7.38,5.1" id="Path"></path>
                                <path d="M7.21,5.32 C7.08,4.58 7.42,4.33 7.42,4.33 C7.42,4.33 7.28,2.15 9.52,1.07 C11.77,-0.01 13.68,-0.04 15.12,1.13 C16.09,1.91 16.28,3.42 16.28,3.42 C16.28,3.42 17.78,3.65 17.7900767,4.08 C17.8,4.52 16.83,4.84 16.5,4.95 C16.17,5.06 13.31,5.95 9.42,6.1 C9.42,6.09 7.44,6.16 7.21,5.32 Z" id="Path"></path>
                            </g>
                        </g>
                        <g transform="translate(130.000000, 0.000000)">
                            <g transform="translate(0.000000, 2.000000)">
                                <g fill="#FFFFFF" fill-rule="nonzero" id="Path" stroke="#FFFFFF" stroke-linecap="round" stroke-linejoin="round" stroke-width="15">
                                    <path d="M5.75,50.66 L5.06,48.55 C4.56,47.4 3.97,46.63 3.71,45.5 C3.33,43.85 2.92,42.41 2.8,40.6 C2.01,40.24 2.07,39.48 1.89,38.35 C1.77,37.61 1.38,36.91 1.4,36.36 C1.41,35.96 1.63,35.62 1.61,35.23 C1.59,34.93 1.35,34.62 1.33,34.3 C1.27,33.32 2.3,32.46 2.59,31.45 C2.84,30.59 2.65,29.66 2.73,28.6 C2.8,27.63 3.1,26.75 3.15,25.82 C3.32,22.78 2.94,19.65 3.92,17.27 C4.42,16.06 4.77,14.78 5.39,14.02 C6.08,13.19 7.7,12.4 7.07,10.71 C6.06,10.7 5.56,10.6 5.07,10.1 C5.22,9.11 4.76,8.42 4.96,7.6 C4.9,7.35 4.43,7.49 4.4,7.2 C4.46,6.74 5.02,6.2 5.31,5.74 C4.73,5.52 5.35,5.48 4.89,4.94 C5.08,4.26 5.49,3.78 5.8,3.22 C4.05,2.48 5.82,1.66 7.27,1.23 C7.73,1.1 8.11,0.84 8.46,0.77 C8.94,0.67 9.64,0.7 10,0.7 C10.05,0.7 10.13,0.56 10.21,0.569488704 C10.96,0.65 11.75,1.54 12.31,1.23 C12.97,2.01 13.88,2.54 14.06,3.81 C14.22,4.91 13.19,5.84 13.28,7.13 C12.82,7.54 13.14,8.85 13,9.77 C12.68,9.98 12.67,9.87 12.23,10.1 C12.66,10.78 12.63,12.02 13.7,11.89 C14.21,12.64 15.27,13.02 15.87,13.75 C16.69,14.73 17.69,16.79 17.55,18.65 C17.49,19.46 17.1,20.28 17.06,21.17 C17.03,21.86 17.26,22.5 17.2,23.16 C17.15,23.68 16.98,24.19 16.85,24.68 C16.73,25.15 16.41,25.63 16.36,26.07 C16.3,26.6 16.59,27.18 16.57,27.73 C16.52,28.99 15.8,30.37 15.52,31.84 C15.03,34.4 15.42,37.38 15.1,39.92 C14.91,41.41 15.39,47.07 15.44,48.92 L15.94,57.87 C16.21,60.43 16.14,63.8 16.01,66.48 C15.98,67.18 16.18,67.98 15.66,68.27 C15.8,69.03 16.02,70.92 15.94,71.67 C14.82,72.24 12.98,71.79 11.8,71.6 C11.66,72.11 11.87,71.79 11.8,72.44 C11.27,72.66 10.46,72.87 9.63,72.84 C9.36,72.83 9.03,72.69 8.79,72.71 C8.43,72.74 8.04,73.06 7.67,73.17 C6.58,73.51 5.05,73.59 3.67,73.5 C2.35,73.42 1,73.34 0.16,72.51 C0.82,70.86 3.85,71.44 4.58,69.86 C4.67,69.51 4.2,69.68 4.3,69.33 C4.56,68.94 4.62,68.35 5.28,68.34 C5.56,66.97 6.23,65.27 6.3,64.01 C6.3,64.01 5.92,60.57 5.92,58.38 C5.96,56.2 6.21,52.57 5.75,50.66 Z"></path>
                                </g>
                                <g>
                                    <g id="SVGID_3_-link" fill="#FFFFFF" fill-rule="nonzero">
                                        <path d="M10.22,0.57 C10.96,0.65 11.76,1.54 12.32,1.23 C12.97,2.01 13.89,2.54 14.07,3.81 C14.23,4.91 13.67,5.89 13.3,7.13 C13.04,7.98 13.18,8.29 13.08,9.21 C13.02,9.77 12.69,9.87 12.25,10.1 C12.68,10.77 12.65,12.02 13.72,11.89 C14.23,12.64 15.29,13.02 15.89,13.74 C16.71,14.72 17.71,16.78 17.57,18.64 C17.51,19.45 17.12,20.27 17.08,21.16 C17.05,21.85 17.28,22.49 17.22,23.15 C17.17,23.67 17,24.18 16.87,24.67 C16.75,25.14 16.43,25.62 16.38,26.06 C16.32,26.59 16.61,27.17 16.59,27.72 C16.54,28.98 15.82,30.36 15.54,31.83 C15.05,34.39 15.44,37.36 15.12,39.91 C14.93,41.4 15.41,47.06 15.46,48.91 L15.96,57.86 C16.23,60.42 16.16,63.79 16.03,66.47 C16,67.17 16.2,67.97 15.68,68.26 C15.82,69.03 16.04,70.92 15.96,71.66 C14.84,72.23 13,71.78 11.82,71.59 C11.68,72.09 11.89,71.78 11.82,72.43 C11.28,72.65 10.48,72.86 9.65,72.83 C9.39,72.82 9.05,72.68 8.81,72.7 C8.45,72.73 8.07,73.05 7.69,73.17 C6.6,73.51 5.07,73.59 3.69,73.5 C2.37,73.42 1.02,73.34 0.18,72.51 C0.84,70.86 3.87,71.44 4.6,69.86 C4.69,69.51 4.22,69.68 4.32,69.33 C4.58,68.94 4.64,68.36 5.3,68.34 C5.58,66.97 6.42,66.13 6.91,64.96 C6.64,64.2 7.09,63.34 7.47,62.51 C7.72,61.95 8.32,61.24 8.31,60.79 C8.29,60.31 7.6,59.92 7.4,59.47 C7.17,58.97 7.29,58.63 7.05,58.08 C5.63,57.85 7.05,55.79 6.23,54.98 C5.67,54.43 6.26,52.1 5.73,50.66 L5.04,48.55 C4.54,47.4 3.95,46.63 3.69,45.5 C3.31,43.85 2.9,42.41 2.78,40.6 C1.99,40.24 2.05,39.48 1.87,38.35 C1.75,37.61 1.36,36.91 1.38,36.36 C1.39,35.96 1.61,35.62 1.59,35.23 C1.57,34.93 1.33,34.62 1.31,34.3 C1.25,33.32 2.28,32.46 2.57,31.45 C2.82,30.59 2.63,29.66 2.71,28.6 C2.78,27.63 3.08,26.75 3.13,25.82 C3.3,22.78 2.92,19.65 3.9,17.27 C4.4,16.06 4.75,14.78 5.37,14.02 C6.06,13.19 7.68,12.4 7.05,10.71 C6.04,10.7 5.54,10.6 5.05,10.1 C5.2,9.11 4.74,8.42 4.94,7.6 C4.88,7.35 4.41,7.49 4.38,7.2 C4.44,6.74 5,6.2 5.29,5.74 C4.7,5.53 5.33,5.48 4.87,4.94 C5.06,4.26 5.47,3.78 5.78,3.22 C4.03,2.48 5.8,1.66 7.25,1.23 C7.71,1.1 8.09,0.84 8.44,0.76 C8.92,0.66 9.62,0.69 9.98,0.69 C10.06,0.71 10.14,0.57 10.22,0.57 C10.22,0.57 10.22,0.57 10.22,0.57" id="SVGID_3_"></path>
                                    </g>
                                    <path d="M13.08,11.54 C13.08,11.54 10.82,13.2 7.23,12.49 C4.51,11.95 2,13.53 2,13.53 L1.38,22.62 L0.15,35.28 C0.15,35.28 1.78,35.22 3.04,35.77 C4.3,36.32 6.3,36.32 6.3,36.32 C6.3,36.32 6.7,31.67 6.96,29.75 C7.22,27.83 7.45,26.09 7.51,24.03 C7.6,20.78 7.07,16.85 7.33,15.65 C7.7,13.94 11.26,14.07 11.84,15.77 C12.46,17.56 12.76,18.97 12.76,24.22 C12.76,29.47 10.56,36.39 10.56,36.39 L15.76,35.73 L18.41,16.07 L15.76,11.54 L13.08,11.54 L13.08,11.54 Z" id="Path" stroke="#FFFFFF" stroke-width="15" fill="#FFFFFF" fill-rule="nonzero" stroke-linecap="round" stroke-linejoin="round"></path>
                                    <g id="SVGID_3_-link" stroke-linecap="round" stroke-linejoin="round" stroke="#FFFFFF" stroke-width="15">
                                        <path d="M10.22,0.57 C10.96,0.65 11.76,1.54 12.32,1.23 C12.97,2.01 13.89,2.54 14.07,3.81 C14.23,4.91 13.67,5.89 13.3,7.13 C13.04,7.98 13.18,8.29 13.08,9.21 C13.02,9.77 12.69,9.87 12.25,10.1 C12.68,10.77 12.65,12.02 13.72,11.89 C14.23,12.64 15.29,13.02 15.89,13.74 C16.71,14.72 17.71,16.78 17.57,18.64 C17.51,19.45 17.12,20.27 17.08,21.16 C17.05,21.85 17.28,22.49 17.22,23.15 C17.17,23.67 17,24.18 16.87,24.67 C16.75,25.14 16.43,25.62 16.38,26.06 C16.32,26.59 16.61,27.17 16.59,27.72 C16.54,28.98 15.82,30.36 15.54,31.83 C15.05,34.39 15.44,37.36 15.12,39.91 C14.93,41.4 15.41,47.06 15.46,48.91 L15.96,57.86 C16.23,60.42 16.16,63.79 16.03,66.47 C16,67.17 16.2,67.97 15.68,68.26 C15.82,69.03 16.04,70.92 15.96,71.66 C14.84,72.23 13,71.78 11.82,71.59 C11.68,72.09 11.89,71.78 11.82,72.43 C11.28,72.65 10.48,72.86 9.65,72.83 C9.39,72.82 9.05,72.68 8.81,72.7 C8.45,72.73 8.07,73.05 7.69,73.17 C6.6,73.51 5.07,73.59 3.69,73.5 C2.37,73.42 1.02,73.34 0.18,72.51 C0.84,70.86 3.87,71.44 4.6,69.86 C4.69,69.51 4.22,69.68 4.32,69.33 C4.58,68.94 4.64,68.36 5.3,68.34 C5.58,66.97 6.42,66.13 6.91,64.96 C6.64,64.2 7.09,63.34 7.47,62.51 C7.72,61.95 8.32,61.24 8.31,60.79 C8.29,60.31 7.6,59.92 7.4,59.47 C7.17,58.97 7.29,58.63 7.05,58.08 C5.63,57.85 7.05,55.79 6.23,54.98 C5.67,54.43 6.26,52.1 5.73,50.66 L5.04,48.55 C4.54,47.4 3.95,46.63 3.69,45.5 C3.31,43.85 2.9,42.41 2.78,40.6 C1.99,40.24 2.05,39.48 1.87,38.35 C1.75,37.61 1.36,36.91 1.38,36.36 C1.39,35.96 1.61,35.62 1.59,35.23 C1.57,34.93 1.33,34.62 1.31,34.3 C1.25,33.32 2.28,32.46 2.57,31.45 C2.82,30.59 2.63,29.66 2.71,28.6 C2.78,27.63 3.08,26.75 3.13,25.82 C3.3,22.78 2.92,19.65 3.9,17.27 C4.4,16.06 4.75,14.78 5.37,14.02 C6.06,13.19 7.68,12.4 7.05,10.71 C6.04,10.7 5.54,10.6 5.05,10.1 C5.2,9.11 4.74,8.42 4.94,7.6 C4.88,7.35 4.41,7.49 4.38,7.2 C4.44,6.74 5,6.2 5.29,5.74 C4.7,5.53 5.33,5.48 4.87,4.94 C5.06,4.26 5.47,3.78 5.78,3.22 C4.03,2.48 5.8,1.66 7.25,1.23 C7.71,1.1 8.09,0.84 8.44,0.76 C8.92,0.66 9.62,0.69 9.98,0.69 C10.06,0.71 10.14,0.57 10.22,0.57 C10.22,0.57 10.22,0.57 10.22,0.57" id="SVGID_3_"></path>
                                    </g>
                                </g>
                            </g>
                            <path d="M12.77,6.6 C14.44,6.47 14.88,6.22 14.88,5.28 C14.88,4.78 14.38,4.45 14.38,4.45 C14.38,4.45 14.51,1.38 11.86,0.55 C9.21,-0.28 6.95,0.44 5.55,1.9 C4.6,2.88 4.64,4.51 4.64,4.51 C4.64,4.51 3.03,4.74 3.08,5.44 C3.11,5.91 4.26,6.11 4.64,6.18 C4.63,6.18 7.94,6.98 12.77,6.6 Z" id="Path" stroke="#FFFFFF" stroke-width="15" fill="#FFFFFF" fill-rule="nonzero" stroke-linecap="round" stroke-linejoin="round"></path>
                        </g>
                        <g transform="translate(0.000000, 74.000000)" fill="#FFFFFF" fill-rule="nonzero" id="Path" stroke="#FFFFFF" stroke-linecap="round" stroke-linejoin="round" stroke-width="15">
                            <path d="M24.07,0.79 C24.07,0.79 0.63,0.79 0.63,24.23 L0.63,30.52 C0.63,30.52 0.63,53.96 24.07,53.96 L470.97,53.96 C470.97,53.96 494.41,53.96 494.41,30.52 L494.41,24.23 C494.41,24.23 494.41,0.79 470.97,0.79 L24.07,0.79 Z"></path>
                            <path d="M24.07,0.79 C24.07,0.79 0.63,0.79 0.63,24.23 L0.63,30.52 C0.63,30.52 0.63,53.96 24.07,53.96 L470.97,53.96 C470.97,53.96 494.41,53.96 494.41,30.52 L494.41,24.23 C494.41,24.23 494.41,0.79 470.97,0.79 L24.07,0.79 Z"></path>
                        </g>
                        <path d="M49.61,31.61 L34.72,31.61 L34.72,27.04 C34.72,24.91 34.53,23.55 34.15,22.97 C33.77,22.39 33.13,22.09 32.25,22.09 C31.29,22.09 30.56,22.48 30.06,23.27 C29.56,24.06 29.32,25.25 29.32,26.85 C29.32,28.91 29.6,30.46 30.15,31.5 C30.68,32.54 32.19,33.8 34.68,35.27 C41.82,39.51 46.31,42.98 48.16,45.7 C50.01,48.42 50.94,52.8 50.94,58.84 C50.94,63.23 50.43,66.47 49.4,68.55 C48.37,70.63 46.38,72.38 43.44,73.79 C40.49,75.2 36.61,75.45 32.7,75.45 C28.41,75.45 25.2,75.09 22.17,73.47 C19.14,71.84 17.15,69.78 16.21,67.26 C15.27,64.75 14.8,61.18 14.8,56.56 L14.8,52.52 L29.69,52.52 L29.69,60.02 C29.69,62.33 29.9,63.82 30.32,64.48 C30.74,65.14 31.48,65.47 32.55,65.47 C33.62,65.47 34.41,65.05 34.93,64.21 C35.45,63.37 35.71,62.13 35.71,60.48 C35.71,56.85 35.21,54.48 34.22,53.36 C33.2,52.24 30.7,50.38 26.72,47.76 C22.73,45.12 20.09,43.2 18.8,42.01 C17.51,40.82 16.43,39.17 15.58,37.06 C14.73,34.95 14.3,32.26 14.3,28.99 C14.3,24.27 14.9,20.81 16.11,18.63 C17.32,16.45 19.26,14.74 21.96,13.51 C24.65,12.28 27.9,11.66 31.71,11.66 C35.87,11.66 39.42,12.33 42.35,13.68 C45.28,15.03 47.22,16.72 48.18,18.76 C49.13,20.8 49.61,24.28 49.61,29.18 L49.61,31.61 L49.61,31.61 Z" id="Path" stroke="#FFFFFF" stroke-width="15" fill="#FFFFFF" fill-rule="nonzero" stroke-linecap="round" stroke-linejoin="round"></path>
                        <polygon id="Path" stroke="#FFFFFF" stroke-width="15" fill="#FFFFFF" fill-rule="nonzero" stroke-linecap="round" stroke-linejoin="round" points="85.52 24.07 79.27 44.2 87.38 74.61 72.59 74.61 67.79 52.59 67.77 74.61 52.39 74.61 52.39 12.96 67.77 12.96 67.79 38.84 72.59 24.08 85.52 24.08"></polygon>
                        <path d="M103.95,12.95 L103.95,20.99 L88.11,20.99 L88.11,12.95 L103.95,12.95 Z M103.95,24.07 L103.95,74.6 L88.11,74.6 L88.11,24.07 L103.95,24.07 L103.95,24.07 Z" id="Shape" stroke="#FFFFFF" stroke-width="15" fill="#FFFFFF" fill-rule="nonzero" stroke-linecap="round" stroke-linejoin="round"></path>
                        <path d="M180.58,40.22 L166.95,40.22 L166.95,37.48 C166.95,35.14 166.82,33.67 166.55,33.04 C166.28,32.42 165.62,32.11 164.55,32.11 C163.69,32.11 163.04,32.39 162.61,32.97 C162.18,33.54 161.96,34.4 161.96,35.54 C161.96,37.09 162.07,38.22 162.28,38.95 C162.5,39.67 163.14,40.47 164.22,41.33 C165.3,42.19 167.51,43.45 170.87,45.1 C175.34,47.28 178.27,49.34 179.67,51.27 C181.07,53.2 181.76,56 181.76,59.69 C181.76,63.8 181.23,66.91 180.16,69 C179.09,71.09 177.31,72.71 174.81,73.84 C172.31,74.97 169.29,75.54 165.77,75.54 C161.86,75.54 158.52,74.93 155.74,73.71 C152.96,72.49 151.05,70.84 150.01,68.76 C148.97,66.68 148.45,63.53 148.45,59.32 L148.45,56.88 L162.08,56.88 L162.08,60.08 C162.08,62.8 162.25,64.56 162.59,65.37 C162.93,66.18 163.61,66.59 164.63,66.59 C165.72,66.59 166.48,66.32 166.91,65.77 C167.34,65.22 167.56,64.08 167.56,62.32 C167.56,59.91 167.28,58.4 166.72,57.79 C166.14,57.18 163.15,55.38 157.77,52.38 C153.25,49.84 150.5,47.54 149.51,45.47 C148.52,43.4 148.02,40.95 148.02,38.1 C148.02,34.06 148.55,31.09 149.62,29.17 C150.69,27.25 152.5,25.77 155.05,24.73 C157.6,23.69 160.56,23.17 163.94,23.17 C167.29,23.17 170.14,23.59 172.49,24.44 C174.84,25.29 176.64,26.41 177.9,27.81 C179.16,29.21 179.92,30.5 180.18,31.69 C180.45,32.88 180.58,34.75 180.58,37.29 L180.58,40.22 L180.58,40.22 Z" id="Path" stroke="#FFFFFF" stroke-width="15" fill="#FFFFFF" fill-rule="nonzero" stroke-linecap="round" stroke-linejoin="round"></path>
                        <path d="M224.67,12.95 L233.84,74.6 L217.46,74.6 L216.6,63.52 L210.87,63.52 L209.91,74.6 L193.33,74.6 L201.51,12.95 L224.67,12.95 L224.67,12.95 Z M216.17,52.59 C215.36,45.61 214.54,36.98 213.73,26.69 C212.1,38.5 211.07,47.13 210.65,52.59 L216.17,52.59 Z" id="Shape" stroke="#FFFFFF" stroke-width="15" fill="#FFFFFF" fill-rule="nonzero" stroke-linecap="round" stroke-linejoin="round"></path>
                        <path d="M268.55,43.15 L254.04,43.15 L254.04,37.32 C254.04,35.29 253.87,33.91 253.54,33.19 C253.21,32.47 252.6,32.11 251.71,32.11 C250.82,32.11 250.22,32.43 249.92,33.06 C249.62,33.7 249.46,35.12 249.46,37.33 L249.46,61.17 C249.46,62.97 249.69,64.32 250.15,65.22 C250.61,66.12 251.28,66.57 252.17,66.57 C253.21,66.57 253.92,66.1 254.28,65.16 C254.65,64.22 254.83,62.44 254.83,59.83 L254.83,53.81 L268.54,53.81 C268.51,57.85 268.37,60.87 268.1,62.89 C267.83,64.91 266.98,66.98 265.55,69.1 C264.12,71.22 262.24,72.82 259.93,73.9 C257.62,74.98 254.76,75.52 251.36,75.52 C247.02,75.52 243.58,74.78 241.04,73.29 C238.5,71.8 236.7,69.72 235.65,67.04 C234.6,64.36 234.07,60.56 234.07,55.64 L234.07,41.28 C234.07,36.99 234.5,33.75 235.36,31.57 C236.22,29.39 238.06,27.44 240.88,25.72 C243.7,24.01 247.13,23.15 251.16,23.15 C255.17,23.15 258.6,24 261.44,25.7 C264.28,27.4 266.17,29.55 267.11,32.14 C268.08,34.73 268.55,38.4 268.55,43.15 Z" id="Path" stroke="#FFFFFF" stroke-width="15" fill="#FFFFFF" fill-rule="nonzero" stroke-linecap="round" stroke-linejoin="round"></path>
                        <path d="M286.86,43.64 L272.43,43.64 L272.43,40.25 C272.43,36.34 272.88,33.33 273.78,31.21 C274.68,29.09 276.49,27.22 279.21,25.59 C281.93,23.96 285.46,23.15 289.8,23.15 C295,23.15 298.93,24.07 301.57,25.91 C304.21,27.75 305.8,30.01 306.33,32.69 C306.86,35.37 307.13,40.89 307.13,49.24 L307.13,74.6 L292.16,74.6 L292.16,70.1 C291.22,71.91 290.01,73.26 288.52,74.16 C287.04,75.06 285.26,75.51 283.21,75.51 C280.52,75.51 278.05,74.75 275.8,73.24 C273.55,71.73 272.43,68.42 272.43,63.32 L272.43,59.17 C272.43,55.39 273.03,52.81 274.22,51.44 C275.41,50.07 278.37,48.47 283.09,46.64 C288.14,44.66 290.84,43.33 291.2,42.64 C291.55,41.95 291.73,40.56 291.73,38.45 C291.73,35.81 291.53,34.09 291.14,33.29 C290.75,32.49 290.09,32.09 289.18,32.09 C288.14,32.09 287.49,32.43 287.24,33.1 C286.99,33.77 286.86,35.52 286.86,38.34 L286.86,43.64 Z M291.74,50.57 C289.28,52.37 287.85,53.88 287.46,55.1 C287.07,56.32 286.87,58.07 286.87,60.36 C286.87,62.98 287.04,64.66 287.38,65.42 C287.72,66.18 288.4,66.56 289.42,66.56 C290.38,66.56 291.01,66.26 291.31,65.66 C291.6,65.06 291.75,63.5 291.75,60.96 L291.75,50.57 L291.74,50.57 Z" id="Shape" stroke="#FFFFFF" stroke-width="15" fill="#FFFFFF" fill-rule="nonzero" stroke-linecap="round" stroke-linejoin="round"></path>
                        <path d="M345.85,12.93 L345.85,74.61 L330.47,74.61 L330.47,70.95 C329,72.48 327.45,73.62 325.82,74.38 C324.19,75.14 322.49,75.53 320.72,75.53 C318.33,75.53 316.26,74.9 314.51,73.64 C312.76,72.38 311.63,70.93 311.14,69.28 C310.64,67.63 310.4,64.94 310.4,61.21 L310.4,37.56 C310.4,33.68 310.65,30.92 311.14,29.3 C311.63,27.67 312.77,26.25 314.55,25.02 C316.33,23.79 318.45,23.17 320.91,23.17 C322.81,23.17 324.56,23.51 326.15,24.2 C327.74,24.89 329.18,25.92 330.47,27.29 L330.47,12.8 L345.85,12.93 Z M330.47,36.79 C330.47,34.94 330.31,33.69 329.99,33.06 C329.67,32.42 329.04,32.11 328.11,32.11 C327.2,32.11 326.58,32.39 326.26,32.97 C325.94,33.54 325.78,34.82 325.78,36.8 L325.78,61.55 C325.78,63.61 325.93,64.96 326.24,65.6 C326.54,66.25 327.13,66.57 327.99,66.57 C328.98,66.57 329.64,66.21 329.97,65.48 C330.3,64.76 330.47,62.99 330.47,60.17 L330.47,36.79 L330.47,36.79 Z" id="Shape" stroke="#FFFFFF" stroke-width="15" fill="#FFFFFF" fill-rule="nonzero" stroke-linecap="round" stroke-linejoin="round"></path>
                        <path d="M384.66,50.23 L364.74,50.23 L364.74,61.16 C364.74,63.44 364.9,64.92 365.24,65.58 C365.57,66.24 366.2,66.57 367.14,66.57 C368.31,66.57 369.09,66.13 369.48,65.26 C369.87,64.38 370.07,62.69 370.07,60.18 L370.07,53.52 L384.66,53.52 L384.66,57.25 C384.66,60.37 384.46,62.77 384.07,64.45 C383.68,66.13 382.76,67.92 381.31,69.82 C379.86,71.72 378.03,73.15 375.81,74.1 C373.59,75.05 370.8,75.53 367.45,75.53 C364.2,75.53 361.33,75.06 358.84,74.12 C356.35,73.18 354.42,71.89 353.03,70.25 C351.65,68.61 350.69,66.81 350.16,64.84 C349.63,62.87 349.36,60.01 349.36,56.25 L349.36,41.51 C349.36,37.09 349.96,33.61 351.15,31.06 C352.34,28.51 354.3,26.55 357.01,25.2 C359.73,23.84 362.85,23.16 366.38,23.16 C370.7,23.16 374.26,23.98 377.06,25.62 C379.86,27.26 381.83,29.43 382.96,32.13 C384.09,34.83 384.66,38.64 384.66,43.54 L384.66,50.23 L384.66,50.23 Z M369.24,42.01 L369.24,38.32 C369.24,35.7 369.1,34.02 368.82,33.26 C368.54,32.5 367.97,32.12 367.11,32.12 C366.04,32.12 365.38,32.44 365.13,33.09 C364.88,33.74 364.75,35.48 364.75,38.33 L364.75,42.02 L369.24,42.02 L369.24,42.01 Z" id="Shape" stroke="#FFFFFF" stroke-width="15" fill="#FFFFFF" fill-rule="nonzero" stroke-linecap="round" stroke-linejoin="round"></path>
                        <path d="M403.32,24.07 L403.05,28.88 C404.24,26.97 405.66,25.54 407.32,24.59 C408.97,23.64 410.85,23.16 412.96,23.16 C417.07,23.16 420.31,25.07 422.67,28.88 C423.96,26.97 425.42,25.54 427.05,24.59 C428.67,23.64 430.48,23.16 432.46,23.16 C435.07,23.16 437.24,23.8 438.95,25.06 C440.67,26.33 441.76,27.88 442.24,29.72 C442.72,31.56 442.96,34.55 442.96,38.69 L442.96,74.6 L428.03,74.6 L428.03,41.66 C428.03,37.34 427.88,34.67 427.59,33.64 C427.3,32.61 426.62,32.1 425.55,32.1 C424.46,32.1 423.75,32.61 423.44,33.62 C423.12,34.64 422.96,37.31 422.96,41.66 L422.96,74.6 L408.03,74.6 L408.03,42.5 C408.03,37.55 407.91,34.58 407.67,33.59 C407.43,32.6 406.76,32.1 405.67,32.1 C404.98,32.1 404.4,32.36 403.92,32.88 C403.44,33.4 403.17,34.04 403.12,34.78 C403.07,35.53 403.04,37.12 403.04,39.56 L403.04,74.59 L388.11,74.59 L388.11,24.06 L403.32,24.06 L403.32,24.07 Z" id="Path" stroke="#FFFFFF" stroke-width="15" fill="#FFFFFF" fill-rule="nonzero" stroke-linecap="round" stroke-linejoin="round"></path>
                        <path d="M480.05,24.07 L475.65,60.87 C474.95,66.69 474.37,70.67 473.9,72.79 C473.43,74.91 472.65,76.66 471.56,78.04 C470.47,79.42 468.95,80.43 467.01,81.09 C465.07,81.75 461.97,82.07 457.7,82.07 L448.37,82.07 L448.37,73.94 C450.76,73.94 452.3,73.82 452.99,73.58 C453.68,73.34 454.02,72.79 454.02,71.95 C454.02,71.54 453.7,69.77 453.07,66.62 L444.65,24.07 L458.62,24.07 L463.68,58.42 L466.14,24.07 L480.05,24.07 L480.05,24.07 Z" id="Path" stroke="#FFFFFF" stroke-width="15" fill="#FFFFFF" fill-rule="nonzero" stroke-linecap="round" stroke-linejoin="round"></path>
                        <rect id="Rectangle" stroke="#FFFFFF" stroke-width="15" fill="#FFFFFF" fill-rule="nonzero" stroke-linecap="round" stroke-linejoin="round" x="205.87" y="20.75" width="15.82" height="54.04"></rect>
                        <polygon id="Path" stroke="#FFFFFF" stroke-width="15" fill="#FFFFFF" fill-rule="nonzero" stroke-linecap="round" stroke-linejoin="round" points="145.71 12.78 145.71 74.43 129.87 74.43 129.87 12.78"></polygon>
                    </g>
                </g>
            </g>
            <g id="Logo">
                <g id="Group">
                    <g transform="translate(106.000000, 1.000000)">
                        <path d="M21.8,42.39 C21.87,42.44 21.83,42.61 21.78,42.64 C21.72,42.59 21.82,42.48 21.8,42.39 M21.58,42.53 C21.54,42.62 21.49,42.6 21.39,42.59 C21.41,42.5 21.41,42.54 21.38,42.45 C21.5,42.42 21.54,42.48 21.58,42.53 M7.02,28.79 C7.19,29.82 6.48,30.9 6.39,32.06 C6.34,32.7 6.3,33.33 6.09,33.82 C5.96,34.14 5.78,34.38 5.69,34.83 C5.65,35.02 5.56,35.23 5.54,35.39 C5.52,35.55 5.57,35.68 5.56,35.81 C5.54,35.99 5.41,36.16 5.41,36.34 C5.42,36.52 5.54,36.62 5.56,36.76 C5.68,37.34 5.38,37.58 5.16,37.93 C5.2,38.14 5.45,38.13 5.53,38.29 C5.51,38.47 5.41,38.59 5.38,38.77 C5.01,38.37 4.92,37.77 4.83,37.23 C4.73,36.61 4.72,35.92 4.73,35.27 C4.75,34.04 4.94,32.76 4.96,31.55 C4.99,28.9 5.36,26.6 5.92,24.5 C6.11,25.43 6.64,26.17 6.76,27.05 C6.8,27.36 6.67,27.62 6.71,27.92 C6.75,28.22 6.97,28.5 7.02,28.79 M23.26,41.68 C23.31,41.22 23.01,40.62 22.95,40.03 C22.92,39.76 22.95,39.49 22.92,39.25 C22.89,38.94 22.75,38.65 22.72,38.38 C22.69,38.1 22.74,37.82 22.69,37.54 C22.49,36.4 22.31,35.25 22.18,34.07 C22.05,32.89 21.98,31.68 21.77,30.49 C21.58,29.38 21.18,28.35 21.02,27.27 C20.74,25.44 20.74,23.4 20.82,21.67 C21.03,21.49 21.49,21.46 21.55,21.19 C21.6,20.93 21.25,20.28 21.21,20.07 C21,19.06 21.1,17.97 20.75,17.13 C20.65,16.9 20.42,16.68 20.23,16.46 C20.05,16.24 19.83,15.95 19.63,15.84 C19.04,15.53 18.3,15.36 17.67,15.17 C17,14.96 16.38,14.72 15.96,14.25 C15.79,14.06 15.73,13.78 15.5,13.69 C15.42,13.38 15.35,13.25 15.17,13.05 C15.15,12.53 15.18,12.07 15.14,11.54 C16.01,11.37 16.22,11.2 16.42,10.39 C16.54,9.9 16.76,9.43 16.78,8.85 C16.79,8.44 16.84,8.05 16.82,7.76 C16.79,6.99 16.12,6.56 16.07,6.03 C16.05,5.77 16.19,5.51 16.15,5.3 C16.13,5.18 16,5.1 15.89,4.94 C15.8,4.81 15.72,4.64 15.65,4.52 C15.4,4.09 15.11,3.75 15.28,3.32 C15.15,3.05 14.99,2.81 14.87,2.54 C14.6,2.52 14.38,2.17 14.05,2.06 C13.88,2 13.67,2.02 13.5,1.95 C13.3,1.87 13.14,1.75 12.97,1.73 C12.57,1.68 12.17,1.76 11.84,1.81 C11.61,1.85 11.4,1.96 11.16,2.01 C11.03,2.03 10.9,2.01 10.77,2.04 C10.38,2.13 10,2.37 9.69,2.6 C9.39,2.82 8.93,3.07 8.78,3.35 C8.54,3.78 8.35,4.48 8.32,5.03 C8.31,5.19 8.32,5.42 8.34,5.62 C8.49,6.77 8.94,8.17 9.4,8.95 C9.69,9.45 10.23,9.74 10.44,10.32 C10.5,10.49 10.51,10.69 10.6,10.88 C10.62,10.99 10.76,10.96 10.8,11.05 C10.85,11.61 10.7,11.98 10.51,12.31 C10.28,12.28 10.06,12.42 10.09,12.73 C9.95,12.65 9.84,12.64 9.67,12.67 C9.5,12.78 9.63,12.98 9.52,13.09 C9.38,13.23 9.14,13.17 8.81,13.17 C8.49,13.46 8.22,13.59 7.87,13.81 C7.69,13.92 7.55,14.07 7.38,14.12 C6.84,14.27 6.16,14.4 5.66,14.54 C5.47,14.6 5.24,14.59 5.06,14.65 C4.69,14.78 4.42,15.18 4.18,15.52 C3.95,15.84 3.68,16.11 3.55,16.44 C3.24,17.22 3.04,18.22 2.82,19.15 C2.74,19.48 2.58,19.87 2.58,20.07 C2.58,20.18 2.66,20.3 2.67,20.41 C2.73,21.05 2.6,21.82 2.53,22.54 C2.31,24.68 2.32,26.9 2.1,28.97 C1.86,31.16 2.21,33.52 2.53,35.54 C2.65,36.31 2.58,37.06 2.67,37.81 C2.69,38.04 2.84,38.27 2.86,38.51 C2.93,39.34 2.46,40.1 2.48,41.03 C2.48,41.18 2.53,41.35 2.55,41.53 C2.59,41.91 2.51,42.38 2.65,42.68 C2.7,42.8 2.89,42.89 2.99,43.02 C3.15,43.24 3.29,43.52 3.48,43.75 C3.56,43.85 3.69,43.93 3.79,44.03 C3.9,44.14 3.99,44.29 4.08,44.37 C4.26,44.54 4.57,44.65 4.62,44.82 C4.7,45.09 4.54,45.46 4.54,45.74 C4.54,45.91 4.58,46.07 4.59,46.24 C4.61,47.75 4.21,49.42 4.43,50.97 C4.47,51.22 4.58,51.51 4.54,51.78 C4.46,52.27 3.86,52.62 4.01,53.26 C3.69,53.85 3.52,54.17 3.5,55 C3.48,55.5 3.5,55.87 3.47,56.43 C3.44,56.93 3.28,57.5 3.17,58.05 C2.95,59.15 2.95,60.34 2.77,61.49 C2.43,63.72 2,65.98 1.8,68.23 C1.75,68.85 1.8,69.49 1.7,70.08 C1.67,70.26 1.53,70.49 1.56,70.67 C1.61,71.03 1.99,71.15 2.14,71.45 C2.03,71.75 1.95,72.07 1.87,72.4 C1.26,73.23 0.47,74.03 0.4,75.31 C1.28,75.38 2.75,75.62 3.88,75.53 C4.17,75.51 4.82,75.42 4.89,75.14 C4.94,74.93 4.72,74.73 4.76,74.52 C5.39,74.41 6.51,74.49 6.67,73.99 C6.83,73.5 6.31,72.73 6.36,72.28 C6.4,71.96 6.7,71.94 6.78,71.69 C6.87,71.39 6.73,71 6.74,70.6 C6.75,70.24 6.82,69.83 6.87,69.48 C6.95,68.86 7.17,68.26 7.27,67.63 C7.38,66.95 7.38,66.26 7.44,65.53 C7.47,65.23 7.57,64.9 7.63,64.58 C7.89,62.96 8.3,61.47 8.62,59.88 C8.75,59.24 8.79,58.53 8.99,57.95 C9.1,57.63 9.33,57.35 9.45,57.05 C9.75,56.37 10,55.77 10.15,55.04 C10.23,54.67 10.38,54.31 10.44,53.95 C10.61,52.97 10.46,51.99 10.67,51.04 C10.74,50.7 10.88,50.39 10.94,50.03 C10.99,49.65 10.97,49.24 11.03,48.85 C11.06,48.65 11.17,48.44 11.23,48.24 C11.29,48.02 11.31,47.76 11.37,47.54 C11.44,47.3 11.59,47.06 11.67,46.81 C11.94,46.01 12.18,45.25 12.58,44.63 C12.85,45.91 12.31,47.19 12.51,48.63 C12.54,48.87 12.65,49.09 12.67,49.33 C12.78,50.35 12.6,51.55 12.59,52.46 C12.59,52.8 12.65,53.15 12.66,53.49 C12.67,53.9 12.61,54.32 12.59,54.75 C12.58,55.19 12.63,55.66 12.58,56.06 C12.53,56.51 12.37,56.95 12.32,57.4 C12.22,58.39 12.15,59.4 12.12,60.39 C12.11,60.93 12.17,61.48 12.12,62.01 C12.07,62.63 11.83,63.24 11.72,63.89 C11.45,65.51 11.32,67.32 11.22,69.07 C11.2,69.44 11.22,69.84 11.18,70.19 C11.17,70.3 11.08,70.44 11.08,70.55 C11.09,70.71 11.2,70.69 11.17,70.83 C11.11,71.05 11.07,71.43 11.15,71.7 C11.05,71.91 11.02,72.18 10.96,72.45 C10.9,72.73 10.76,73.06 10.82,73.29 C10.91,73.58 11.48,73.72 11.8,73.77 C12.26,73.83 12.71,73.82 13.08,73.94 C12.8,74.66 13.35,74.82 13.86,74.98 C14.9,75.29 16.59,75.1 17.44,74.92 C17.53,74.55 17.34,74.25 17.27,74.02 C17.23,73.9 17.25,73.79 17.2,73.68 C16.88,72.85 15.9,72.49 15.8,71.44 C15.94,71.38 16.17,71.41 16.32,71.36 C16.39,70.7 16.13,69.97 16.16,69.26 C16.18,68.85 16.33,68.4 16.42,67.97 C16.5,67.54 16.64,67.11 16.7,66.68 C16.84,65.73 16.88,64.82 16.92,63.77 C16.96,62.92 17.07,61.94 17.15,60.97 C17.23,60.01 17.28,59.01 17.49,58.26 C17.63,57.76 17.96,57.18 18.2,56.64 C18.45,56.1 18.84,55.46 18.91,54.96 C19.08,53.72 19.1,52.44 19.19,51.18 C19.28,49.95 19.38,48.71 19.52,47.46 C19.59,46.87 19.62,46.25 19.76,45.67 C19.89,45.11 20.01,44.54 20.08,43.96 C20.32,42.04 20.77,39.92 20.46,37.64 C20.42,37.37 20.32,37.07 20.32,36.8 C20.32,36.69 20.39,36.64 20.39,36.55 C20.4,36.42 20.26,36.33 20.32,36.16 C20.45,36.98 21.22,37.68 21.02,38.68 C20.98,38.87 20.86,39.01 20.82,39.18 C20.75,39.45 20.7,39.76 20.74,40.07 C20.77,40.29 20.92,40.5 20.96,40.71 C21.06,41.32 20.64,42.34 21.2,42.67 C21.3,42.73 21.5,42.72 21.62,42.73 C21.52,43.17 20.81,43.13 20.97,43.74 C20.59,43.73 20.4,44.31 20.67,44.61 C21.02,44.64 21.07,44.41 21.41,44.5 C21.72,44.29 22.01,43.99 22.29,43.77 C22.41,43.68 22.54,43.65 22.61,43.55 C22.84,43.23 22.82,42.75 22.95,42.26 C23.04,42.1 23.24,41.89 23.26,41.68" id="Shape" fill="#000000" fill-rule="nonzero"></path>
                        <path d="M15.71,12.3 C15.71,12.3 16.01,13.75 15.41,14.76 C14.81,15.78 13.16,18.53 13.16,18.53 C13.16,18.53 11.66,15.28 11.06,14.33 C10.46,13.38 9.56,11.51 9.56,11.51 L5.96,13.75 L4.61,14.47 C4.61,14.47 5.96,14.91 6.11,17.08 C6.26,19.25 5.81,20.64 5.81,22.01 C5.81,23.37 6.11,24.72 6.11,24.72 L5.21,37.51 C5.21,37.51 6.41,38.47 7.91,38.47 L11.83,38.47 C13.16,38.47 13.75,36.93 13.75,36.93 C13.75,36.93 13.68,38.15 14.35,38.47 C15.4,38.98 15.92,38.98 17.05,38.98 C18.18,38.98 20.05,38.47 20.05,38.47 C20.05,38.47 18.8,31.86 18.85,30.55 C19,26.64 19.9,24.17 19.6,22.44 C19.41,21.36 19.15,20.34 19.15,19.11 C19.15,18.1 20.05,15.05 20.05,15.05 L15.71,12.3 Z" id="Path" fill="#FFCC00" fill-rule="nonzero"></path>
                        <g>
                            <path d="M21.78,42.64 C21.71,42.59 21.82,42.48 21.8,42.39 C21.87,42.44 21.83,42.61 21.78,42.64 Z M21.39,42.58 C21.41,42.49 21.41,42.53 21.38,42.44 C21.49,42.42 21.53,42.48 21.58,42.52 C21.54,42.61 21.49,42.6 21.39,42.58 Z M6.39,32.06 C6.34,32.7 6.3,33.33 6.09,33.82 C5.96,34.14 5.78,34.38 5.69,34.83 C5.65,35.02 5.56,35.23 5.54,35.39 C5.52,35.55 5.57,35.68 5.56,35.81 C5.54,35.99 5.41,36.16 5.41,36.34 C5.42,36.52 5.54,36.62 5.56,36.76 C5.68,37.34 5.38,37.58 5.16,37.93 C5.2,38.14 5.45,38.13 5.53,38.29 C5.51,38.47 5.41,38.59 5.38,38.77 C5.01,38.37 4.92,37.77 4.83,37.23 C4.73,36.61 4.72,35.92 4.73,35.27 C4.75,34.04 4.94,32.76 4.96,31.55 C4.99,28.9 5.36,26.6 5.92,24.5 C6.11,25.43 6.64,26.17 6.76,27.05 C6.8,27.36 6.67,27.62 6.71,27.92 C6.75,28.22 6.97,28.5 7.02,28.79 C7.19,29.82 6.48,30.9 6.39,32.06 Z M22.95,40.03 C22.92,39.76 22.95,39.49 22.92,39.25 C22.89,38.94 22.75,38.65 22.72,38.38 C22.69,38.1 22.74,37.82 22.69,37.54 C22.49,36.4 22.31,35.25 22.18,34.07 C22.05,32.89 21.98,31.68 21.77,30.49 C21.58,29.38 21.18,28.35 21.02,27.27 C20.74,25.44 20.74,23.4 20.82,21.67 C21.03,21.49 21.49,21.46 21.55,21.19 C21.6,20.93 21.25,20.28 21.21,20.07 C21,19.06 21.1,17.97 20.75,17.13 C20.65,16.9 20.42,16.68 20.23,16.46 C20.04,16.24 19.83,15.95 19.63,15.84 C19.04,15.53 18.3,15.36 17.67,15.17 C17,14.96 16.38,14.72 15.96,14.25 C15.79,14.06 15.73,13.78 15.5,13.69 C15.42,13.38 15.35,13.25 15.17,13.05 C15.15,12.53 15.18,12.07 15.14,11.54 C16.01,11.37 16.22,11.2 16.42,10.39 C16.54,9.9 16.76,9.43 16.78,8.85 C16.79,8.44 16.84,8.05 16.82,7.76 C16.79,6.99 16.12,6.56 16.07,6.03 C16.05,5.77 16.19,5.51 16.15,5.3 C16.13,5.18 16,5.1 15.89,4.94 C15.8,4.81 15.72,4.64 15.65,4.52 C15.4,4.09 15.11,3.75 15.28,3.32 C15.15,3.05 14.99,2.81 14.87,2.54 C14.6,2.52 14.38,2.17 14.05,2.06 C13.88,2 13.67,2.02 13.49,1.95 C13.29,1.87 13.13,1.75 12.96,1.73 C12.56,1.68 12.16,1.76 11.83,1.81 C11.6,1.85 11.39,1.96 11.15,2.01 C11.02,2.03 10.89,2.01 10.76,2.04 C10.37,2.13 9.99,2.37 9.68,2.6 C9.38,2.82 8.92,3.07 8.77,3.35 C8.53,3.78 8.34,4.48 8.31,5.03 C8.3,5.19 8.31,5.42 8.33,5.62 C8.48,6.77 8.93,8.17 9.39,8.95 C9.68,9.45 10.22,9.74 10.43,10.32 C10.49,10.49 10.5,10.69 10.59,10.88 C10.61,10.99 10.75,10.96 10.79,11.05 C10.84,11.61 10.69,11.98 10.5,12.31 C10.27,12.28 10.05,12.42 10.08,12.73 C9.94,12.65 9.83,12.64 9.66,12.67 C9.49,12.78 9.62,12.98 9.51,13.09 C9.37,13.23 9.13,13.17 8.8,13.17 C8.48,13.46 8.21,13.59 7.86,13.81 C7.68,13.92 7.54,14.07 7.37,14.12 C6.83,14.27 6.15,14.4 5.65,14.54 C5.46,14.6 5.23,14.59 5.05,14.65 C4.68,14.78 4.41,15.18 4.17,15.52 C3.94,15.84 3.67,16.11 3.54,16.44 C3.24,17.22 3.04,18.22 2.81,19.15 C2.73,19.48 2.57,19.87 2.57,20.07 C2.57,20.18 2.65,20.3 2.66,20.41 C2.72,21.05 2.59,21.82 2.52,22.54 C2.3,24.68 2.31,26.9 2.09,28.97 C1.85,31.16 2.2,33.52 2.52,35.54 C2.64,36.31 2.57,37.06 2.66,37.81 C2.68,38.04 2.83,38.26 2.85,38.51 C2.92,39.34 2.45,40.1 2.47,41.03 C2.47,41.18 2.52,41.35 2.54,41.53 C2.58,41.91 2.5,42.38 2.64,42.68 C2.69,42.8 2.88,42.89 2.98,43.02 C3.14,43.24 3.28,43.52 3.47,43.75 C3.55,43.85 3.68,43.93 3.78,44.03 C3.89,44.14 3.98,44.29 4.07,44.37 C4.25,44.54 4.56,44.65 4.61,44.82 C4.69,45.09 4.53,45.46 4.53,45.74 C4.53,45.91 4.57,46.07 4.58,46.24 C4.6,47.75 4.2,49.42 4.42,50.97 C4.46,51.22 4.57,51.51 4.53,51.78 C4.45,52.27 3.85,52.62 4,53.26 C3.68,53.85 3.51,54.17 3.49,55 C3.47,55.5 3.49,55.87 3.46,56.43 C3.43,56.93 3.27,57.5 3.16,58.05 C2.94,59.15 2.94,60.34 2.76,61.49 C2.42,63.72 1.99,65.98 1.79,68.23 C1.74,68.85 1.79,69.49 1.69,70.08 C1.66,70.26 1.52,70.49 1.55,70.67 C1.6,71.03 1.98,71.15 2.13,71.45 C2.02,71.75 1.94,72.07 1.86,72.4 C1.25,73.23 0.46,74.03 0.39,75.31 C1.27,75.38 2.74,75.62 3.87,75.53 C4.16,75.51 4.81,75.42 4.88,75.14 C4.93,74.93 4.71,74.73 4.75,74.52 C5.38,74.41 6.5,74.49 6.66,73.99 C6.82,73.5 6.3,72.73 6.35,72.28 C6.39,71.96 6.69,71.94 6.77,71.69 C6.86,71.39 6.72,71 6.73,70.6 C6.74,70.24 6.81,69.83 6.86,69.48 C6.94,68.86 7.16,68.26 7.26,67.63 C7.37,66.95 7.37,66.26 7.43,65.53 C7.46,65.23 7.56,64.9 7.62,64.58 C7.88,62.96 8.29,61.47 8.61,59.88 C8.74,59.24 8.78,58.53 8.98,57.95 C9.09,57.63 9.32,57.35 9.44,57.05 C9.74,56.37 9.99,55.77 10.14,55.04 C10.22,54.67 10.37,54.31 10.43,53.95 C10.6,52.97 10.45,51.99 10.66,51.04 C10.73,50.7 10.87,50.39 10.93,50.03 C10.98,49.65 10.96,49.24 11.02,48.85 C11.05,48.65 11.16,48.44 11.22,48.24 C11.28,48.02 11.3,47.76 11.36,47.54 C11.43,47.3 11.58,47.06 11.66,46.81 C11.93,46.01 12.17,45.25 12.57,44.63 C12.84,45.91 12.3,47.19 12.5,48.63 C12.53,48.87 12.64,49.09 12.66,49.33 C12.77,50.35 12.59,51.55 12.58,52.46 C12.58,52.8 12.64,53.15 12.64,53.49 C12.65,53.9 12.59,54.32 12.58,54.75 C12.57,55.19 12.62,55.66 12.57,56.06 C12.52,56.51 12.36,56.95 12.31,57.4 C12.21,58.39 12.14,59.4 12.11,60.39 C12.1,60.93 12.16,61.48 12.11,62.01 C12.06,62.63 11.82,63.24 11.71,63.89 C11.44,65.51 11.31,67.32 11.21,69.07 C11.19,69.44 11.21,69.84 11.17,70.19 C11.16,70.3 11.07,70.44 11.07,70.55 C11.08,70.71 11.19,70.69 11.16,70.83 C11.1,71.05 11.06,71.43 11.14,71.7 C11.04,71.91 11.01,72.18 10.95,72.45 C10.89,72.73 10.75,73.06 10.81,73.29 C10.9,73.58 11.47,73.72 11.79,73.77 C12.25,73.83 12.7,73.82 13.07,73.94 C12.79,74.66 13.34,74.82 13.85,74.98 C14.89,75.29 16.58,75.1 17.43,74.92 C17.52,74.55 17.33,74.25 17.26,74.02 C17.22,73.9 17.24,73.79 17.19,73.68 C16.87,72.85 15.89,72.49 15.79,71.44 C15.93,71.38 16.16,71.41 16.31,71.36 C16.38,70.7 16.12,69.97 16.15,69.26 C16.17,68.85 16.32,68.4 16.41,67.97 C16.49,67.54 16.63,67.11 16.69,66.68 C16.83,65.73 16.87,64.82 16.91,63.77 C16.95,62.92 17.06,61.94 17.14,60.97 C17.22,60.01 17.27,59.01 17.48,58.26 C17.62,57.76 17.95,57.18 18.19,56.64 C18.44,56.1 18.83,55.46 18.9,54.96 C19.07,53.72 19.09,52.44 19.18,51.18 C19.27,49.95 19.37,48.71 19.51,47.46 C19.58,46.87 19.61,46.25 19.75,45.67 C19.88,45.11 20,44.54 20.07,43.96 C20.31,42.04 20.76,39.92 20.45,37.64 C20.41,37.37 20.31,37.07 20.31,36.8 C20.31,36.69 20.38,36.64 20.38,36.55 C20.39,36.42 20.25,36.33 20.31,36.16 C20.44,36.98 21.21,37.68 21.01,38.68 C20.97,38.87 20.85,39.01 20.81,39.18 C20.74,39.45 20.69,39.76 20.73,40.07 C20.76,40.29 20.91,40.5 20.95,40.71 C21.05,41.32 20.63,42.34 21.19,42.67 C21.29,42.73 21.49,42.72 21.61,42.73 C21.51,43.17 20.8,43.13 20.96,43.74 C20.58,43.73 20.39,44.31 20.66,44.61 C21.01,44.64 21.06,44.41 21.4,44.5 C21.71,44.29 22,43.99 22.28,43.77 C22.4,43.68 22.53,43.65 22.6,43.55 C22.83,43.23 22.81,42.75 22.94,42.26 C22.99,42.06 23.2,41.85 23.22,41.64 C23.31,41.23 23.02,40.62 22.95,40.03 Z" id="Shape" stroke="#000000" stroke-width="0.7797"></path>
                            <path d="M7.38,5.1 C7.29,4.36 7.58,4.28 7.58,4.28 C7.58,4.28 7.28,2.14 9.52,1.06 C11.77,-0.02 13.68,-0.05 15.12,1.12 C16.09,1.9 16.28,3.41 16.28,3.41 C16.28,3.41 17.78,3.64 17.7900767,4.07 C17.8,4.51 16.83,4.83 16.5,4.94 C16.17,5.05 13.31,5.94 9.42,6.09 C9.42,6.09 7.62,5.95 7.38,5.1" id="Path" fill="#FFCC00" fill-rule="nonzero"></path>
                            <path d="M7.21,5.32 C7.08,4.58 7.42,4.33 7.42,4.33 C7.42,4.33 7.28,2.15 9.52,1.07 C11.77,-0.01 13.68,-0.04 15.12,1.13 C16.09,1.91 16.28,3.42 16.28,3.42 C16.28,3.42 17.78,3.65 17.7900767,4.08 C17.8,4.52 16.83,4.84 16.5,4.95 C16.17,5.06 13.31,5.95 9.42,6.1 C9.42,6.09 7.44,6.16 7.21,5.32 Z" id="Path" stroke="#000000" stroke-width="0.7797"></path>
                        </g>
                    </g>
                    <g transform="translate(130.000000, 0.000000)">
                        <g transform="translate(0.000000, 2.000000)">
                            <g fill="#000000" fill-rule="nonzero" id="Path">
                                <path d="M5.75,50.66 L5.06,48.55 C4.56,47.4 3.97,46.63 3.71,45.5 C3.33,43.85 2.92,42.41 2.8,40.6 C2.01,40.24 2.07,39.48 1.89,38.35 C1.77,37.61 1.38,36.91 1.4,36.36 C1.41,35.96 1.63,35.62 1.61,35.23 C1.59,34.93 1.35,34.62 1.33,34.3 C1.27,33.32 2.3,32.46 2.59,31.45 C2.84,30.59 2.65,29.66 2.73,28.6 C2.8,27.63 3.1,26.75 3.15,25.82 C3.32,22.78 2.94,19.65 3.92,17.27 C4.42,16.06 4.77,14.78 5.39,14.02 C6.08,13.19 7.7,12.4 7.07,10.71 C6.06,10.7 5.56,10.6 5.07,10.1 C5.22,9.11 4.76,8.42 4.96,7.6 C4.9,7.35 4.43,7.49 4.4,7.2 C4.46,6.74 5.02,6.2 5.31,5.74 C4.73,5.52 5.35,5.48 4.89,4.94 C5.08,4.26 5.49,3.78 5.8,3.22 C4.05,2.48 5.82,1.66 7.27,1.23 C7.73,1.1 8.11,0.84 8.46,0.77 C8.94,0.67 9.64,0.7 10,0.7 C10.05,0.7 10.13,0.56 10.21,0.569488704 C10.96,0.65 11.75,1.54 12.31,1.23 C12.97,2.01 13.88,2.54 14.06,3.81 C14.22,4.91 13.19,5.84 13.28,7.13 C12.82,7.54 13.14,8.85 13,9.77 C12.68,9.98 12.67,9.87 12.23,10.1 C12.66,10.78 12.63,12.02 13.7,11.89 C14.21,12.64 15.27,13.02 15.87,13.75 C16.69,14.73 17.69,16.79 17.55,18.65 C17.49,19.46 17.1,20.28 17.06,21.17 C17.03,21.86 17.26,22.5 17.2,23.16 C17.15,23.68 16.98,24.19 16.85,24.68 C16.73,25.15 16.41,25.63 16.36,26.07 C16.3,26.6 16.59,27.18 16.57,27.73 C16.52,28.99 15.8,30.37 15.52,31.84 C15.03,34.4 15.42,37.38 15.1,39.92 C14.91,41.41 15.39,47.07 15.44,48.92 L15.94,57.87 C16.21,60.43 16.14,63.8 16.01,66.48 C15.98,67.18 16.18,67.98 15.66,68.27 C15.8,69.03 16.02,70.92 15.94,71.67 C14.82,72.24 12.98,71.79 11.8,71.6 C11.66,72.11 11.87,71.79 11.8,72.44 C11.27,72.66 10.46,72.87 9.63,72.84 C9.36,72.83 9.03,72.69 8.79,72.71 C8.43,72.74 8.04,73.06 7.67,73.17 C6.58,73.51 5.05,73.59 3.67,73.5 C2.35,73.42 1,73.34 0.16,72.51 C0.82,70.86 3.85,71.44 4.58,69.86 C4.67,69.51 4.2,69.68 4.3,69.33 C4.56,68.94 4.62,68.35 5.28,68.34 C5.56,66.97 6.23,65.27 6.3,64.01 C6.3,64.01 5.92,60.57 5.92,58.38 C5.96,56.2 6.21,52.57 5.75,50.66 Z"></path>
                            </g>
                            <g>
                                <path d="M13.08,11.54 C13.08,11.54 10.82,13.2 7.23,12.49 C4.51,11.95 2,13.53 2,13.53 L1.38,22.62 L0.15,35.28 C0.15,35.28 1.78,35.22 3.04,35.77 C4.3,36.32 6.3,36.32 6.3,36.32 C6.3,36.32 6.7,31.67 6.96,29.75 C7.22,27.83 7.45,26.09 7.51,24.03 C7.6,20.78 7.07,16.85 7.33,15.65 C7.7,13.94 11.26,14.07 11.84,15.77 C12.46,17.56 12.76,18.97 12.76,24.22 C12.76,29.47 10.56,36.39 10.56,36.39 L15.76,35.73 L18.41,16.07 L15.76,11.54 L13.08,11.54 L13.08,11.54 Z" id="Path" fill="#FFCC00" fill-rule="nonzero"></path>
                                <g id="SVGID_7_-link" stroke-linecap="round" stroke-linejoin="round" stroke="#000000" stroke-width="0.7799">
                                    <path d="M10.22,0.57 C10.96,0.65 11.76,1.54 12.32,1.23 C12.97,2.01 13.89,2.54 14.07,3.81 C14.23,4.91 13.67,5.89 13.3,7.13 C13.04,7.98 13.18,8.29 13.08,9.21 C13.02,9.77 12.69,9.87 12.25,10.1 C12.68,10.77 12.65,12.02 13.72,11.89 C14.23,12.64 15.29,13.02 15.89,13.74 C16.71,14.72 17.71,16.78 17.57,18.64 C17.51,19.45 17.12,20.27 17.08,21.16 C17.05,21.85 17.28,22.49 17.22,23.15 C17.17,23.67 17,24.18 16.87,24.67 C16.75,25.14 16.43,25.62 16.38,26.06 C16.32,26.59 16.61,27.17 16.59,27.72 C16.54,28.98 15.82,30.36 15.54,31.83 C15.05,34.39 15.44,37.36 15.12,39.91 C14.93,41.4 15.41,47.06 15.46,48.91 L15.96,57.86 C16.23,60.42 16.16,63.79 16.03,66.47 C16,67.17 16.2,67.97 15.68,68.26 C15.82,69.03 16.04,70.92 15.96,71.66 C14.84,72.23 13,71.78 11.82,71.59 C11.68,72.09 11.89,71.78 11.82,72.43 C11.28,72.65 10.48,72.86 9.65,72.83 C9.39,72.82 9.05,72.68 8.81,72.7 C8.45,72.73 8.07,73.05 7.69,73.17 C6.6,73.51 5.07,73.59 3.69,73.5 C2.37,73.42 1.02,73.34 0.18,72.51 C0.84,70.86 3.87,71.44 4.6,69.86 C4.69,69.51 4.22,69.68 4.32,69.33 C4.58,68.94 4.64,68.36 5.3,68.34 C5.58,66.97 6.42,66.13 6.91,64.96 C6.64,64.2 7.09,63.34 7.47,62.51 C7.72,61.95 8.32,61.24 8.31,60.79 C8.29,60.31 7.6,59.92 7.4,59.47 C7.17,58.97 7.29,58.63 7.05,58.08 C5.63,57.85 7.05,55.79 6.23,54.98 C5.67,54.43 6.26,52.1 5.73,50.66 L5.04,48.55 C4.54,47.4 3.95,46.63 3.69,45.5 C3.31,43.85 2.9,42.41 2.78,40.6 C1.99,40.24 2.05,39.48 1.87,38.35 C1.75,37.61 1.36,36.91 1.38,36.36 C1.39,35.96 1.61,35.62 1.59,35.23 C1.57,34.93 1.33,34.62 1.31,34.3 C1.25,33.32 2.28,32.46 2.57,31.45 C2.82,30.59 2.63,29.66 2.71,28.6 C2.78,27.63 3.08,26.75 3.13,25.82 C3.3,22.78 2.92,19.65 3.9,17.27 C4.4,16.06 4.75,14.78 5.37,14.02 C6.06,13.19 7.68,12.4 7.05,10.71 C6.04,10.7 5.54,10.6 5.05,10.1 C5.2,9.11 4.74,8.42 4.94,7.6 C4.88,7.35 4.41,7.49 4.38,7.2 C4.44,6.74 5,6.2 5.29,5.74 C4.7,5.53 5.33,5.48 4.87,4.94 C5.06,4.26 5.47,3.78 5.78,3.22 C4.03,2.48 5.8,1.66 7.25,1.23 C7.71,1.1 8.09,0.84 8.44,0.76 C8.92,0.66 9.62,0.69 9.98,0.69 C10.06,0.71 10.14,0.57 10.22,0.57 C10.22,0.57 10.22,0.57 10.22,0.57" id="SVGID_7_"></path>
                                </g>
                            </g>
                        </g>
                        <path d="M12.77,6.6 C14.44,6.47 14.88,6.22 14.88,5.28 C14.88,4.78 14.38,4.45 14.38,4.45 C14.38,4.45 14.51,1.38 11.86,0.55 C9.21,-0.28 6.95,0.44 5.55,1.9 C4.6,2.88 4.64,4.51 4.64,4.51 C4.64,4.51 3.03,4.74 3.08,5.44 C3.11,5.91 4.26,6.11 4.64,6.18 C4.63,6.18 7.94,6.98 12.77,6.6 Z" id="Path" stroke="#000000" stroke-width="0.7464" fill="#FFCC00" fill-rule="nonzero"></path>
                    </g>
                    <path d="M367.21,151.48 L366.22,155.37 L365.73,157.31 L365.5,158.29 L365.26,159.26 L365.22,159.26 L364.88,158.29 L364.55,157.31 L363.87,155.37 L362.53,151.48 L361.17,151.48 L364.33,160.22 L364.81,160.22 C364.76,160.41 364.73,160.52 364.73,160.55 L364.48,161.41 C364.14,162.56 363.63,163.12 362.94,163.08 C362.82,163.07 362.67,163.05 362.49,163.02 L362.49,164.08 C362.74,164.12 362.94,164.14 363.1,164.14 C363.89,164.14 364.49,163.9 364.91,163.41 C365.33,162.92 365.72,162.03 366.07,160.72 L368.55,151.48 L367.21,151.48 Z M352.71,160.22 L353.99,160.22 L353.99,154.96 C353.99,153.26 354.89,152.41 356.69,152.41 C357.51,152.41 358.06,152.54 358.34,152.8 C358.63,153.06 358.77,153.56 358.77,154.31 L358.77,154.64 L358.77,160.22 L360.05,160.22 L360.05,154.53 C360.05,153.29 359.83,152.45 359.39,152.01 C358.95,151.57 358.1,151.35 356.85,151.35 C355.3,151.35 354.33,151.8 353.94,152.69 L353.9,152.66 L353.94,151.47 L352.71,151.47 L352.71,160.22 Z M348.6,156.25 C348.95,156.49 349.13,156.95 349.13,157.64 C349.13,158.74 348.23,159.28 346.42,159.28 C345.52,159.28 344.93,159.17 344.64,158.94 C344.35,158.71 344.2,158.24 344.2,157.54 C344.2,156.86 344.35,156.41 344.64,156.21 C344.94,156 345.58,155.9 346.56,155.9 C347.57,155.89 348.25,156.01 348.6,156.25 M344.5,153.67 C344.5,152.79 345.29,152.34 346.86,152.34 C347.79,152.34 348.39,152.49 348.66,152.78 C348.93,153.08 349.07,153.72 349.07,154.72 L349.07,155.78 L349.04,155.79 C348.74,155.19 347.82,154.89 346.28,154.89 C344.99,154.89 344.1,155.09 343.6,155.49 C343.1,155.89 342.86,156.62 342.86,157.67 C342.86,159.44 343.96,160.33 346.17,160.33 C347.66,160.33 348.65,159.97 349.14,159.25 L349.17,159.26 L349.07,160.2 L350.35,160.2 L350.35,154.43 C350.35,153.22 350.09,152.41 349.58,151.98 C349.07,151.55 348.08,151.34 346.63,151.34 C345.29,151.34 344.39,151.52 343.93,151.87 C343.47,152.22 343.24,152.9 343.24,153.92 L344.51,153.92 C344.5,153.8 344.5,153.71 344.5,153.67 M339.36,153.07 C339.66,153.51 339.81,154.47 339.81,155.96 C339.81,157.31 339.65,158.21 339.35,158.64 C339.04,159.07 338.41,159.29 337.45,159.29 C336.44,159.29 335.77,159.07 335.43,158.62 C335.09,158.17 334.93,157.27 334.93,155.93 C334.93,154.47 335.09,153.52 335.4,153.08 C335.71,152.64 336.38,152.42 337.4,152.42 C338.4,152.41 339.06,152.63 339.36,153.07 M333.62,163.96 L334.9,163.96 L334.9,159.18 L334.93,159.18 C335.39,159.95 336.34,160.34 337.78,160.34 C339.04,160.34 339.92,160.02 340.41,159.38 C340.9,158.74 341.15,157.61 341.15,155.97 C341.15,154.2 340.91,152.99 340.42,152.33 C339.93,151.67 339.04,151.34 337.74,151.34 C336.27,151.34 335.31,151.76 334.87,152.6 L334.83,152.57 L334.89,151.46 L333.61,151.46 L333.61,163.96 L333.62,163.96 Z M318.16,160.22 L319.44,160.22 L319.44,155.26 C319.44,153.37 320.31,152.42 322.05,152.42 C323.34,152.42 323.98,152.98 323.98,154.11 L324,154.51 L324,160.22 L325.28,160.22 L325.28,155.17 C325.28,154.1 325.46,153.37 325.82,152.99 C326.18,152.61 326.87,152.42 327.88,152.42 C328.64,152.42 329.16,152.56 329.43,152.83 C329.7,153.1 329.84,153.63 329.84,154.39 L329.84,160.22 L331.12,160.22 L331.12,154.51 C331.12,152.41 330.09,151.36 328.03,151.36 C326.57,151.36 325.57,151.85 325.02,152.83 L324.98,152.83 C324.66,151.85 323.76,151.36 322.28,151.36 C320.87,151.36 319.92,151.85 319.43,152.83 L319.4,152.8 L319.43,151.48 L318.15,151.48 L318.15,160.22 L318.16,160.22 Z M314.42,152.96 C314.69,153.33 314.83,154.29 314.83,155.84 C314.83,157.39 314.69,158.35 314.42,158.72 C314.15,159.09 313.44,159.27 312.3,159.27 C311.17,159.27 310.46,159.09 310.19,158.72 C309.92,158.35 309.78,157.39 309.78,155.84 C309.78,154.29 309.92,153.33 310.19,152.96 C310.46,152.59 311.16,152.41 312.3,152.41 C313.45,152.41 314.15,152.59 314.42,152.96 M309.17,152.19 C308.69,152.75 308.45,153.97 308.45,155.85 C308.45,157.73 308.69,158.95 309.17,159.51 C309.65,160.07 310.7,160.35 312.3,160.35 C313.91,160.35 314.96,160.07 315.44,159.51 C315.92,158.95 316.16,157.73 316.16,155.85 C316.16,153.97 315.92,152.75 315.44,152.19 C314.96,151.63 313.91,151.35 312.3,151.35 C310.7,151.35 309.65,151.63 309.17,152.19 M305.79,156.79 C305.79,157.85 305.58,158.5 305.17,158.76 C304.76,159.02 303.72,159.15 302.07,159.15 C300.33,159.15 299.31,158.85 299.01,158.25 C298.71,157.65 298.56,155.59 298.56,152.09 C298.56,150.57 298.78,149.64 299.23,149.3 C299.67,148.96 300.9,148.8 302.91,148.8 C304.06,148.8 304.79,148.94 305.12,149.23 C305.45,149.52 305.61,150.16 305.61,151.17 L305.62,151.55 L307.02,151.55 L307.01,151.21 C307.01,149.79 306.73,148.84 306.18,148.35 C305.63,147.86 304.56,147.61 302.97,147.61 C300.62,147.61 299.1,147.87 298.39,148.38 C297.79,148.82 297.42,149.32 297.29,149.87 C297.16,150.43 297.1,151.79 297.1,153.95 C297.1,156.72 297.38,158.47 297.95,159.22 C298.52,159.97 299.84,160.34 301.93,160.34 C304.26,160.34 305.72,160.13 306.3,159.7 C306.88,159.28 307.17,158.21 307.17,156.51 L307.17,156.03 L305.77,156.03 L305.79,156.79 Z M289.04,153.07 C289.34,153.51 289.49,154.47 289.49,155.96 C289.49,157.31 289.34,158.21 289.03,158.64 C288.72,159.07 288.09,159.29 287.13,159.29 C286.12,159.29 285.45,159.07 285.11,158.62 C284.77,158.17 284.61,157.27 284.61,155.93 C284.61,154.47 284.77,153.52 285.08,153.08 C285.39,152.64 286.06,152.42 287.08,152.42 C288.08,152.41 288.74,152.63 289.04,153.07 M283.3,163.96 L284.58,163.96 L284.58,159.18 L284.61,159.18 C285.07,159.95 286.02,160.34 287.46,160.34 C288.72,160.34 289.6,160.02 290.09,159.38 C290.58,158.74 290.83,157.61 290.83,155.97 C290.83,154.2 290.59,152.99 290.1,152.33 C289.61,151.67 288.72,151.34 287.42,151.34 C285.95,151.34 285,151.76 284.55,152.6 L284.51,152.57 L284.57,151.46 L283.29,151.46 L283.29,163.96 L283.3,163.96 Z M279.65,151.48 L279.65,156.49 C279.65,157.56 279.46,158.29 279.09,158.69 C278.72,159.09 278.03,159.29 277.02,159.29 C276.25,159.29 275.74,159.16 275.48,158.89 C275.22,158.62 275.09,158.09 275.09,157.3 L275.09,151.49 L273.81,151.49 L273.81,157.3 C273.81,159.34 274.83,160.35 276.87,160.35 C278.33,160.35 279.28,159.92 279.72,159.05 L279.75,159.08 L279.66,160.22 L280.94,160.22 L280.94,151.48 L279.65,151.48 Z M270.06,152.96 C270.33,153.33 270.47,154.29 270.47,155.84 C270.47,157.39 270.33,158.35 270.06,158.72 C269.79,159.09 269.09,159.27 267.95,159.27 C266.82,159.27 266.11,159.09 265.84,158.72 C265.57,158.35 265.43,157.39 265.43,155.84 C265.43,154.29 265.56,153.33 265.84,152.96 C266.11,152.59 266.81,152.41 267.95,152.41 C269.08,152.41 269.79,152.59 270.06,152.96 M264.81,152.19 C264.33,152.75 264.09,153.97 264.09,155.85 C264.09,157.73 264.33,158.95 264.81,159.51 C265.29,160.07 266.34,160.35 267.94,160.35 C269.55,160.35 270.6,160.07 271.08,159.51 C271.56,158.95 271.8,157.73 271.8,155.85 C271.8,153.97 271.56,152.75 271.08,152.19 C270.6,151.63 269.55,151.35 267.94,151.35 C266.33,151.35 265.29,151.63 264.81,152.19 M257,160.22 L258.28,160.22 L258.28,154.98 C258.28,153.22 258.99,152.34 260.42,152.34 C261.39,152.34 261.88,152.79 261.88,153.68 C261.88,153.76 261.87,153.91 261.85,154.15 L261.82,154.37 L263.08,154.37 L263.09,153.77 C263.09,152.11 262.29,151.28 260.68,151.28 C259.52,151.28 258.68,151.69 258.18,152.51 L258.15,152.48 L258.28,151.47 L257,151.47 L257,160.22 Z M249.8,155.2 L253.77,155.2 C253.82,155.6 253.84,155.85 253.84,155.97 C253.84,157.41 253.66,158.31 253.31,158.65 C252.95,158.99 252.02,159.16 250.52,159.16 C248.55,159.16 247.34,158.98 246.89,158.62 C246.44,158.26 246.21,157.29 246.21,155.72 L246.2,153.94 L246.22,152.29 C246.22,150.74 246.42,149.78 246.83,149.39 C247.24,149 248.26,148.81 249.88,148.81 C251.64,148.81 252.73,148.93 253.15,149.17 C253.57,149.41 253.78,150.04 253.78,151.06 L253.78,151.37 L255.16,151.37 L255.16,150.89 C255.16,149.51 254.85,148.62 254.24,148.22 C253.62,147.82 252.26,147.62 250.14,147.62 C248.03,147.62 246.62,147.92 245.92,148.53 C245.22,149.14 244.87,150.37 244.87,152.21 L244.86,153.32 L244.87,155.16 C244.87,157.36 245.18,158.77 245.81,159.41 C246.44,160.04 247.85,160.36 250.05,160.36 C252.38,160.36 253.82,160.09 254.37,159.56 C254.92,159.03 255.2,157.64 255.2,155.39 C255.2,154.81 255.19,154.35 255.16,154.03 L249.81,154.03 L249.81,155.2 L249.8,155.2 Z M232.32,155.09 C232.32,153.97 232.47,153.24 232.78,152.91 C233.09,152.58 233.76,152.41 234.8,152.41 C235.83,152.41 236.5,152.55 236.81,152.84 C237.12,153.12 237.28,153.74 237.28,154.68 L237.29,155.09 L232.32,155.09 Z M237.28,157.85 C237.28,158.45 237.13,158.84 236.82,159.02 C236.51,159.2 235.84,159.29 234.81,159.29 C233.73,159.29 233.04,159.1 232.74,158.72 C232.45,158.34 232.3,157.46 232.3,156.09 L238.59,156.09 L238.59,155.4 C238.59,153.74 238.34,152.65 237.84,152.13 C237.34,151.61 236.29,151.35 234.68,151.35 C233.2,151.35 232.21,151.65 231.71,152.25 C231.21,152.85 230.95,154.02 230.95,155.76 C230.95,157.64 231.2,158.88 231.7,159.47 C232.2,160.06 233.26,160.35 234.87,160.35 C236.25,160.35 237.22,160.17 237.77,159.81 C238.32,159.45 238.6,158.81 238.6,157.9 L238.59,157.58 L237.28,157.58 L237.28,157.85 Z M227.67,160.22 L228.95,160.22 L228.95,147.74 L227.67,147.74 L227.67,160.22 Z M223.86,153.07 C224.16,153.51 224.31,154.47 224.31,155.96 C224.31,157.31 224.16,158.21 223.85,158.64 C223.54,159.07 222.91,159.29 221.94,159.29 C220.93,159.29 220.26,159.07 219.92,158.62 C219.58,158.17 219.42,157.27 219.42,155.93 C219.42,154.47 219.58,153.52 219.89,153.08 C220.2,152.64 220.87,152.42 221.89,152.42 C222.91,152.41 223.56,152.63 223.86,153.07 M218.12,163.96 L219.4,163.96 L219.4,159.18 L219.43,159.18 C219.89,159.95 220.84,160.34 222.28,160.34 C223.54,160.34 224.42,160.02 224.91,159.38 C225.4,158.74 225.65,157.61 225.65,155.97 C225.65,154.2 225.41,152.99 224.92,152.33 C224.43,151.67 223.54,151.34 222.24,151.34 C220.77,151.34 219.81,151.76 219.37,152.6 L219.33,152.57 L219.39,151.46 L218.11,151.46 L218.11,163.96 L218.12,163.96 Z M214.38,152.96 C214.65,153.33 214.79,154.29 214.79,155.84 C214.79,157.39 214.65,158.35 214.38,158.72 C214.11,159.09 213.4,159.27 212.26,159.27 C211.13,159.27 210.43,159.09 210.15,158.72 C209.88,158.35 209.74,157.39 209.74,155.84 C209.74,154.29 209.88,153.33 210.15,152.96 C210.42,152.59 211.12,152.41 212.26,152.41 C213.41,152.41 214.11,152.59 214.38,152.96 M209.13,152.19 C208.65,152.75 208.41,153.97 208.41,155.85 C208.41,157.73 208.65,158.95 209.13,159.51 C209.61,160.07 210.66,160.35 212.26,160.35 C213.87,160.35 214.92,160.07 215.4,159.51 C215.88,158.95 216.12,157.73 216.12,155.85 C216.12,153.97 215.88,152.75 215.4,152.19 C214.92,151.63 213.87,151.35 212.26,151.35 C210.66,151.35 209.61,151.63 209.13,152.19 M200.37,155.09 C200.37,153.97 200.52,153.24 200.83,152.91 C201.14,152.58 201.81,152.41 202.85,152.41 C203.88,152.41 204.55,152.55 204.86,152.84 C205.17,153.12 205.33,153.74 205.33,154.68 L205.34,155.09 L200.37,155.09 Z M205.33,157.85 C205.33,158.45 205.18,158.84 204.87,159.02 C204.56,159.2 203.89,159.29 202.86,159.29 C201.78,159.29 201.08,159.1 200.79,158.72 C200.49,158.34 200.35,157.46 200.35,156.09 L206.64,156.09 L206.64,155.4 C206.64,153.74 206.39,152.65 205.89,152.13 C205.39,151.61 204.33,151.35 202.73,151.35 C201.26,151.35 200.27,151.65 199.76,152.25 C199.26,152.85 199,154.02 199,155.76 C199,157.64 199.25,158.88 199.75,159.47 C200.25,160.06 201.31,160.35 202.92,160.35 C204.3,160.35 205.27,160.17 205.82,159.81 C206.37,159.45 206.65,158.81 206.65,157.9 L206.64,157.58 L205.33,157.58 L205.33,157.85 Z M189.68,148.93 L193.46,148.93 L194,148.94 C194.99,148.94 195.62,149.1 195.89,149.42 C196.16,149.74 196.29,150.5 196.29,151.71 C196.29,152.74 196.09,153.4 195.7,153.68 C195.31,153.97 194.41,154.11 193.02,154.11 L189.68,154.11 L189.68,148.93 Z M189.68,160.22 L189.68,155.3 L193.28,155.3 L193.83,155.29 C195.3,155.29 196.3,155.03 196.83,154.51 C197.36,153.99 197.63,153.02 197.63,151.59 C197.63,150.1 197.37,149.09 196.86,148.55 C196.35,148.01 195.39,147.74 193.98,147.74 L193.5,147.74 L188.26,147.74 L188.26,160.22 L189.68,160.22 Z M181.44,153.44 C181.44,152.04 180.28,151.35 177.97,151.35 C176.53,151.35 175.56,151.51 175.08,151.84 C174.59,152.17 174.35,152.82 174.35,153.8 C174.35,154.84 174.66,155.52 175.27,155.85 C175.88,156.18 177.16,156.34 179.1,156.34 C179.93,156.34 180.35,156.8 180.35,157.72 C180.35,158.36 180.18,158.78 179.85,158.98 C179.52,159.18 178.82,159.28 177.77,159.28 C176.91,159.28 176.34,159.18 176.04,158.99 C175.75,158.8 175.6,158.42 175.6,157.84 L175.59,157.43 L174.26,157.43 L174.25,157.91 C174.25,158.84 174.52,159.47 175.06,159.82 C175.6,160.17 176.58,160.34 178.02,160.34 C179.42,160.34 180.37,160.16 180.9,159.79 C181.42,159.43 181.69,158.75 181.69,157.77 C181.69,156.19 180.9,155.36 179.31,155.28 L178,155.22 L176.97,155.17 C176.11,155.13 175.68,154.66 175.68,153.76 C175.68,153.17 175.81,152.8 176.06,152.64 C176.32,152.48 176.92,152.41 177.87,152.41 C178.9,152.41 179.53,152.48 179.78,152.63 C180.03,152.77 180.15,153.15 180.15,153.76 L181.43,153.76 L181.43,153.44 L181.44,153.44 Z M171.14,160.22 L172.42,160.22 L172.42,147.74 L171.14,147.74 L171.14,160.22 Z M167.61,160.22 L168.89,160.22 L168.89,147.74 L167.61,147.74 L167.61,160.22 Z M164.09,160.22 L165.37,160.22 L165.37,151.48 L164.09,151.48 L164.09,160.22 Z M164.09,149.17 L165.37,149.17 L165.37,147.74 L164.09,147.74 L164.09,149.17 Z M156.04,147.74 L156.04,160.22 L157.32,160.22 L157.32,155.99 L157.84,155.99 L161.55,160.22 L163.28,160.22 L158.87,155.49 L162.61,151.48 L161,151.48 L157.91,154.99 L157.33,154.99 L157.33,147.74 L156.04,147.74 Z M153.33,148.27 C152.76,147.83 151.55,147.61 149.68,147.61 C147.84,147.61 146.61,147.85 146,148.32 C145.38,148.8 145.08,149.74 145.08,151.16 C145.08,153.21 146.14,154.3 148.25,154.45 L149.64,154.52 L151.1,154.59 C151.91,154.64 152.43,154.79 152.69,155.04 C152.94,155.29 153.07,155.8 153.07,156.56 C153.07,157.74 152.88,158.46 152.51,158.73 C152.14,159 151.15,159.14 149.53,159.14 C148.12,159.14 147.25,159 146.91,158.73 C146.57,158.46 146.4,157.77 146.4,156.65 L146.4,156.34 L145,156.34 L145.01,156.9 C145.01,158.28 145.31,159.19 145.9,159.65 C146.49,160.1 147.69,160.33 149.49,160.33 C151.56,160.33 152.9,160.11 153.51,159.65 C154.12,159.2 154.42,158.21 154.42,156.67 C154.42,155.25 154.16,154.34 153.63,153.93 C153.1,153.52 151.87,153.28 149.92,153.19 C148.26,153.11 147.27,152.96 146.93,152.74 C146.59,152.52 146.43,151.91 146.43,150.9 C146.43,150 146.64,149.43 147.07,149.17 C147.5,148.91 148.45,148.78 149.92,148.78 C151.16,148.78 151.95,148.92 152.29,149.19 C152.63,149.46 152.79,150.1 152.79,151.1 L154.19,151.1 C154.18,149.67 153.9,148.72 153.33,148.27 M131.32,156.51 L134.05,148.89 L136.82,156.51 L131.32,156.51 Z M138.2,160.22 L139.67,160.22 L135.01,147.74 L133.04,147.74 L128.47,160.22 L129.96,160.22 L130.92,157.58 L137.24,157.58 L138.2,160.22 Z" id="Shape" fill="#000000" fill-rule="nonzero"></path>
                    <g transform="translate(0.000000, 74.000000)" id="Path">
                        <path d="M24.07,0.79 C24.07,0.79 0.63,0.79 0.63,24.23 L0.63,30.52 C0.63,30.52 0.63,53.96 24.07,53.96 L470.97,53.96 C470.97,53.96 494.41,53.96 494.41,30.52 L494.41,24.23 C494.41,24.23 494.41,0.79 470.97,0.79 L24.07,0.79 Z" fill="#FFCC00" fill-rule="nonzero"></path>
                        <path d="M24.07,0.79 C24.07,0.79 0.63,0.79 0.63,24.23 L0.63,30.52 C0.63,30.52 0.63,53.96 24.07,53.96 L470.97,53.96 C470.97,53.96 494.41,53.96 494.41,30.52 L494.41,24.23 C494.41,24.23 494.41,0.79 470.97,0.79 L24.07,0.79 Z" stroke="#000000" stroke-width="1.6936"></path>
                    </g>
                    <path d="M49.61,31.61 L34.72,31.61 L34.72,27.04 C34.72,24.91 34.53,23.55 34.15,22.97 C33.77,22.39 33.13,22.09 32.25,22.09 C31.29,22.09 30.56,22.48 30.06,23.27 C29.56,24.06 29.32,25.25 29.32,26.85 C29.32,28.91 29.6,30.46 30.15,31.5 C30.68,32.54 32.19,33.8 34.68,35.27 C41.82,39.51 46.31,42.98 48.16,45.7 C50.01,48.42 50.94,52.8 50.94,58.84 C50.94,63.23 50.43,66.47 49.4,68.55 C48.37,70.63 46.38,72.38 43.44,73.79 C40.49,75.2 36.61,75.45 32.7,75.45 C28.41,75.45 25.2,75.09 22.17,73.47 C19.14,71.84 17.15,69.78 16.21,67.26 C15.27,64.75 14.8,61.18 14.8,56.56 L14.8,52.52 L29.69,52.52 L29.69,60.02 C29.69,62.33 29.9,63.82 30.32,64.48 C30.74,65.14 31.48,65.47 32.55,65.47 C33.62,65.47 34.41,65.05 34.93,64.21 C35.45,63.37 35.71,62.13 35.71,60.48 C35.71,56.85 35.21,54.48 34.22,53.36 C33.2,52.24 30.7,50.38 26.72,47.76 C22.73,45.12 20.09,43.2 18.8,42.01 C17.51,40.82 16.43,39.17 15.58,37.06 C14.73,34.95 14.3,32.26 14.3,28.99 C14.3,24.27 14.9,20.81 16.11,18.63 C17.32,16.45 19.26,14.74 21.96,13.51 C24.65,12.28 27.9,11.66 31.71,11.66 C35.87,11.66 39.42,12.33 42.35,13.68 C45.28,15.03 47.22,16.72 48.18,18.76 C49.13,20.8 49.61,24.28 49.61,29.18 L49.61,31.61 L49.61,31.61 Z" id="Path" fill="#000000" fill-rule="nonzero"></path>
                    <polygon id="Path" fill="#000000" fill-rule="nonzero" points="85.52 24.07 79.27 44.2 87.38 74.61 72.59 74.61 67.79 52.59 67.77 74.61 52.39 74.61 52.39 12.96 67.77 12.96 67.79 38.84 72.59 24.08 85.52 24.08"></polygon>
                    <path d="M103.95,12.95 L103.95,20.99 L88.11,20.99 L88.11,12.95 L103.95,12.95 Z M103.95,24.07 L103.95,74.6 L88.11,74.6 L88.11,24.07 L103.95,24.07 L103.95,24.07 Z" id="Shape" fill="#000000" fill-rule="nonzero"></path>
                    <path d="M180.58,40.22 L166.95,40.22 L166.95,37.48 C166.95,35.14 166.82,33.67 166.55,33.04 C166.28,32.42 165.62,32.11 164.55,32.11 C163.69,32.11 163.04,32.39 162.61,32.97 C162.18,33.54 161.96,34.4 161.96,35.54 C161.96,37.09 162.07,38.22 162.28,38.95 C162.5,39.67 163.14,40.47 164.22,41.33 C165.3,42.19 167.51,43.45 170.87,45.1 C175.34,47.28 178.27,49.34 179.67,51.27 C181.07,53.2 181.76,56 181.76,59.69 C181.76,63.8 181.23,66.91 180.16,69 C179.09,71.09 177.31,72.71 174.81,73.84 C172.31,74.97 169.29,75.54 165.77,75.54 C161.86,75.54 158.52,74.93 155.74,73.71 C152.96,72.49 151.05,70.84 150.01,68.76 C148.97,66.68 148.45,63.53 148.45,59.32 L148.45,56.88 L162.08,56.88 L162.08,60.08 C162.08,62.8 162.25,64.56 162.59,65.37 C162.93,66.18 163.61,66.59 164.63,66.59 C165.72,66.59 166.48,66.32 166.91,65.77 C167.34,65.22 167.56,64.08 167.56,62.32 C167.56,59.91 167.28,58.4 166.72,57.79 C166.14,57.18 163.15,55.38 157.77,52.38 C153.25,49.84 150.5,47.54 149.51,45.47 C148.52,43.4 148.02,40.95 148.02,38.1 C148.02,34.06 148.55,31.09 149.62,29.17 C150.69,27.25 152.5,25.77 155.05,24.73 C157.6,23.69 160.56,23.17 163.94,23.17 C167.29,23.17 170.14,23.59 172.49,24.44 C174.84,25.29 176.64,26.41 177.9,27.81 C179.16,29.21 179.92,30.5 180.18,31.69 C180.45,32.88 180.58,34.75 180.58,37.29 L180.58,40.22 L180.58,40.22 Z" id="Path" fill="#000000" fill-rule="nonzero"></path>
                    <path d="M224.67,12.95 L233.84,74.6 L217.46,74.6 L216.6,63.52 L210.87,63.52 L209.91,74.6 L193.33,74.6 L201.51,12.95 L224.67,12.95 L224.67,12.95 Z M216.17,52.59 C215.36,45.61 214.54,36.98 213.73,26.69 C212.1,38.5 211.07,47.13 210.65,52.59 L216.17,52.59 Z" id="Shape" fill="#000000" fill-rule="nonzero"></path>
                    <path d="M268.55,43.15 L254.04,43.15 L254.04,37.32 C254.04,35.29 253.87,33.91 253.54,33.19 C253.21,32.47 252.6,32.11 251.71,32.11 C250.82,32.11 250.22,32.43 249.92,33.06 C249.62,33.7 249.46,35.12 249.46,37.33 L249.46,61.17 C249.46,62.97 249.69,64.32 250.15,65.22 C250.61,66.12 251.28,66.57 252.17,66.57 C253.21,66.57 253.92,66.1 254.28,65.16 C254.65,64.22 254.83,62.44 254.83,59.83 L254.83,53.81 L268.54,53.81 C268.51,57.85 268.37,60.87 268.1,62.89 C267.83,64.91 266.98,66.98 265.55,69.1 C264.12,71.22 262.24,72.82 259.93,73.9 C257.62,74.98 254.76,75.52 251.36,75.52 C247.02,75.52 243.58,74.78 241.04,73.29 C238.5,71.8 236.7,69.72 235.65,67.04 C234.6,64.36 234.07,60.56 234.07,55.64 L234.07,41.28 C234.07,36.99 234.5,33.75 235.36,31.57 C236.22,29.39 238.06,27.44 240.88,25.72 C243.7,24.01 247.13,23.15 251.16,23.15 C255.17,23.15 258.6,24 261.44,25.7 C264.28,27.4 266.17,29.55 267.11,32.14 C268.08,34.73 268.55,38.4 268.55,43.15 Z" id="Path" fill="#000000" fill-rule="nonzero"></path>
                    <path d="M286.86,43.64 L272.43,43.64 L272.43,40.25 C272.43,36.34 272.88,33.33 273.78,31.21 C274.68,29.09 276.49,27.22 279.21,25.59 C281.93,23.96 285.46,23.15 289.8,23.15 C295,23.15 298.93,24.07 301.57,25.91 C304.21,27.75 305.8,30.01 306.33,32.69 C306.86,35.37 307.13,40.89 307.13,49.24 L307.13,74.6 L292.16,74.6 L292.16,70.1 C291.22,71.91 290.01,73.26 288.52,74.16 C287.04,75.06 285.26,75.51 283.21,75.51 C280.52,75.51 278.05,74.75 275.8,73.24 C273.55,71.73 272.43,68.42 272.43,63.32 L272.43,59.17 C272.43,55.39 273.03,52.81 274.22,51.44 C275.41,50.07 278.37,48.47 283.09,46.64 C288.14,44.66 290.84,43.33 291.2,42.64 C291.55,41.95 291.73,40.56 291.73,38.45 C291.73,35.81 291.53,34.09 291.14,33.29 C290.75,32.49 290.09,32.09 289.18,32.09 C288.14,32.09 287.49,32.43 287.24,33.1 C286.99,33.77 286.86,35.52 286.86,38.34 L286.86,43.64 Z M291.74,50.57 C289.28,52.37 287.85,53.88 287.46,55.1 C287.07,56.32 286.87,58.07 286.87,60.36 C286.87,62.98 287.04,64.66 287.38,65.42 C287.72,66.18 288.4,66.56 289.42,66.56 C290.38,66.56 291.01,66.26 291.31,65.66 C291.6,65.06 291.75,63.5 291.75,60.96 L291.75,50.57 L291.74,50.57 Z" id="Shape" fill="#000000" fill-rule="nonzero"></path>
                    <path d="M345.85,12.93 L345.85,74.61 L330.47,74.61 L330.47,70.95 C329,72.48 327.45,73.62 325.82,74.38 C324.19,75.14 322.49,75.53 320.72,75.53 C318.33,75.53 316.26,74.9 314.51,73.64 C312.76,72.38 311.63,70.93 311.14,69.28 C310.64,67.63 310.4,64.94 310.4,61.21 L310.4,37.56 C310.4,33.68 310.65,30.92 311.14,29.3 C311.63,27.67 312.77,26.25 314.55,25.02 C316.33,23.79 318.45,23.17 320.91,23.17 C322.81,23.17 324.56,23.51 326.15,24.2 C327.74,24.89 329.18,25.92 330.47,27.29 L330.47,12.8 L345.85,12.93 Z M330.47,36.79 C330.47,34.94 330.31,33.69 329.99,33.06 C329.67,32.42 329.04,32.11 328.11,32.11 C327.2,32.11 326.58,32.39 326.26,32.97 C325.94,33.54 325.78,34.82 325.78,36.8 L325.78,61.55 C325.78,63.61 325.93,64.96 326.24,65.6 C326.54,66.25 327.13,66.57 327.99,66.57 C328.98,66.57 329.64,66.21 329.97,65.48 C330.3,64.76 330.47,62.99 330.47,60.17 L330.47,36.79 L330.47,36.79 Z" id="Shape" fill="#000000" fill-rule="nonzero"></path>
                    <path d="M384.66,50.23 L364.74,50.23 L364.74,61.16 C364.74,63.44 364.9,64.92 365.24,65.58 C365.57,66.24 366.2,66.57 367.14,66.57 C368.31,66.57 369.09,66.13 369.48,65.26 C369.87,64.38 370.07,62.69 370.07,60.18 L370.07,53.52 L384.66,53.52 L384.66,57.25 C384.66,60.37 384.46,62.77 384.07,64.45 C383.68,66.13 382.76,67.92 381.31,69.82 C379.86,71.72 378.03,73.15 375.81,74.1 C373.59,75.05 370.8,75.53 367.45,75.53 C364.2,75.53 361.33,75.06 358.84,74.12 C356.35,73.18 354.42,71.89 353.03,70.25 C351.65,68.61 350.69,66.81 350.16,64.84 C349.63,62.87 349.36,60.01 349.36,56.25 L349.36,41.51 C349.36,37.09 349.96,33.61 351.15,31.06 C352.34,28.51 354.3,26.55 357.01,25.2 C359.73,23.84 362.85,23.16 366.38,23.16 C370.7,23.16 374.26,23.98 377.06,25.62 C379.86,27.26 381.83,29.43 382.96,32.13 C384.09,34.83 384.66,38.64 384.66,43.54 L384.66,50.23 L384.66,50.23 Z M369.24,42.01 L369.24,38.32 C369.24,35.7 369.1,34.02 368.82,33.26 C368.54,32.5 367.97,32.12 367.11,32.12 C366.04,32.12 365.38,32.44 365.13,33.09 C364.88,33.74 364.75,35.48 364.75,38.33 L364.75,42.02 L369.24,42.02 L369.24,42.01 Z" id="Shape" fill="#000000" fill-rule="nonzero"></path>
                    <path d="M403.32,24.07 L403.05,28.88 C404.24,26.97 405.66,25.54 407.32,24.59 C408.97,23.64 410.85,23.16 412.96,23.16 C417.07,23.16 420.31,25.07 422.67,28.88 C423.96,26.97 425.42,25.54 427.05,24.59 C428.67,23.64 430.48,23.16 432.46,23.16 C435.07,23.16 437.24,23.8 438.95,25.06 C440.67,26.33 441.76,27.88 442.24,29.72 C442.72,31.56 442.96,34.55 442.96,38.69 L442.96,74.6 L428.03,74.6 L428.03,41.66 C428.03,37.34 427.88,34.67 427.59,33.64 C427.3,32.61 426.62,32.1 425.55,32.1 C424.46,32.1 423.75,32.61 423.44,33.62 C423.12,34.64 422.96,37.31 422.96,41.66 L422.96,74.6 L408.03,74.6 L408.03,42.5 C408.03,37.55 407.91,34.58 407.67,33.59 C407.43,32.6 406.76,32.1 405.67,32.1 C404.98,32.1 404.4,32.36 403.92,32.88 C403.44,33.4 403.17,34.04 403.12,34.78 C403.07,35.53 403.04,37.12 403.04,39.56 L403.04,74.59 L388.11,74.59 L388.11,24.06 L403.32,24.06 L403.32,24.07 Z" id="Path" fill="#000000" fill-rule="nonzero"></path>
                    <path d="M480.05,24.07 L475.65,60.87 C474.95,66.69 474.37,70.67 473.9,72.79 C473.43,74.91 472.65,76.66 471.56,78.04 C470.47,79.42 468.95,80.43 467.01,81.09 C465.07,81.75 461.97,82.07 457.7,82.07 L448.37,82.07 L448.37,73.94 C450.76,73.94 452.3,73.82 452.99,73.58 C453.68,73.34 454.02,72.79 454.02,71.95 C454.02,71.54 453.7,69.77 453.07,66.62 L444.65,24.07 L458.62,24.07 L463.68,58.42 L466.14,24.07 L480.05,24.07 L480.05,24.07 Z" id="Path" fill="#000000" fill-rule="nonzero"></path>
                    <rect id="Rectangle" fill="#000000" fill-rule="nonzero" x="205.87" y="20.75" width="15.82" height="54.04"></rect>
                    <g transform="translate(205.000000, 22.000000)" fill="#FFFFFF" fill-rule="nonzero" id="Path">
                        <polygon stroke="#FFFFFF" stroke-width="3.1196" stroke-linejoin="round" points="8.52 0.96 0.11 30.3 16.92 30.3"></polygon>
                        <path d="M13.29,52.11 C13.52,54.42 12.1,57.18 8.51,57.18 C4.92,57.18 3.56,54.11 3.73,52.11 C3.81,51.16 4.65,33.61 4.65,33.61 L12.12,33.61 C12.12,33.61 13.17,50.9 13.29,52.11 Z" stroke="#000000" stroke-width="2.0474"></path>
                    </g>
                    <g transform="translate(16.000000, 86.000000)" fill="#000000" fill-rule="nonzero">
                        <path d="M0.69,30.03 L0.69,0.79 L15.51,0.79 C21.01,0.79 22.29,3.4 22.29,8.51 C22.29,11.59 21.67,13.66 18.63,14.67 L18.63,14.75 C22.53,15.45 23.15,18.26 23.15,21.88 C23.15,27.14 21.2,30.03 16.25,30.03 L0.69,30.03 Z M4.01,13.54 L13.64,13.54 C17.62,13.54 18.98,12.64 18.98,8.08 C18.98,4.14 17.46,3.71 13.99,3.71 L4.01,3.71 L4.01,13.54 Z M4.01,27.11 L14.5,27.11 C18.09,27.11 19.84,26.68 19.84,22.2 C19.84,18.34 19.26,16.39 14.89,16.47 L4.01,16.47 L4.01,27.11 L4.01,27.11 Z" id="Shape"></path>
                        <path d="M57.07,0.79 L57.07,21.84 C57.07,29.68 52.39,30.26 45.49,30.26 C39.1,30.26 33.91,30.1 33.91,21.84 L33.91,0.79 L37.22,0.79 L37.22,21.84 C37.22,26.6 38.35,27.34 45.49,27.34 C51.38,27.34 53.76,27.3 53.76,21.84 L53.76,0.79 L57.07,0.79 Z" id="Path"></path>
                        <polygon id="Path" points="71.59 30.03 68.28 30.03 68.28 0.79 71.59 0.79"></polygon>
                        <polygon id="Path" points="86.11 27.11 101 27.11 101 30.03 82.8 30.03 82.8 0.79 86.11 0.79"></polygon>
                        <path d="M110.81,0.79 L125.04,0.79 C128.59,0.79 135.06,1.26 135.06,12.06 L135.06,19.04 C135.06,21.93 134.59,30.03 125.82,30.03 L110.81,30.03 L110.81,0.79 Z M125.04,27.11 C130.89,27.11 131.67,23.68 131.75,18.45 L131.75,10.77 C131.75,9.13 131.17,3.71 125.59,3.71 L114.13,3.71 L114.13,27.1 L125.04,27.1 L125.04,27.11 Z" id="Shape"></path>
                        <polygon id="Path" points="148.98 30.03 145.67 30.03 145.67 0.79 148.98 0.79"></polygon>
                        <polygon id="Path" points="185.28 30.03 179.86 30.03 163.45 3.52 163.37 3.52 163.37 30.03 160.06 30.03 160.06 0.79 165.52 0.79 181.89 27.5 181.97 27.5 181.97 0.79 185.28 0.79 185.28 30.03"></polygon>
                        <path d="M219.93,15.41 L219.93,21.76 C219.93,28.62 216.85,30.26 210.22,30.26 L207.02,30.26 C199.22,30.26 195.79,28.82 195.79,19.77 L195.79,10.73 C195.79,2.82 199.38,0.55 204.37,0.55 L212.05,0.55 C216.46,0.55 219.85,2.34 219.85,7.06 L219.85,9.32 L216.54,9.32 L216.54,7.64 C216.54,4.29 215.21,3.47 210.46,3.47 L206.37,3.47 C200.05,3.47 199.12,4.72 199.12,11.11 L199.12,20.51 C199.12,26.09 200.99,27.33 206.45,27.33 L209.57,27.33 C215.38,27.33 216.63,26.63 216.63,21.95 L216.63,18.32 L207.31,18.32 L207.31,15.4 L219.93,15.4 L219.93,15.41 Z" id="Path"></path>
                        <polygon id="Path" points="254.18 13.93 268.41 13.93 268.41 16.66 254.18 16.66 254.18 30.03 250.87 30.03 250.87 0.79 268.8 0.79 268.8 3.71 254.18 3.71"></polygon>
                        <path d="M302.06,0.79 L302.06,21.84 C302.06,29.68 297.38,30.26 290.48,30.26 C284.09,30.26 278.9,30.1 278.9,21.84 L278.9,0.79 L282.21,0.79 L282.21,21.84 C282.21,26.6 283.34,27.34 290.48,27.34 C296.37,27.34 298.74,27.3 298.74,21.84 L298.74,0.79 L302.06,0.79 Z" id="Path"></path>
                        <polygon id="Path" points="324.58 30.03 321.27 30.03 321.27 3.71 311.8 3.71 311.8 0.79 334.06 0.79 334.06 3.71 324.59 3.71 324.59 30.03"></polygon>
                        <path d="M366.96,0.79 L366.96,21.84 C366.96,29.68 362.28,30.26 355.38,30.26 C348.99,30.26 343.8,30.1 343.8,21.84 L343.8,0.79 L347.11,0.79 L347.11,21.84 C347.11,26.6 348.24,27.34 355.38,27.34 C361.27,27.34 363.65,27.3 363.65,21.84 L363.65,0.79 L366.96,0.79 Z" id="Path"></path>
                        <path d="M381.42,30.03 L378.11,30.03 L378.11,0.79 L391.6,0.79 C397.92,0.79 400.68,2.54 400.68,9.21 C400.68,13.3 400.21,16.34 395.57,16.93 L395.57,17.01 C398.84,17.24 400.29,19.12 400.29,22.27 L400.29,30.03 L396.98,30.03 L396.98,23.83 C396.98,20.13 396.08,18.33 392.07,18.33 L381.43,18.33 L381.43,30.03 L381.42,30.03 Z M391.63,15.41 C396.74,15.25 397.36,13.69 397.36,8.86 C397.36,5.12 396.85,3.71 391.63,3.71 L381.42,3.71 L381.42,15.41 L391.63,15.41 Z" id="Shape"></path>
                        <polygon id="Path" points="414.08 13.66 428.89 13.66 428.89 16.39 414.08 16.39 414.08 27.11 429.56 27.11 429.56 30.03 410.77 30.03 410.77 0.79 429.56 0.79 429.56 3.71 414.08 3.71"></polygon>
                        <path d="M438.97,9.06 C438.97,1.26 442.56,0.56 449.77,0.56 C456.09,0.56 460.65,0.83 460.3,8.79 L456.99,8.79 C456.83,3.68 455.86,3.49 449.66,3.49 C443.19,3.49 442.29,4.31 442.29,8.36 C442.29,13.94 444.94,13.47 450.4,13.62 C457.34,14.01 460.85,13.81 460.85,21.73 C460.85,30 456.95,30.27 449.58,30.27 C442.13,30.27 438.27,29.37 438.9,20.91 L442.21,20.91 C442.13,27.34 443.38,27.34 449.58,27.34 C455.82,27.34 457.53,27.34 457.53,21.61 C457.53,16.03 455.03,16.97 449.69,16.54 C443.93,16.08 438.97,16.78 438.97,9.06 Z" id="Path"></path>
                    </g>
                    <polygon id="Path" points="145.71 12.78 145.71 74.43 129.87 74.43 129.87 12.78"></polygon>
                </g>
            </g>
        </g>
    </g>
</svg>